<?xml version="1.0" encoding="UTF-8"?>
<svg class="svg-logo1" version="1.1" viewBox="0 0 111.29 44.12" xmlns="http://www.w3.org/2000/svg">
  <g class="svg-main-path" transform="translate(-30.08 -110.84)" shape-rendering="auto">
    <path d="m49.131 113.07-19.051 38.1 7.5723 3.7852 11.031-22.061-2.61e-4 7.4682h-2.1167c2.1167 2.1167 2.1167 6.35 2.1169 8.4673l8.4664 2.116 3.91e-4 -35.983z"/>
    <path d="m74.501 112.81c-2.3512-0.37861-4.8846 0.16285-6.9319 1.4873-5.4595 3.5319-7.9691 10.411-8.3488 17.813-0.37971 7.4015 1.3671 14.455 6.9972 17.871 2.815 1.7082 6.4679 1.6773 9.2321 0.2336 2.7642-1.4437 4.8401-3.9352 6.3987-7.0382l-7.537-3.9268c-0.9678 1.9267-2.096 2.9639-2.7264 3.2932s-0.56217 0.31525-1.0331 0.0296c-0.94176-0.57149-3.1488-4.6861-2.8755-10.014 0.27333-5.3278 2.8833-9.9819 4.4328-10.984 0.77476-0.50122 0.77526-0.40114 1.1293-0.23583 0.35404 0.16533 1.1994 0.86112 1.9175 2.5843l7.7945-3.3684c-1.3017-3.1236-3.3119-5.713-6.1843-7.0543-0.71809-0.33532-1.4816-0.56401-2.2653-0.69021z"/>
    <path d="m109.37 125.61-25.4 4.2344 1.3926 8.3496 25.398-4.2324z"/>
    <path d="m109.37 112.69-25.4 4.2324 1.3926 8.3516 25.398-4.2324z"/>
    <path d="m109.37 138.46-25.4 4.2344 1.3926 8.3516 25.398-4.2344z"/>
    <path transform="scale(.26458)" d="m490.08 418.92-66.082 15.598v136l32-8v-15.99l17.695-8.8496 23.998 47.99 28.619-14.307-24-47.996 31.996-16.002-44.223-88.443h-4e-3zm-17.289 36.961 18.588 37.178-35.381 17.693v-50.908z"/>
  </g>
</svg>
