<?xml version="1.0" encoding="UTF-8" standalone="no"?>
<svg
   xmlns:dc="http://purl.org/dc/elements/1.1/"
   xmlns:cc="http://creativecommons.org/ns#"
   xmlns:rdf="http://www.w3.org/1999/02/22-rdf-syntax-ns#"
   xmlns:svg="http://www.w3.org/2000/svg"
   xmlns="http://www.w3.org/2000/svg"
   xmlns:xlink="http://www.w3.org/1999/xlink"
   xmlns:sodipodi="http://sodipodi.sourceforge.net/DTD/sodipodi-0.dtd"
   xmlns:inkscape="http://www.inkscape.org/namespaces/inkscape"
   version="1.1"
   id="svg2"
   viewBox="0 0 128 128"
   height="128"
   width="128"
   inkscape:version="0.91 r13725"
   sodipodi:docname="bg1.svg">
  <sodipodi:namedview
     pagecolor="#ffffff"
     bordercolor="#666666"
     borderopacity="1"
     objecttolerance="10"
     gridtolerance="10"
     guidetolerance="10"
     inkscape:pageopacity="0"
     inkscape:pageshadow="2"
     inkscape:window-width="1920"
     inkscape:window-height="1023"
     id="namedview339"
     showgrid="true"
     inkscape:zoom="5.2149125"
     inkscape:cx="118.76131"
     inkscape:cy="83.344197"
     inkscape:window-x="0"
     inkscape:window-y="25"
     inkscape:window-maximized="1"
     inkscape:current-layer="svg2"
     inkscape:object-nodes="true">
    <inkscape:grid
       type="xygrid"
       id="grid4627"
       empspacing="8" />
  </sodipodi:namedview>
  <defs
     id="defs4">
    <linearGradient
       id="linearGradient15276">
      <stop
         style="stop-color:#333333;stop-opacity:1"
         offset="0"
         id="stop15278" />
      <stop
         style="stop-color:#111111;stop-opacity:1"
         offset="1"
         id="stop15280" />
    </linearGradient>
    <linearGradient
       id="linearGradient14572">
      <stop
         id="stop14574"
         offset="0"
         style="stop-color:#222222;stop-opacity:1" />
      <stop
         id="stop14576"
         offset="1"
         style="stop-color:#111111;stop-opacity:0" />
    </linearGradient>
    <linearGradient
       id="linearGradient14564">
      <stop
         id="stop14566"
         offset="0"
         style="stop-color:#222222;stop-opacity:1" />
      <stop
         id="stop14568"
         offset="1"
         style="stop-color:#111111;stop-opacity:0" />
    </linearGradient>
    <linearGradient
       id="linearGradient5465">
      <stop
         id="stop5467"
         offset="0"
         style="stop-color:#1e1e1e;stop-opacity:1" />
      <stop
         id="stop5469"
         offset="1"
         style="stop-color:#000000;stop-opacity:1" />
    </linearGradient>
    <linearGradient
       gradientTransform="translate(-1.5321289e-6,-988.36217)"
       gradientUnits="userSpaceOnUse"
       y2="988.36218"
       x2="0"
       y1="1020.3622"
       x1="32"
       id="linearGradient14570"
       xlink:href="#linearGradient14564" />
    <linearGradient
       gradientTransform="translate(-1.5321289e-6,-988.36217)"
       gradientUnits="userSpaceOnUse"
       y2="988.36218"
       x2="0"
       y1="1020.3622"
       x1="32"
       id="linearGradient14578"
       xlink:href="#linearGradient14572" />
    <radialGradient
       gradientUnits="userSpaceOnUse"
       gradientTransform="matrix(1,0,0,1.1547006,0,-1142.2679)"
       r="3.7141016"
       fy="994.86218"
       fx="4.3301268"
       cy="994.86218"
       cx="4.3301268"
       id="radialGradient14944"
       xlink:href="#linearGradient15276" />
    <radialGradient
       gradientUnits="userSpaceOnUse"
       gradientTransform="matrix(1,0,0,1.1547006,0,-1142.268)"
       r="3.7141013"
       fy="994.86218"
       fx="12.990381"
       cy="994.86218"
       cx="12.990381"
       id="radialGradient14946"
       xlink:href="#linearGradient15276" />
    <radialGradient
       gradientUnits="userSpaceOnUse"
       gradientTransform="matrix(1,0,0,1.1547006,0,-1141.1077)"
       r="3.7141013"
       fy="987.36218"
       fx="8.6602535"
       cy="987.36218"
       cx="8.6602535"
       id="radialGradient14948"
       xlink:href="#linearGradient5465" />
    <radialGradient
       gradientUnits="userSpaceOnUse"
       gradientTransform="matrix(1,0,0,1.1547006,0,-1141.1077)"
       r="3.7141013"
       fy="987.36218"
       fx="-3.0000001e-07"
       cy="987.36218"
       cx="-3.0000001e-07"
       id="radialGradient14950"
       xlink:href="#linearGradient15276" />
    <radialGradient
       gradientUnits="userSpaceOnUse"
       gradientTransform="matrix(1,0,0,1.1547006,0,-1141.1077)"
       r="3.7141016"
       fy="987.36218"
       fx="17.320507"
       cy="987.36218"
       cx="17.320507"
       id="radialGradient14952"
       xlink:href="#linearGradient15276" />
    <radialGradient
       gradientUnits="userSpaceOnUse"
       gradientTransform="matrix(1,0,0,1.1547006,0,-1142.268)"
       r="3.7141016"
       fy="994.86218"
       fx="21.650635"
       cy="994.86218"
       cx="21.650635"
       id="radialGradient14954"
       xlink:href="#linearGradient15276" />
    <radialGradient
       gradientUnits="userSpaceOnUse"
       gradientTransform="matrix(1,0,0,1.1547006,0,-1143.4282)"
       r="3.7141016"
       fy="1002.3622"
       fx="17.320507"
       cy="1002.3622"
       cx="17.320507"
       id="radialGradient14956"
       xlink:href="#linearGradient15276" />
    <radialGradient
       gradientUnits="userSpaceOnUse"
       gradientTransform="matrix(1,0,0,1.1547006,0,-1143.4282)"
       r="3.7141016"
       fy="1002.3622"
       fx="8.6602535"
       cy="1002.3622"
       cx="8.6602535"
       id="radialGradient14958"
       xlink:href="#linearGradient15276" />
    <radialGradient
       gradientUnits="userSpaceOnUse"
       gradientTransform="matrix(1,0,0,1.1547006,0,-1143.4282)"
       r="3.7141016"
       fy="1002.3622"
       fx="-4.4999999e-07"
       cy="1002.3622"
       cx="-4.4999999e-07"
       id="radialGradient14960"
       xlink:href="#linearGradient15276" />
    <radialGradient
       gradientUnits="userSpaceOnUse"
       gradientTransform="matrix(1,0,0,1.1547006,0,-1142.268)"
       r="3.7141016"
       fy="994.86218"
       fx="30.310888"
       cy="994.86218"
       cx="30.310888"
       id="radialGradient14962"
       xlink:href="#linearGradient15276" />
    <radialGradient
       gradientUnits="userSpaceOnUse"
       gradientTransform="matrix(1,0,0,1.1547006,0,-1142.268)"
       r="3.7141016"
       fy="994.86218"
       fx="38.971142"
       cy="994.86218"
       cx="38.971142"
       id="radialGradient14964"
       xlink:href="#linearGradient15276" />
    <radialGradient
       gradientUnits="userSpaceOnUse"
       gradientTransform="matrix(1,0,0,1.1547006,0,-1141.1077)"
       r="3.7141016"
       fy="987.36218"
       fx="34.641014"
       cy="987.36218"
       cx="34.641014"
       id="radialGradient14966"
       xlink:href="#linearGradient15276" />
    <radialGradient
       gradientUnits="userSpaceOnUse"
       gradientTransform="matrix(1,0,0,1.1547006,0,-1141.1077)"
       r="3.7141016"
       fy="987.36218"
       fx="25.980761"
       cy="987.36218"
       cx="25.980761"
       id="radialGradient14968"
       xlink:href="#linearGradient15276" />
    <radialGradient
       gradientUnits="userSpaceOnUse"
       gradientTransform="matrix(1,0,0,1.1547006,0,-1141.1077)"
       r="3.7141016"
       fy="987.36218"
       fx="43.30127"
       cy="987.36218"
       cx="43.30127"
       id="radialGradient14970"
       xlink:href="#linearGradient15276" />
    <radialGradient
       gradientUnits="userSpaceOnUse"
       gradientTransform="matrix(1,0,0,1.1547006,0,-1142.268)"
       r="3.7141016"
       fy="994.86218"
       fx="47.631397"
       cy="994.86218"
       cx="47.631397"
       id="radialGradient14972"
       xlink:href="#linearGradient15276" />
    <radialGradient
       gradientUnits="userSpaceOnUse"
       gradientTransform="matrix(1,0,0,1.1547006,0,-1143.4282)"
       r="3.7141016"
       fy="1002.3622"
       fx="43.30127"
       cy="1002.3622"
       cx="43.30127"
       id="radialGradient14974"
       xlink:href="#linearGradient15276" />
    <radialGradient
       gradientUnits="userSpaceOnUse"
       gradientTransform="matrix(1,0,0,1.1547006,0,-1143.4282)"
       r="3.7141016"
       fy="1002.3622"
       fx="34.641014"
       cy="1002.3622"
       cx="34.641014"
       id="radialGradient14976"
       xlink:href="#linearGradient15276" />
    <radialGradient
       gradientUnits="userSpaceOnUse"
       gradientTransform="matrix(1,0,0,1.1547006,0,-1143.4282)"
       r="3.7141016"
       fy="1002.3622"
       fx="25.980761"
       cy="1002.3622"
       cx="25.980761"
       id="radialGradient14978"
       xlink:href="#linearGradient15276" />
    <radialGradient
       gradientUnits="userSpaceOnUse"
       gradientTransform="matrix(1,0,0,1.1547006,0,-1142.268)"
       r="3.7141016"
       fy="994.86218"
       fx="56.291649"
       cy="994.86218"
       cx="56.291649"
       id="radialGradient14980"
       xlink:href="#linearGradient15276" />
    <radialGradient
       gradientUnits="userSpaceOnUse"
       gradientTransform="matrix(1,0,0,1.1547006,0,-1142.268)"
       r="3.7141016"
       fy="994.86218"
       fx="64.951904"
       cy="994.86218"
       cx="64.951904"
       id="radialGradient14982"
       xlink:href="#linearGradient15276" />
    <radialGradient
       gradientUnits="userSpaceOnUse"
       gradientTransform="matrix(1,0,0,1.1547006,0,-1141.1077)"
       r="3.7141016"
       fy="987.36218"
       fx="60.621777"
       cy="987.36218"
       cx="60.621777"
       id="radialGradient14984"
       xlink:href="#linearGradient15276" />
    <radialGradient
       gradientUnits="userSpaceOnUse"
       gradientTransform="matrix(1,0,0,1.1547006,0,-1141.1077)"
       r="3.7141016"
       fy="987.36218"
       fx="51.961521"
       cy="987.36218"
       cx="51.961521"
       id="radialGradient14986"
       xlink:href="#linearGradient15276" />
    <radialGradient
       gradientUnits="userSpaceOnUse"
       gradientTransform="matrix(1,0,0,1.1547006,0,-1143.4282)"
       r="3.7141016"
       fy="1002.3622"
       fx="60.621777"
       cy="1002.3622"
       cx="60.621777"
       id="radialGradient14988"
       xlink:href="#linearGradient15276" />
    <radialGradient
       gradientUnits="userSpaceOnUse"
       gradientTransform="matrix(1,0,0,1.1547006,0,-1143.4282)"
       r="3.7141016"
       fy="1002.3622"
       fx="51.961521"
       cy="1002.3622"
       cx="51.961521"
       id="radialGradient14990"
       xlink:href="#linearGradient15276" />
    <radialGradient
       gradientUnits="userSpaceOnUse"
       gradientTransform="matrix(1,0,0,1.1547006,0,-1145.7487)"
       r="3.7141016"
       fy="1017.3622"
       fx="51.961521"
       cy="1017.3622"
       cx="51.961521"
       id="radialGradient14992"
       xlink:href="#linearGradient15276" />
    <radialGradient
       gradientUnits="userSpaceOnUse"
       gradientTransform="matrix(1,0,0,1.1547006,0,-1145.7487)"
       r="3.7141016"
       fy="1017.3622"
       fx="60.621777"
       cy="1017.3622"
       cx="60.621777"
       id="radialGradient14994"
       xlink:href="#linearGradient15276" />
    <radialGradient
       gradientUnits="userSpaceOnUse"
       gradientTransform="matrix(1,0,0,1.1547006,0,-1144.5885)"
       r="3.7141016"
       fy="1009.8622"
       fx="56.291649"
       cy="1009.8622"
       cx="56.291649"
       id="radialGradient14996"
       xlink:href="#linearGradient15276" />
    <radialGradient
       gradientUnits="userSpaceOnUse"
       gradientTransform="matrix(1,0,0,1.1547006,0,-1144.5885)"
       r="3.7141016"
       fy="1009.8622"
       fx="47.631397"
       cy="1009.8622"
       cx="47.631397"
       id="radialGradient14998"
       xlink:href="#linearGradient15276" />
    <radialGradient
       gradientUnits="userSpaceOnUse"
       gradientTransform="matrix(1,0,0,1.1547006,0,-1144.5885)"
       r="3.7141016"
       fy="1009.8622"
       fx="64.951904"
       cy="1009.8622"
       cx="64.951904"
       id="radialGradient15000"
       xlink:href="#linearGradient15276" />
    <radialGradient
       gradientUnits="userSpaceOnUse"
       gradientTransform="matrix(1,0,0,1.1547006,0,-1146.909)"
       r="3.7141016"
       fy="1024.8622"
       fx="64.951904"
       cy="1024.8622"
       cx="64.951904"
       id="radialGradient15002"
       xlink:href="#linearGradient15276" />
    <radialGradient
       gradientUnits="userSpaceOnUse"
       gradientTransform="matrix(1,0,0,1.1547006,0,-1146.909)"
       r="3.7141016"
       fy="1024.8622"
       fx="56.291649"
       cy="1024.8622"
       cx="56.291649"
       id="radialGradient15004"
       xlink:href="#linearGradient15276" />
    <radialGradient
       gradientUnits="userSpaceOnUse"
       gradientTransform="matrix(1,0,0,1.1547006,0,-1146.909)"
       r="3.7141016"
       fy="1024.8622"
       fx="47.631397"
       cy="1024.8622"
       cx="47.631397"
       id="radialGradient15006"
       xlink:href="#linearGradient15276" />
    <radialGradient
       gradientUnits="userSpaceOnUse"
       gradientTransform="matrix(1,0,0,1.1547006,0,-1145.7487)"
       r="3.7141016"
       fy="1017.3622"
       fx="25.980761"
       cy="1017.3622"
       cx="25.980761"
       id="radialGradient15008"
       xlink:href="#linearGradient15276" />
    <radialGradient
       gradientUnits="userSpaceOnUse"
       gradientTransform="matrix(1,0,0,1.1547006,0,-1145.7487)"
       r="3.7141016"
       fy="1017.3622"
       fx="34.641014"
       cy="1017.3622"
       cx="34.641014"
       id="radialGradient15010"
       xlink:href="#linearGradient15276" />
    <radialGradient
       gradientUnits="userSpaceOnUse"
       gradientTransform="matrix(1,0,0,1.1547006,0,-1144.5885)"
       r="3.7141016"
       fy="1009.8622"
       fx="30.310888"
       cy="1009.8622"
       cx="30.310888"
       id="radialGradient15012"
       xlink:href="#linearGradient15276" />
    <radialGradient
       gradientUnits="userSpaceOnUse"
       gradientTransform="matrix(1,0,0,1.1547006,0,-1144.5885)"
       r="3.7141016"
       fy="1009.8622"
       fx="21.650635"
       cy="1009.8622"
       cx="21.650635"
       id="radialGradient15014"
       xlink:href="#linearGradient15276" />
    <radialGradient
       gradientUnits="userSpaceOnUse"
       gradientTransform="matrix(1,0,0,1.1547006,0,-1144.5885)"
       r="3.7141016"
       fy="1009.8622"
       fx="38.971142"
       cy="1009.8622"
       cx="38.971142"
       id="radialGradient15016"
       xlink:href="#linearGradient15276" />
    <radialGradient
       gradientUnits="userSpaceOnUse"
       gradientTransform="matrix(1,0,0,1.1547006,0,-1145.7487)"
       r="3.7141016"
       fy="1017.3622"
       fx="43.30127"
       cy="1017.3622"
       cx="43.30127"
       id="radialGradient15018"
       xlink:href="#linearGradient15276" />
    <radialGradient
       gradientUnits="userSpaceOnUse"
       gradientTransform="matrix(1,0,0,1.1547006,0,-1146.909)"
       r="3.7141016"
       fy="1024.8622"
       fx="38.971142"
       cy="1024.8622"
       cx="38.971142"
       id="radialGradient15020"
       xlink:href="#linearGradient15276" />
    <radialGradient
       gradientUnits="userSpaceOnUse"
       gradientTransform="matrix(1,0,0,1.1547006,0,-1146.909)"
       r="3.7141016"
       fy="1024.8622"
       fx="30.310888"
       cy="1024.8622"
       cx="30.310888"
       id="radialGradient15022"
       xlink:href="#linearGradient15276" />
    <radialGradient
       gradientUnits="userSpaceOnUse"
       gradientTransform="matrix(1,0,0,1.1547006,0,-1146.909)"
       r="3.7141016"
       fy="1024.8622"
       fx="21.650635"
       cy="1024.8622"
       cx="21.650635"
       id="radialGradient15024"
       xlink:href="#linearGradient15276" />
    <radialGradient
       gradientUnits="userSpaceOnUse"
       gradientTransform="matrix(1,0,0,1.1547006,0,-1145.7487)"
       r="3.7141016"
       fy="1017.3622"
       fx="-4e-07"
       cy="1017.3622"
       cx="-4e-07"
       id="radialGradient15026"
       xlink:href="#linearGradient15276" />
    <radialGradient
       gradientUnits="userSpaceOnUse"
       gradientTransform="matrix(1,0,0,1.1547006,0,-1145.7487)"
       r="3.7141016"
       fy="1017.3622"
       fx="8.6602535"
       cy="1017.3622"
       cx="8.6602535"
       id="radialGradient15028"
       xlink:href="#linearGradient15276" />
    <radialGradient
       gradientUnits="userSpaceOnUse"
       gradientTransform="matrix(1,0,0,1.1547006,0,-1144.5885)"
       r="3.7141016"
       fy="1009.8622"
       fx="4.3301268"
       cy="1009.8622"
       cx="4.3301268"
       id="radialGradient15030"
       xlink:href="#linearGradient15276" />
    <radialGradient
       gradientUnits="userSpaceOnUse"
       gradientTransform="matrix(1,0,0,1.1547006,0,-1144.5885)"
       r="3.7141013"
       fy="1009.8622"
       fx="12.990381"
       cy="1009.8622"
       cx="12.990381"
       id="radialGradient15032"
       xlink:href="#linearGradient15276" />
    <radialGradient
       gradientUnits="userSpaceOnUse"
       gradientTransform="matrix(1,0,0,1.1547006,0,-1145.7487)"
       r="3.7141016"
       fy="1017.3622"
       fx="17.320507"
       cy="1017.3622"
       cx="17.320507"
       id="radialGradient15034"
       xlink:href="#linearGradient15276" />
    <radialGradient
       gradientUnits="userSpaceOnUse"
       gradientTransform="matrix(1,0,0,1.1547006,0,-1146.909)"
       r="3.7141013"
       fy="1024.8622"
       fx="12.990381"
       cy="1024.8622"
       cx="12.990381"
       id="radialGradient15036"
       xlink:href="#linearGradient15276" />
    <radialGradient
       gradientUnits="userSpaceOnUse"
       gradientTransform="matrix(1,0,0,1.1547006,0,-1146.909)"
       r="3.7141016"
       fy="1024.8622"
       fx="4.3301268"
       cy="1024.8622"
       cx="4.3301268"
       id="radialGradient15038"
       xlink:href="#linearGradient15276" />
    <radialGradient
       gradientUnits="userSpaceOnUse"
       gradientTransform="matrix(1,0,0,1.1547006,0,-1149.2295)"
       r="3.7141016"
       fy="1039.8622"
       fx="4.3301268"
       cy="1039.8622"
       cx="4.3301268"
       id="radialGradient15040"
       xlink:href="#linearGradient15276" />
    <radialGradient
       gradientUnits="userSpaceOnUse"
       gradientTransform="matrix(1,0,0,1.1547006,0,-1149.2295)"
       r="3.7141013"
       fy="1039.8622"
       fx="12.990381"
       cy="1039.8622"
       cx="12.990381"
       id="radialGradient15042"
       xlink:href="#linearGradient15276" />
    <radialGradient
       gradientUnits="userSpaceOnUse"
       gradientTransform="matrix(1,0,0,1.1547006,0,-1148.0693)"
       r="3.7141013"
       fy="1032.3622"
       fx="8.6602535"
       cy="1032.3622"
       cx="8.6602535"
       id="radialGradient15044"
       xlink:href="#linearGradient15276" />
    <radialGradient
       gradientUnits="userSpaceOnUse"
       gradientTransform="matrix(1,0,0,1.1547006,0,-1148.0692)"
       r="3.7141016"
       fy="1032.3622"
       fx="-2.5e-07"
       cy="1032.3622"
       cx="-2.5e-07"
       id="radialGradient15046"
       xlink:href="#linearGradient15276" />
    <radialGradient
       gradientUnits="userSpaceOnUse"
       gradientTransform="matrix(1,0,0,1.1547006,0,-1148.0692)"
       r="3.7141016"
       fy="1032.3622"
       fx="17.320507"
       cy="1032.3622"
       cx="17.320507"
       id="radialGradient15048"
       xlink:href="#linearGradient15276" />
    <radialGradient
       gradientUnits="userSpaceOnUse"
       gradientTransform="matrix(1,0,0,1.1547006,0,-1149.2295)"
       r="3.7141016"
       fy="1039.8622"
       fx="21.650635"
       cy="1039.8622"
       cx="21.650635"
       id="radialGradient15050"
       xlink:href="#linearGradient15276" />
    <radialGradient
       gradientUnits="userSpaceOnUse"
       gradientTransform="matrix(1,0,0,1.1547006,0,-1150.3897)"
       r="3.7141016"
       fy="1047.3622"
       fx="17.320507"
       cy="1047.3622"
       cx="17.320507"
       id="radialGradient15052"
       xlink:href="#linearGradient15276" />
    <radialGradient
       gradientUnits="userSpaceOnUse"
       gradientTransform="matrix(1,0,0,1.1547006,0,-1150.3898)"
       r="3.7141013"
       fy="1047.3622"
       fx="8.6602535"
       cy="1047.3622"
       cx="8.6602535"
       id="radialGradient15054"
       xlink:href="#linearGradient15276" />
    <radialGradient
       gradientUnits="userSpaceOnUse"
       gradientTransform="matrix(1,0,0,1.1547006,0,-1150.3898)"
       r="3.7141016"
       fy="1047.3622"
       fx="-2.5e-07"
       cy="1047.3622"
       cx="-2.5e-07"
       id="radialGradient15056"
       xlink:href="#linearGradient15276" />
    <radialGradient
       gradientUnits="userSpaceOnUse"
       gradientTransform="matrix(1,0,0,1.1547006,0,-1149.2295)"
       r="3.7141016"
       fy="1039.8622"
       fx="30.310888"
       cy="1039.8622"
       cx="30.310888"
       id="radialGradient15058"
       xlink:href="#linearGradient15276" />
    <radialGradient
       gradientUnits="userSpaceOnUse"
       gradientTransform="matrix(1,0,0,1.1547006,0,-1149.2295)"
       r="3.7141016"
       fy="1039.8622"
       fx="38.971142"
       cy="1039.8622"
       cx="38.971142"
       id="radialGradient15060"
       xlink:href="#linearGradient15276" />
    <radialGradient
       gradientUnits="userSpaceOnUse"
       gradientTransform="matrix(1,0,0,1.1547006,0,-1148.0692)"
       r="3.7141016"
       fy="1032.3622"
       fx="34.641014"
       cy="1032.3622"
       cx="34.641014"
       id="radialGradient15062"
       xlink:href="#linearGradient15276" />
    <radialGradient
       gradientUnits="userSpaceOnUse"
       gradientTransform="matrix(1,0,0,1.1547006,0,-1148.0692)"
       r="3.7141016"
       fy="1032.3622"
       fx="25.980761"
       cy="1032.3622"
       cx="25.980761"
       id="radialGradient15064"
       xlink:href="#linearGradient15276" />
    <radialGradient
       gradientUnits="userSpaceOnUse"
       gradientTransform="matrix(1,0,0,1.1547006,0,-1148.0692)"
       r="3.7141016"
       fy="1032.3622"
       fx="43.30127"
       cy="1032.3622"
       cx="43.30127"
       id="radialGradient15066"
       xlink:href="#linearGradient15276" />
    <radialGradient
       gradientUnits="userSpaceOnUse"
       gradientTransform="matrix(1,0,0,1.1547006,0,-1149.2295)"
       r="3.7141016"
       fy="1039.8622"
       fx="47.631397"
       cy="1039.8622"
       cx="47.631397"
       id="radialGradient15068"
       xlink:href="#linearGradient15276" />
    <radialGradient
       gradientUnits="userSpaceOnUse"
       gradientTransform="matrix(1,0,0,1.1547006,0,-1150.3897)"
       r="3.7141016"
       fy="1047.3622"
       fx="43.30127"
       cy="1047.3622"
       cx="43.30127"
       id="radialGradient15070"
       xlink:href="#linearGradient15276" />
    <radialGradient
       gradientUnits="userSpaceOnUse"
       gradientTransform="matrix(1,0,0,1.1547006,0,-1150.3897)"
       r="3.7141016"
       fy="1047.3622"
       fx="34.641014"
       cy="1047.3622"
       cx="34.641014"
       id="radialGradient15072"
       xlink:href="#linearGradient15276" />
    <radialGradient
       gradientUnits="userSpaceOnUse"
       gradientTransform="matrix(1,0,0,1.1547006,0,-1150.3897)"
       r="3.7141016"
       fy="1047.3622"
       fx="25.980761"
       cy="1047.3622"
       cx="25.980761"
       id="radialGradient15074"
       xlink:href="#linearGradient15276" />
    <radialGradient
       gradientUnits="userSpaceOnUse"
       gradientTransform="matrix(1,0,0,1.1547006,0,-1149.2295)"
       r="3.7141016"
       fy="1039.8622"
       fx="56.291649"
       cy="1039.8622"
       cx="56.291649"
       id="radialGradient15076"
       xlink:href="#linearGradient15276" />
    <radialGradient
       gradientUnits="userSpaceOnUse"
       gradientTransform="matrix(1,0,0,1.1547006,0,-1149.2295)"
       r="3.7141016"
       fy="1039.8622"
       fx="64.951904"
       cy="1039.8622"
       cx="64.951904"
       id="radialGradient15078"
       xlink:href="#linearGradient15276" />
    <radialGradient
       gradientUnits="userSpaceOnUse"
       gradientTransform="matrix(1,0,0,1.1547006,0,-1148.0692)"
       r="3.7141016"
       fy="1032.3622"
       fx="60.621777"
       cy="1032.3622"
       cx="60.621777"
       id="radialGradient15080"
       xlink:href="#linearGradient15276" />
    <radialGradient
       gradientUnits="userSpaceOnUse"
       gradientTransform="matrix(1,0,0,1.1547006,0,-1148.0692)"
       r="3.7141016"
       fy="1032.3622"
       fx="51.961521"
       cy="1032.3622"
       cx="51.961521"
       id="radialGradient15082"
       xlink:href="#linearGradient15276" />
    <radialGradient
       gradientUnits="userSpaceOnUse"
       gradientTransform="matrix(1,0,0,1.1547006,0,-1150.3897)"
       r="3.7141016"
       fy="1047.3622"
       fx="60.621777"
       cy="1047.3622"
       cx="60.621777"
       id="radialGradient15084"
       xlink:href="#linearGradient15276" />
    <radialGradient
       gradientUnits="userSpaceOnUse"
       gradientTransform="matrix(1,0,0,1.1547006,0,-1150.3897)"
       r="3.7141016"
       fy="1047.3622"
       fx="51.961521"
       cy="1047.3622"
       cx="51.961521"
       id="radialGradient15086"
       xlink:href="#linearGradient15276" />
    <radialGradient
       gradientUnits="userSpaceOnUse"
       gradientTransform="matrix(1,0,0,1.1547006,0,-1142.2679)"
       r="3.7141016"
       fy="994.86218"
       fx="4.3301268"
       cy="994.86218"
       cx="4.3301268"
       id="radialGradient15088"
       xlink:href="#linearGradient15276" />
    <radialGradient
       gradientUnits="userSpaceOnUse"
       gradientTransform="matrix(1,0,0,1.1547006,0,-1142.268)"
       r="3.7141013"
       fy="994.86218"
       fx="12.990381"
       cy="994.86218"
       cx="12.990381"
       id="radialGradient15090"
       xlink:href="#linearGradient15276" />
    <radialGradient
       gradientUnits="userSpaceOnUse"
       gradientTransform="matrix(1,0,0,1.1547006,0,-1141.1077)"
       r="3.7141013"
       fy="987.36218"
       fx="8.6602535"
       cy="987.36218"
       cx="8.6602535"
       id="radialGradient15092"
       xlink:href="#linearGradient15276" />
    <radialGradient
       gradientUnits="userSpaceOnUse"
       gradientTransform="matrix(1,0,0,1.1547006,0,-1141.1077)"
       r="3.7141016"
       fy="987.36218"
       fx="17.320507"
       cy="987.36218"
       cx="17.320507"
       id="radialGradient15096"
       xlink:href="#linearGradient15276" />
    <radialGradient
       gradientUnits="userSpaceOnUse"
       gradientTransform="matrix(1,0,0,1.1547006,0,-1142.268)"
       r="3.7141016"
       fy="994.86218"
       fx="21.650635"
       cy="994.86218"
       cx="21.650635"
       id="radialGradient15098"
       xlink:href="#linearGradient15276" />
    <radialGradient
       gradientUnits="userSpaceOnUse"
       gradientTransform="matrix(1,0,0,1.1547006,0,-1143.4282)"
       r="3.7141016"
       fy="1002.3622"
       fx="17.320507"
       cy="1002.3622"
       cx="17.320507"
       id="radialGradient15100"
       xlink:href="#linearGradient15276" />
    <radialGradient
       gradientUnits="userSpaceOnUse"
       gradientTransform="matrix(1,0,0,1.1547006,0,-1143.4282)"
       r="3.7141016"
       fy="1002.3622"
       fx="8.6602535"
       cy="1002.3622"
       cx="8.6602535"
       id="radialGradient15102"
       xlink:href="#linearGradient15276" />
    <radialGradient
       gradientUnits="userSpaceOnUse"
       gradientTransform="matrix(1,0,0,1.1547006,0,-1143.4282)"
       r="3.7141016"
       fy="1002.3622"
       fx="-4.4999999e-07"
       cy="1002.3622"
       cx="-4.4999999e-07"
       id="radialGradient15104"
       xlink:href="#linearGradient15276" />
    <radialGradient
       gradientUnits="userSpaceOnUse"
       gradientTransform="matrix(1,0,0,1.1547006,0,-1142.268)"
       r="3.7141016"
       fy="994.86218"
       fx="30.310888"
       cy="994.86218"
       cx="30.310888"
       id="radialGradient15106"
       xlink:href="#linearGradient15276" />
    <radialGradient
       gradientUnits="userSpaceOnUse"
       gradientTransform="matrix(1,0,0,1.1547006,0,-1142.268)"
       r="3.7141016"
       fy="994.86218"
       fx="38.971142"
       cy="994.86218"
       cx="38.971142"
       id="radialGradient15108"
       xlink:href="#linearGradient15276" />
    <radialGradient
       gradientUnits="userSpaceOnUse"
       gradientTransform="matrix(1,0,0,1.1547006,0,-1141.1077)"
       r="3.7141016"
       fy="987.36218"
       fx="34.641014"
       cy="987.36218"
       cx="34.641014"
       id="radialGradient15110"
       xlink:href="#linearGradient15276" />
    <radialGradient
       gradientUnits="userSpaceOnUse"
       gradientTransform="matrix(1,0,0,1.1547006,0,-1141.1077)"
       r="3.7141016"
       fy="987.36218"
       fx="25.980761"
       cy="987.36218"
       cx="25.980761"
       id="radialGradient15112"
       xlink:href="#linearGradient15276" />
    <radialGradient
       gradientUnits="userSpaceOnUse"
       gradientTransform="matrix(1,0,0,1.1547006,0,-1141.1077)"
       r="3.7141016"
       fy="987.36218"
       fx="43.30127"
       cy="987.36218"
       cx="43.30127"
       id="radialGradient15114"
       xlink:href="#linearGradient15276" />
    <radialGradient
       gradientUnits="userSpaceOnUse"
       gradientTransform="matrix(1,0,0,1.1547006,0,-1142.268)"
       r="3.7141016"
       fy="994.86218"
       fx="47.631397"
       cy="994.86218"
       cx="47.631397"
       id="radialGradient15116"
       xlink:href="#linearGradient15276" />
    <radialGradient
       gradientUnits="userSpaceOnUse"
       gradientTransform="matrix(1,0,0,1.1547006,0,-1143.4282)"
       r="3.7141016"
       fy="1002.3622"
       fx="43.30127"
       cy="1002.3622"
       cx="43.30127"
       id="radialGradient15118"
       xlink:href="#linearGradient15276" />
    <radialGradient
       gradientUnits="userSpaceOnUse"
       gradientTransform="matrix(1,0,0,1.1547006,0,-1143.4282)"
       r="3.7141016"
       fy="1002.3622"
       fx="34.641014"
       cy="1002.3622"
       cx="34.641014"
       id="radialGradient15120"
       xlink:href="#linearGradient15276" />
    <radialGradient
       gradientUnits="userSpaceOnUse"
       gradientTransform="matrix(1,0,0,1.1547006,0,-1143.4282)"
       r="3.7141016"
       fy="1002.3622"
       fx="25.980761"
       cy="1002.3622"
       cx="25.980761"
       id="radialGradient15122"
       xlink:href="#linearGradient15276" />
    <radialGradient
       gradientUnits="userSpaceOnUse"
       gradientTransform="matrix(1,0,0,1.1547006,0,-1142.268)"
       r="3.7141016"
       fy="994.86218"
       fx="56.291649"
       cy="994.86218"
       cx="56.291649"
       id="radialGradient15124"
       xlink:href="#linearGradient15276" />
    <radialGradient
       gradientUnits="userSpaceOnUse"
       gradientTransform="matrix(1,0,0,1.1547006,0,-1142.268)"
       r="3.7141016"
       fy="994.86218"
       fx="64.951904"
       cy="994.86218"
       cx="64.951904"
       id="radialGradient15126"
       xlink:href="#linearGradient15276" />
    <radialGradient
       gradientUnits="userSpaceOnUse"
       gradientTransform="matrix(1,0,0,1.1547006,0,-1141.1077)"
       r="3.7141016"
       fy="987.36218"
       fx="60.621777"
       cy="987.36218"
       cx="60.621777"
       id="radialGradient15128"
       xlink:href="#linearGradient15276" />
    <radialGradient
       gradientUnits="userSpaceOnUse"
       gradientTransform="matrix(1,0,0,1.1547006,0,-1141.1077)"
       r="3.7141016"
       fy="987.36218"
       fx="51.961521"
       cy="987.36218"
       cx="51.961521"
       id="radialGradient15130"
       xlink:href="#linearGradient15276" />
    <radialGradient
       gradientUnits="userSpaceOnUse"
       gradientTransform="matrix(1,0,0,1.1547006,0,-1143.4282)"
       r="3.7141016"
       fy="1002.3622"
       fx="60.621777"
       cy="1002.3622"
       cx="60.621777"
       id="radialGradient15132"
       xlink:href="#linearGradient15276" />
    <radialGradient
       gradientUnits="userSpaceOnUse"
       gradientTransform="matrix(1,0,0,1.1547006,0,-1143.4282)"
       r="3.7141016"
       fy="1002.3622"
       fx="51.961521"
       cy="1002.3622"
       cx="51.961521"
       id="radialGradient15134"
       xlink:href="#linearGradient15276" />
    <radialGradient
       gradientUnits="userSpaceOnUse"
       gradientTransform="matrix(1,0,0,1.1547006,0,-1145.7487)"
       r="3.7141016"
       fy="1017.3622"
       fx="51.961521"
       cy="1017.3622"
       cx="51.961521"
       id="radialGradient15136"
       xlink:href="#linearGradient15276" />
    <radialGradient
       gradientUnits="userSpaceOnUse"
       gradientTransform="matrix(1,0,0,1.1547006,0,-1145.7487)"
       r="3.7141016"
       fy="1017.3622"
       fx="60.621777"
       cy="1017.3622"
       cx="60.621777"
       id="radialGradient15138"
       xlink:href="#linearGradient15276" />
    <radialGradient
       gradientUnits="userSpaceOnUse"
       gradientTransform="matrix(1,0,0,1.1547006,0,-1144.5885)"
       r="3.7141016"
       fy="1009.8622"
       fx="56.291649"
       cy="1009.8622"
       cx="56.291649"
       id="radialGradient15140"
       xlink:href="#linearGradient15276" />
    <radialGradient
       gradientUnits="userSpaceOnUse"
       gradientTransform="matrix(1,0,0,1.1547006,0,-1144.5885)"
       r="3.7141016"
       fy="1009.8622"
       fx="47.631397"
       cy="1009.8622"
       cx="47.631397"
       id="radialGradient15142"
       xlink:href="#linearGradient15276" />
    <radialGradient
       gradientUnits="userSpaceOnUse"
       gradientTransform="matrix(1,0,0,1.1547006,0,-1144.5885)"
       r="3.7141016"
       fy="1009.8622"
       fx="64.951904"
       cy="1009.8622"
       cx="64.951904"
       id="radialGradient15144"
       xlink:href="#linearGradient15276" />
    <radialGradient
       gradientUnits="userSpaceOnUse"
       gradientTransform="matrix(1,0,0,1.1547006,0,-1146.909)"
       r="3.7141016"
       fy="1024.8622"
       fx="64.951904"
       cy="1024.8622"
       cx="64.951904"
       id="radialGradient15146"
       xlink:href="#linearGradient15276" />
    <radialGradient
       gradientUnits="userSpaceOnUse"
       gradientTransform="matrix(1,0,0,1.1547006,0,-1146.909)"
       r="3.7141016"
       fy="1024.8622"
       fx="56.291649"
       cy="1024.8622"
       cx="56.291649"
       id="radialGradient15148"
       xlink:href="#linearGradient15276" />
    <radialGradient
       gradientUnits="userSpaceOnUse"
       gradientTransform="matrix(1,0,0,1.1547006,0,-1146.909)"
       r="3.7141016"
       fy="1024.8622"
       fx="47.631397"
       cy="1024.8622"
       cx="47.631397"
       id="radialGradient15150"
       xlink:href="#linearGradient15276" />
    <radialGradient
       gradientUnits="userSpaceOnUse"
       gradientTransform="matrix(1,0,0,1.1547006,0,-1145.7487)"
       r="3.7141016"
       fy="1017.3622"
       fx="25.980761"
       cy="1017.3622"
       cx="25.980761"
       id="radialGradient15152"
       xlink:href="#linearGradient15276" />
    <radialGradient
       gradientUnits="userSpaceOnUse"
       gradientTransform="matrix(1,0,0,1.1547006,0,-1145.7487)"
       r="3.7141016"
       fy="1017.3622"
       fx="34.641014"
       cy="1017.3622"
       cx="34.641014"
       id="radialGradient15154"
       xlink:href="#linearGradient15276" />
    <radialGradient
       gradientUnits="userSpaceOnUse"
       gradientTransform="matrix(1,0,0,1.1547006,0,-1144.5885)"
       r="3.7141016"
       fy="1009.8622"
       fx="30.310888"
       cy="1009.8622"
       cx="30.310888"
       id="radialGradient15156"
       xlink:href="#linearGradient15276" />
    <radialGradient
       gradientUnits="userSpaceOnUse"
       gradientTransform="matrix(1,0,0,1.1547006,0,-1144.5885)"
       r="3.7141016"
       fy="1009.8622"
       fx="21.650635"
       cy="1009.8622"
       cx="21.650635"
       id="radialGradient15158"
       xlink:href="#linearGradient15276" />
    <radialGradient
       gradientUnits="userSpaceOnUse"
       gradientTransform="matrix(1,0,0,1.1547006,0,-1144.5885)"
       r="3.7141016"
       fy="1009.8622"
       fx="38.971142"
       cy="1009.8622"
       cx="38.971142"
       id="radialGradient15160"
       xlink:href="#linearGradient15276" />
    <radialGradient
       gradientUnits="userSpaceOnUse"
       gradientTransform="matrix(1,0,0,1.1547006,0,-1145.7487)"
       r="3.7141016"
       fy="1017.3622"
       fx="43.30127"
       cy="1017.3622"
       cx="43.30127"
       id="radialGradient15162"
       xlink:href="#linearGradient15276" />
    <radialGradient
       gradientUnits="userSpaceOnUse"
       gradientTransform="matrix(1,0,0,1.1547006,0,-1146.909)"
       r="3.7141016"
       fy="1024.8622"
       fx="38.971142"
       cy="1024.8622"
       cx="38.971142"
       id="radialGradient15164"
       xlink:href="#linearGradient15276" />
    <radialGradient
       gradientUnits="userSpaceOnUse"
       gradientTransform="matrix(1,0,0,1.1547006,0,-1146.909)"
       r="3.7141016"
       fy="1024.8622"
       fx="30.310888"
       cy="1024.8622"
       cx="30.310888"
       id="radialGradient15166"
       xlink:href="#linearGradient15276" />
    <radialGradient
       gradientUnits="userSpaceOnUse"
       gradientTransform="matrix(1,0,0,1.1547006,0,-1146.909)"
       r="3.7141016"
       fy="1024.8622"
       fx="21.650635"
       cy="1024.8622"
       cx="21.650635"
       id="radialGradient15168"
       xlink:href="#linearGradient15276" />
    <radialGradient
       gradientUnits="userSpaceOnUse"
       gradientTransform="matrix(1,0,0,1.1547006,0,-1145.7487)"
       r="3.7141016"
       fy="1017.3622"
       fx="-4e-07"
       cy="1017.3622"
       cx="-4e-07"
       id="radialGradient15170"
       xlink:href="#linearGradient15276" />
    <radialGradient
       gradientUnits="userSpaceOnUse"
       gradientTransform="matrix(1,0,0,1.1547006,0,-1145.7487)"
       r="3.7141016"
       fy="1017.3622"
       fx="8.6602535"
       cy="1017.3622"
       cx="8.6602535"
       id="radialGradient15172"
       xlink:href="#linearGradient15276" />
    <radialGradient
       gradientUnits="userSpaceOnUse"
       gradientTransform="matrix(1,0,0,1.1547006,0,-1144.5885)"
       r="3.7141016"
       fy="1009.8622"
       fx="4.3301268"
       cy="1009.8622"
       cx="4.3301268"
       id="radialGradient15174"
       xlink:href="#linearGradient15276" />
    <radialGradient
       gradientUnits="userSpaceOnUse"
       gradientTransform="matrix(1,0,0,1.1547006,0,-1144.5885)"
       r="3.7141013"
       fy="1009.8622"
       fx="12.990381"
       cy="1009.8622"
       cx="12.990381"
       id="radialGradient15176"
       xlink:href="#linearGradient15276" />
    <radialGradient
       gradientUnits="userSpaceOnUse"
       gradientTransform="matrix(1,0,0,1.1547006,0,-1145.7487)"
       r="3.7141016"
       fy="1017.3622"
       fx="17.320507"
       cy="1017.3622"
       cx="17.320507"
       id="radialGradient15178"
       xlink:href="#linearGradient15276" />
    <radialGradient
       gradientUnits="userSpaceOnUse"
       gradientTransform="matrix(1,0,0,1.1547006,0,-1146.909)"
       r="3.7141013"
       fy="1024.8622"
       fx="12.990381"
       cy="1024.8622"
       cx="12.990381"
       id="radialGradient15180"
       xlink:href="#linearGradient15276" />
    <radialGradient
       gradientUnits="userSpaceOnUse"
       gradientTransform="matrix(1,0,0,1.1547006,0,-1146.909)"
       r="3.7141016"
       fy="1024.8622"
       fx="4.3301268"
       cy="1024.8622"
       cx="4.3301268"
       id="radialGradient15182"
       xlink:href="#linearGradient15276" />
    <radialGradient
       gradientUnits="userSpaceOnUse"
       gradientTransform="matrix(1,0,0,1.1547006,0,-1149.2295)"
       r="3.7141016"
       fy="1039.8622"
       fx="4.3301268"
       cy="1039.8622"
       cx="4.3301268"
       id="radialGradient15184"
       xlink:href="#linearGradient15276" />
    <radialGradient
       gradientUnits="userSpaceOnUse"
       gradientTransform="matrix(1,0,0,1.1547006,0,-1149.2295)"
       r="3.7141013"
       fy="1039.8622"
       fx="12.990381"
       cy="1039.8622"
       cx="12.990381"
       id="radialGradient15186"
       xlink:href="#linearGradient15276" />
    <radialGradient
       gradientUnits="userSpaceOnUse"
       gradientTransform="matrix(1,0,0,1.1547006,0,-1148.0693)"
       r="3.7141013"
       fy="1032.3622"
       fx="8.6602535"
       cy="1032.3622"
       cx="8.6602535"
       id="radialGradient15188"
       xlink:href="#linearGradient15276" />
    <radialGradient
       gradientUnits="userSpaceOnUse"
       gradientTransform="matrix(1,0,0,1.1547006,0,-1148.0692)"
       r="3.7141016"
       fy="1032.3622"
       fx="-2.5e-07"
       cy="1032.3622"
       cx="-2.5e-07"
       id="radialGradient15190"
       xlink:href="#linearGradient15276" />
    <radialGradient
       gradientUnits="userSpaceOnUse"
       gradientTransform="matrix(1,0,0,1.1547006,0,-1148.0692)"
       r="3.7141016"
       fy="1032.3622"
       fx="17.320507"
       cy="1032.3622"
       cx="17.320507"
       id="radialGradient15192"
       xlink:href="#linearGradient15276" />
    <radialGradient
       gradientUnits="userSpaceOnUse"
       gradientTransform="matrix(1,0,0,1.1547006,0,-1149.2295)"
       r="3.7141016"
       fy="1039.8622"
       fx="21.650635"
       cy="1039.8622"
       cx="21.650635"
       id="radialGradient15194"
       xlink:href="#linearGradient15276" />
    <radialGradient
       gradientUnits="userSpaceOnUse"
       gradientTransform="matrix(1,0,0,1.1547006,0,-1150.3897)"
       r="3.7141016"
       fy="1047.3622"
       fx="17.320507"
       cy="1047.3622"
       cx="17.320507"
       id="radialGradient15196"
       xlink:href="#linearGradient15276" />
    <radialGradient
       gradientUnits="userSpaceOnUse"
       gradientTransform="matrix(1,0,0,1.1547006,0,-1150.3898)"
       r="3.7141013"
       fy="1047.3622"
       fx="8.6602535"
       cy="1047.3622"
       cx="8.6602535"
       id="radialGradient15198"
       xlink:href="#linearGradient15276" />
    <radialGradient
       gradientUnits="userSpaceOnUse"
       gradientTransform="matrix(1,0,0,1.1547006,0,-1150.3898)"
       r="3.7141016"
       fy="1047.3622"
       fx="-2.5e-07"
       cy="1047.3622"
       cx="-2.5e-07"
       id="radialGradient15200"
       xlink:href="#linearGradient15276" />
    <radialGradient
       gradientUnits="userSpaceOnUse"
       gradientTransform="matrix(1,0,0,1.1547006,0,-1149.2295)"
       r="3.7141016"
       fy="1039.8622"
       fx="30.310888"
       cy="1039.8622"
       cx="30.310888"
       id="radialGradient15202"
       xlink:href="#linearGradient15276" />
    <radialGradient
       gradientUnits="userSpaceOnUse"
       gradientTransform="matrix(1,0,0,1.1547006,0,-1149.2295)"
       r="3.7141016"
       fy="1039.8622"
       fx="38.971142"
       cy="1039.8622"
       cx="38.971142"
       id="radialGradient15204"
       xlink:href="#linearGradient15276" />
    <radialGradient
       gradientUnits="userSpaceOnUse"
       gradientTransform="matrix(1,0,0,1.1547006,0,-1148.0692)"
       r="3.7141016"
       fy="1032.3622"
       fx="34.641014"
       cy="1032.3622"
       cx="34.641014"
       id="radialGradient15206"
       xlink:href="#linearGradient15276" />
    <radialGradient
       gradientUnits="userSpaceOnUse"
       gradientTransform="matrix(1,0,0,1.1547006,0,-1148.0692)"
       r="3.7141016"
       fy="1032.3622"
       fx="25.980761"
       cy="1032.3622"
       cx="25.980761"
       id="radialGradient15208"
       xlink:href="#linearGradient15276" />
    <radialGradient
       gradientUnits="userSpaceOnUse"
       gradientTransform="matrix(1,0,0,1.1547006,0,-1148.0692)"
       r="3.7141016"
       fy="1032.3622"
       fx="43.30127"
       cy="1032.3622"
       cx="43.30127"
       id="radialGradient15210"
       xlink:href="#linearGradient15276" />
    <radialGradient
       gradientUnits="userSpaceOnUse"
       gradientTransform="matrix(1,0,0,1.1547006,0,-1149.2295)"
       r="3.7141016"
       fy="1039.8622"
       fx="47.631397"
       cy="1039.8622"
       cx="47.631397"
       id="radialGradient15212"
       xlink:href="#linearGradient15276" />
    <radialGradient
       gradientUnits="userSpaceOnUse"
       gradientTransform="matrix(1,0,0,1.1547006,0,-1150.3897)"
       r="3.7141016"
       fy="1047.3622"
       fx="43.30127"
       cy="1047.3622"
       cx="43.30127"
       id="radialGradient15214"
       xlink:href="#linearGradient15276" />
    <radialGradient
       gradientUnits="userSpaceOnUse"
       gradientTransform="matrix(1,0,0,1.1547006,0,-1150.3897)"
       r="3.7141016"
       fy="1047.3622"
       fx="34.641014"
       cy="1047.3622"
       cx="34.641014"
       id="radialGradient15216"
       xlink:href="#linearGradient15276" />
    <radialGradient
       gradientUnits="userSpaceOnUse"
       gradientTransform="matrix(1,0,0,1.1547006,0,-1150.3897)"
       r="3.7141016"
       fy="1047.3622"
       fx="25.980761"
       cy="1047.3622"
       cx="25.980761"
       id="radialGradient15218"
       xlink:href="#linearGradient15276" />
    <radialGradient
       gradientUnits="userSpaceOnUse"
       gradientTransform="matrix(1,0,0,1.1547006,0,-1149.2295)"
       r="3.7141016"
       fy="1039.8622"
       fx="56.291649"
       cy="1039.8622"
       cx="56.291649"
       id="radialGradient15220"
       xlink:href="#linearGradient15276" />
    <radialGradient
       gradientUnits="userSpaceOnUse"
       gradientTransform="matrix(1,0,0,1.1547006,0,-1149.2295)"
       r="3.7141016"
       fy="1039.8622"
       fx="64.951904"
       cy="1039.8622"
       cx="64.951904"
       id="radialGradient15222"
       xlink:href="#linearGradient15276" />
    <radialGradient
       gradientUnits="userSpaceOnUse"
       gradientTransform="matrix(1,0,0,1.1547006,0,-1148.0692)"
       r="3.7141016"
       fy="1032.3622"
       fx="60.621777"
       cy="1032.3622"
       cx="60.621777"
       id="radialGradient15224"
       xlink:href="#linearGradient15276" />
    <radialGradient
       gradientUnits="userSpaceOnUse"
       gradientTransform="matrix(1,0,0,1.1547006,0,-1148.0692)"
       r="3.7141016"
       fy="1032.3622"
       fx="51.961521"
       cy="1032.3622"
       cx="51.961521"
       id="radialGradient15226"
       xlink:href="#linearGradient15276" />
    <radialGradient
       gradientUnits="userSpaceOnUse"
       gradientTransform="matrix(1,0,0,1.1547006,0,-1150.3897)"
       r="3.7141016"
       fy="1047.3622"
       fx="60.621777"
       cy="1047.3622"
       cx="60.621777"
       id="radialGradient15228"
       xlink:href="#linearGradient15276" />
    <radialGradient
       gradientUnits="userSpaceOnUse"
       gradientTransform="matrix(1,0,0,1.1547006,0,-1150.3897)"
       r="3.7141016"
       fy="1047.3622"
       fx="51.961521"
       cy="1047.3622"
       cx="51.961521"
       id="radialGradient15230"
       xlink:href="#linearGradient15276" />
    <radialGradient
       gradientUnits="userSpaceOnUse"
       gradientTransform="matrix(1,0,0,1.1547006,0,-1151.55)"
       r="3.7141013"
       fy="1054.8622"
       fx="4.3301268"
       cy="1054.8622"
       cx="4.3301268"
       id="radialGradient15232"
       xlink:href="#linearGradient15276" />
    <radialGradient
       gradientUnits="userSpaceOnUse"
       gradientTransform="matrix(1,0,0,1.1547006,0,-1151.55)"
       r="3.7141013"
       fy="1054.8622"
       fx="12.990381"
       cy="1054.8622"
       cx="12.990381"
       id="radialGradient15234"
       xlink:href="#linearGradient15276" />
    <radialGradient
       gradientUnits="userSpaceOnUse"
       gradientTransform="matrix(1,0,0,1.1547006,0,-1151.55)"
       r="3.7141016"
       fy="1054.8622"
       fx="30.310888"
       cy="1054.8622"
       cx="30.310888"
       id="radialGradient15236"
       xlink:href="#linearGradient15276" />
    <radialGradient
       gradientUnits="userSpaceOnUse"
       gradientTransform="matrix(1,0,0,1.1547006,0,-1151.55)"
       r="3.7141016"
       fy="1054.8622"
       fx="21.650635"
       cy="1054.8622"
       cx="21.650635"
       id="radialGradient15238"
       xlink:href="#linearGradient15276" />
    <radialGradient
       gradientUnits="userSpaceOnUse"
       gradientTransform="matrix(1,0,0,1.1547006,0,-1151.55)"
       r="3.7141016"
       fy="1054.8622"
       fx="38.971142"
       cy="1054.8622"
       cx="38.971142"
       id="radialGradient15240"
       xlink:href="#linearGradient15276" />
    <radialGradient
       gradientUnits="userSpaceOnUse"
       gradientTransform="matrix(1,0,0,1.1547006,0,-1151.55)"
       r="3.7141016"
       fy="1054.8622"
       fx="56.291649"
       cy="1054.8622"
       cx="56.291649"
       id="radialGradient15242"
       xlink:href="#linearGradient15276" />
    <radialGradient
       gradientUnits="userSpaceOnUse"
       gradientTransform="matrix(1,0,0,1.1547006,0,-1151.55)"
       r="3.7141016"
       fy="1054.8622"
       fx="47.631393"
       cy="1054.8622"
       cx="47.631393"
       id="radialGradient15244"
       xlink:href="#linearGradient15276" />
    <radialGradient
       gradientUnits="userSpaceOnUse"
       gradientTransform="matrix(1,0,0,1.1547006,0,-1151.55)"
       r="3.7141016"
       fy="1054.8622"
       fx="64.951904"
       cy="1054.8622"
       cx="64.951904"
       id="radialGradient15246"
       xlink:href="#linearGradient15276" />
    <radialGradient
       gradientUnits="userSpaceOnUse"
       gradientTransform="matrix(1,0,0,1.1547006,0,-1151.55)"
       r="3.7141013"
       fy="1054.8622"
       fx="4.3301268"
       cy="1054.8622"
       cx="4.3301268"
       id="radialGradient15248"
       xlink:href="#linearGradient15276" />
    <radialGradient
       gradientUnits="userSpaceOnUse"
       gradientTransform="matrix(1,0,0,1.1547006,0,-1151.55)"
       r="3.7141013"
       fy="1054.8622"
       fx="12.990381"
       cy="1054.8622"
       cx="12.990381"
       id="radialGradient15250"
       xlink:href="#linearGradient15276" />
    <radialGradient
       gradientUnits="userSpaceOnUse"
       gradientTransform="matrix(1,0,0,1.1547006,0,-1151.55)"
       r="3.7141016"
       fy="1054.8622"
       fx="30.310888"
       cy="1054.8622"
       cx="30.310888"
       id="radialGradient15252"
       xlink:href="#linearGradient15276" />
    <radialGradient
       gradientUnits="userSpaceOnUse"
       gradientTransform="matrix(1,0,0,1.1547006,0,-1151.55)"
       r="3.7141016"
       fy="1054.8622"
       fx="21.650635"
       cy="1054.8622"
       cx="21.650635"
       id="radialGradient15254"
       xlink:href="#linearGradient15276" />
    <radialGradient
       gradientUnits="userSpaceOnUse"
       gradientTransform="matrix(1,0,0,1.1547006,0,-1151.55)"
       r="3.7141016"
       fy="1054.8622"
       fx="38.971142"
       cy="1054.8622"
       cx="38.971142"
       id="radialGradient15256"
       xlink:href="#linearGradient15276" />
    <radialGradient
       gradientUnits="userSpaceOnUse"
       gradientTransform="matrix(1,0,0,1.1547006,0,-1151.55)"
       r="3.7141016"
       fy="1054.8622"
       fx="56.291649"
       cy="1054.8622"
       cx="56.291649"
       id="radialGradient15258"
       xlink:href="#linearGradient15276" />
    <radialGradient
       gradientUnits="userSpaceOnUse"
       gradientTransform="matrix(1,0,0,1.1547006,0,-1151.55)"
       r="3.7141016"
       fy="1054.8622"
       fx="47.631393"
       cy="1054.8622"
       cx="47.631393"
       id="radialGradient15260"
       xlink:href="#linearGradient15276" />
    <radialGradient
       gradientUnits="userSpaceOnUse"
       gradientTransform="matrix(1,0,0,1.1547006,0,-1151.55)"
       r="3.7141016"
       fy="1054.8622"
       fx="64.951904"
       cy="1054.8622"
       cx="64.951904"
       id="radialGradient15262"
       xlink:href="#linearGradient15276" />
    <filter
       inkscape:collect="always"
       style="color-interpolation-filters:sRGB"
       id="filter8146"
       x="-0.012302095"
       width="1.0246042"
       y="-0.011712386"
       height="1.0234247">
      <feGaussianBlur
         inkscape:collect="always"
         stdDeviation="0.36845215"
         id="feGaussianBlur8148" />
    </filter>
    <mask
       maskUnits="userSpaceOnUse"
       id="mask8226">
      <path
         style="fill:#d25050;fill-opacity:1;stroke:none;stroke-width:4;stroke-linecap:square;stroke-miterlimit:4;stroke-dasharray:none;stroke-opacity:0.49315072"
         d="m -16,-24 0,176 168,0 0,-176 -168,0 z m 14,13 3.4648438,2 0,4 L -2,-3 l -3.4648438,-2 0,-4 L -2,-11 Z m 8.6601562,0 3.4648438,2 0,4 -3.4648438,2 -3.4648437,-2 0,-4 3.4648437,-2 z m 8.6601558,0 3.464844,2 0,4 -3.464844,2 -3.464843,-2 0,-4 3.464843,-2 z m 8.660157,0 3.464843,2 0,4 -3.464843,2 -3.462891,-2 0,-4 3.462891,-2 z m 8.660156,0 3.464844,2 0,4 -3.464844,2 -3.462891,-2 0,-4 3.462891,-2 z m 8.660156,0 3.464844,2 0,4 -3.464844,2 -3.46289,-2 0,-4 3.46289,-2 z m 8.660157,0 3.464843,2 0,4 -3.464843,2 -3.462891,-2 0,-4 3.462891,-2 z m 8.660156,0 3.464844,2 0,4 -3.464844,2 -3.462891,-2 0,-4 3.462891,-2 z m 8.660156,0 3.464844,2 0,4 -3.464844,2 -3.464844,-2 0,-4 3.464844,-2 z m 8.660156,0 3.464844,2 0,4 -3.464844,2 -3.464844,-2 0,-4 3.464844,-2 z m 8.660156,0 3.464844,2 0,4 -3.464844,2 -3.464843,-2 0,-4 3.464843,-2 z m 8.660157,0 3.464843,2 0,4 -3.464843,2 -3.462891,-2 0,-4 3.462891,-2 z m 8.660161,0 3.46484,2 0,4 -3.46484,2 -3.462896,-2 0,-4 3.462896,-2 z m 8.66015,0 3.46485,2 0,4 -3.46485,2 -3.46289,-2 0,-4 3.46289,-2 z m 8.66016,0 3.46484,2 0,4 -3.46484,2 -3.46289,-2 0,-4 3.46289,-2 z m 8.66015,0 3.46485,2 0,4 -3.46485,2 -3.46289,-2 0,-4 3.46289,-2 z m -125.5722619,7.5 3.4648438,2 0,4 -3.4648438,2 -3.4648437,-2 0,-4 3.4648437,-2 z m 8.6601559,0 3.464844,2 0,4 -3.464844,2 -3.4648434,-2 0,-4 3.4648434,-2 z m 8.660157,0 3.464843,2 0,4 -3.464843,2 -3.462891,-2 0,-4 3.462891,-2 z m 8.660156,0 3.464844,2 0,4 -3.464844,2 -3.462891,-2 0,-4 3.462891,-2 z m 8.660156,0 3.464844,2 0,4 -3.464844,2 -3.462891,-2 0,-4 3.462891,-2 z m 8.660156,0 3.464844,2 0,4 -3.464844,2 -3.46289,-2 0,-4 3.46289,-2 z m 8.660157,0 3.464843,2 0,4 -3.464843,2 -3.462891,-2 0,-4 3.462891,-2 z m 8.660156,0 3.464844,2 0,4 -3.464844,2 -3.462891,-2 0,-4 3.462891,-2 z m 8.660156,0 3.464844,2 0,4 -3.464844,2 -3.464844,-2 0,-4 3.464844,-2 z m 8.660156,0 3.464844,2 0,4 -3.464844,2 -3.464843,-2 0,-4 3.464843,-2 z m 8.660157,0 3.464843,2 0,4 -3.464843,2 -3.462891,-2 0,-4 3.462891,-2 z m 8.660156,0 3.464843,2 0,4 -3.464843,2 -3.462891,-2 0,-4 3.462891,-2 z m 8.660153,0 3.46485,2 0,4 -3.46485,2 -3.46289,-2 0,-4 3.46289,-2 z m 8.66016,0 3.46484,2 0,4 -3.46484,2 -3.46289,-2 0,-4 3.46289,-2 z m 8.66016,0 3.46484,2 0,4 -3.46484,2 -3.46289,-2 0,-4 3.46289,-2 z m 8.66015,0 3.46485,2 0,4 -3.46485,2 -3.46289,-2 0,-4 3.46289,-2 z M -2,4 l 3.4648438,2 0,4 L -2,12 l -3.4648438,-2 0,-4 L -2,4 Z M 6.6601562,4 10.125,6 l 0,4 -3.4648438,2 -3.4648437,-2 0,-4 3.4648437,-2 z m 8.6601558,0 3.464844,2 0,4 -3.464844,2 -3.464843,-2 0,-4 3.464843,-2 z m 8.660157,0 3.464843,2 0,4 -3.464843,2 -3.462891,-2 0,-4 3.462891,-2 z m 8.660156,0 3.464844,2 0,4 -3.464844,2 -3.462891,-2 0,-4 3.462891,-2 z m 8.660156,0 3.464844,2 0,4 -3.464844,2 -3.46289,-2 0,-4 3.46289,-2 z m 8.660157,0 3.464843,2 0,4 -3.464843,2 -3.462891,-2 0,-4 3.462891,-2 z m 8.660156,0 3.464844,2 0,4 -3.464844,2 -3.462891,-2 0,-4 3.462891,-2 z m 8.660156,0 3.464844,2 0,4 -3.464844,2 -3.464844,-2 0,-4 3.464844,-2 z m 8.660156,0 3.464844,2 0,4 -3.464844,2 -3.464844,-2 0,-4 3.464844,-2 z m 8.660156,0 3.464844,2 0,4 -3.464844,2 -3.464843,-2 0,-4 3.464843,-2 z m 8.660157,0 3.464843,2 0,4 -3.464843,2 -3.462891,-2 0,-4 3.462891,-2 z m 8.660161,0 3.46484,2 0,4 -3.46484,2 -3.462896,-2 0,-4 3.462896,-2 z m 8.66015,0 3.46485,2 0,4 -3.46485,2 -3.46289,-2 0,-4 3.46289,-2 z m 8.66016,0 3.46484,2 0,4 -3.46484,2 -3.46289,-2 0,-4 3.46289,-2 z m 8.66015,0 3.46485,2 0,4 -3.46485,2 -3.46289,-2 0,-4 3.46289,-2 z m -125.5722619,7.5 3.4648438,2 0,4 -3.4648438,2 -3.4648437,-2 0,-4 3.4648437,-2 z m 8.6601559,0 3.464844,2 0,4 -3.464844,2 -3.4648434,-2 0,-4 3.4648434,-2 z m 8.660157,0 3.464843,2 0,4 -3.464843,2 -3.462891,-2 0,-4 3.462891,-2 z m 8.660156,0 3.464844,2 0,4 -3.464844,2 -3.462891,-2 0,-4 3.462891,-2 z m 8.660156,0 3.464844,2 0,4 -3.464844,2 -3.462891,-2 0,-4 3.462891,-2 z m 8.660156,0 3.464844,2 0,4 -3.464844,2 -3.46289,-2 0,-4 3.46289,-2 z m 8.660157,0 3.464843,2 0,4 -3.464843,2 -3.462891,-2 0,-4 3.462891,-2 z m 8.660156,0 3.464844,2 0,4 -3.464844,2 -3.462891,-2 0,-4 3.462891,-2 z m 8.660156,0 3.464844,2 0,4 -3.464844,2 -3.464844,-2 0,-4 3.464844,-2 z m 8.660156,0 3.464844,2 0,4 -3.464844,2 -3.464843,-2 0,-4 3.464843,-2 z m 8.660157,0 3.464843,2 0,4 -3.464843,2 -3.462891,-2 0,-4 3.462891,-2 z m 8.660156,0 3.464843,2 0,4 -3.464843,2 -3.462891,-2 0,-4 3.462891,-2 z m 8.660153,0 3.46485,2 0,4 -3.46485,2 -3.46289,-2 0,-4 3.46289,-2 z m 8.66016,0 3.46484,2 0,4 -3.46484,2 -3.46289,-2 0,-4 3.46289,-2 z m 8.66016,0 3.46484,2 0,4 -3.46484,2 -3.46289,-2 0,-4 3.46289,-2 z m 8.66015,0 3.46485,2 0,4 -3.46485,2 -3.46289,-2 0,-4 3.46289,-2 z M -2,19 l 3.4648438,2 0,4 L -2,27 l -3.4648438,-2 0,-4 L -2,19 Z m 8.6601562,0 3.4648438,2 0,4 -3.4648438,2 -3.4648437,-2 0,-4 3.4648437,-2 z m 8.6601558,0 3.464844,2 0,4 -3.464844,2 -3.464843,-2 0,-4 3.464843,-2 z m 8.660157,0 3.464843,2 0,4 -3.464843,2 -3.462891,-2 0,-4 3.462891,-2 z m 8.660156,0 3.464844,2 0,4 -3.464844,2 -3.462891,-2 0,-4 3.462891,-2 z m 8.660156,0 3.464844,2 0,4 -3.464844,2 -3.46289,-2 0,-4 3.46289,-2 z m 8.660157,0 3.464843,2 0,4 -3.464843,2 -3.462891,-2 0,-4 3.462891,-2 z m 8.660156,0 3.464844,2 0,4 -3.464844,2 -3.462891,-2 0,-4 3.462891,-2 z m 8.660156,0 3.464844,2 0,4 -3.464844,2 -3.464844,-2 0,-4 3.464844,-2 z m 8.660156,0 3.464844,2 0,4 -3.464844,2 -3.464844,-2 0,-4 3.464844,-2 z m 8.660156,0 3.464844,2 0,4 -3.464844,2 -3.464843,-2 0,-4 3.464843,-2 z m 8.660157,0 3.464843,2 0,4 -3.464843,2 -3.462891,-2 0,-4 3.462891,-2 z m 8.660161,0 3.46484,2 0,4 -3.46484,2 -3.462896,-2 0,-4 3.462896,-2 z m 8.66015,0 3.46485,2 0,4 -3.46485,2 -3.46289,-2 0,-4 3.46289,-2 z m 8.66016,0 3.46484,2 0,4 -3.46484,2 -3.46289,-2 0,-4 3.46289,-2 z m 8.66015,0 3.46485,2 0,4 -3.46485,2 -3.46289,-2 0,-4 3.46289,-2 z m -125.5722619,7.5 3.4648438,2 0,4 -3.4648438,2 -3.4648437,-2 0,-4 3.4648437,-2 z m 8.6601559,0 3.464844,2 0,4 -3.464844,2 -3.4648434,-2 0,-4 3.4648434,-2 z m 8.660157,0 3.464843,2 0,4 -3.464843,2 -3.462891,-2 0,-4 3.462891,-2 z m 8.660156,0 3.464844,2 0,4 -3.464844,2 -3.462891,-2 0,-4 3.462891,-2 z m 8.660156,0 3.464844,2 0,4 -3.464844,2 -3.462891,-2 0,-4 3.462891,-2 z m 8.660156,0 3.464844,2 0,4 -3.464844,2 -3.46289,-2 0,-4 3.46289,-2 z m 8.660157,0 3.464843,2 0,4 -3.464843,2 -3.462891,-2 0,-4 3.462891,-2 z m 8.660156,0 3.464844,2 0,4 -3.464844,2 -3.462891,-2 0,-4 3.462891,-2 z m 8.660156,0 3.464844,2 0,4 -3.464844,2 -3.464844,-2 0,-4 3.464844,-2 z m 8.660156,0 3.464844,2 0,4 -3.464844,2 -3.464843,-2 0,-4 3.464843,-2 z m 8.660157,0 3.464843,2 0,4 -3.464843,2 -3.462891,-2 0,-4 3.462891,-2 z m 8.660156,0 3.464843,2 0,4 -3.464843,2 -3.462891,-2 0,-4 3.462891,-2 z m 8.660153,0 3.46485,2 0,4 -3.46485,2 -3.46289,-2 0,-4 3.46289,-2 z m 8.66016,0 3.46484,2 0,4 -3.46484,2 -3.46289,-2 0,-4 3.46289,-2 z m 8.66016,0 3.46484,2 0,4 -3.46484,2 -3.46289,-2 0,-4 3.46289,-2 z m 8.66015,0 3.46485,2 0,4 -3.46485,2 -3.46289,-2 0,-4 3.46289,-2 z M -2,34 l 3.4648438,2 0,4 L -2,42 l -3.4648438,-2 0,-4 L -2,34 Z m 8.6601562,0 3.4648438,2 0,4 -3.4648438,2 -3.4648437,-2 0,-4 3.4648437,-2 z m 8.6601558,0 3.464844,2 0,4 -3.464844,2 -3.464843,-2 0,-4 3.464843,-2 z m 8.660157,0 3.464843,2 0,4 -3.464843,2 -3.462891,-2 0,-4 3.462891,-2 z m 8.660156,0 3.464844,2 0,4 -3.464844,2 -3.462891,-2 0,-4 3.462891,-2 z m 8.660156,0 3.464844,2 0,4 -3.464844,2 -3.46289,-2 0,-4 3.46289,-2 z m 8.660157,0 3.464843,2 0,4 -3.464843,2 -3.462891,-2 0,-4 3.462891,-2 z m 8.660156,0 3.464844,2 0,4 -3.464844,2 -3.462891,-2 0,-4 3.462891,-2 z m 8.660156,0 3.464844,2 0,4 -3.464844,2 -3.464844,-2 0,-4 3.464844,-2 z m 8.660156,0 3.464844,2 0,4 -3.464844,2 -3.464844,-2 0,-4 3.464844,-2 z m 8.660156,0 3.464844,2 0,4 -3.464844,2 -3.464843,-2 0,-4 3.464843,-2 z m 8.660157,0 3.464843,2 0,4 -3.464843,2 -3.462891,-2 0,-4 3.462891,-2 z m 8.660161,0 3.46484,2 0,4 -3.46484,2 -3.462896,-2 0,-4 3.462896,-2 z m 8.66015,0 3.46485,2 0,4 -3.46485,2 -3.46289,-2 0,-4 3.46289,-2 z m 8.66016,0 3.46484,2 0,4 -3.46484,2 -3.46289,-2 0,-4 3.46289,-2 z m 8.66015,0 3.46485,2 0,4 -3.46485,2 -3.46289,-2 0,-4 3.46289,-2 z m -125.5722619,7.5 3.4648438,2 0,4 -3.4648438,2 -3.4648437,-2 0,-4 3.4648437,-2 z m 8.6601559,0 3.464844,2 0,4 -3.464844,2 -3.4648434,-2 0,-4 3.4648434,-2 z m 8.660157,0 3.464843,2 0,4 -3.464843,2 -3.462891,-2 0,-4 3.462891,-2 z m 8.660156,0 3.464844,2 0,4 -3.464844,2 -3.462891,-2 0,-4 3.462891,-2 z m 8.660156,0 3.464844,2 0,4 -3.464844,2 -3.462891,-2 0,-4 3.462891,-2 z m 8.660156,0 3.464844,2 0,4 -3.464844,2 -3.46289,-2 0,-4 3.46289,-2 z m 8.660157,0 3.464843,2 0,4 -3.464843,2 -3.462891,-2 0,-4 3.462891,-2 z m 8.660156,0 3.464844,2 0,4 -3.464844,2 -3.462891,-2 0,-4 3.462891,-2 z m 8.660156,0 3.464844,2 0,4 -3.464844,2 -3.464844,-2 0,-4 3.464844,-2 z m 8.660156,0 3.464844,2 0,4 -3.464844,2 -3.464843,-2 0,-4 3.464843,-2 z m 8.660157,0 3.464843,2 0,4 -3.464843,2 -3.462891,-2 0,-4 3.462891,-2 z m 8.660156,0 3.464843,2 0,4 -3.464843,2 -3.462891,-2 0,-4 3.462891,-2 z m 8.660153,0 3.46485,2 0,4 -3.46485,2 -3.46289,-2 0,-4 3.46289,-2 z m 8.66016,0 3.46484,2 0,4 -3.46484,2 -3.46289,-2 0,-4 3.46289,-2 z m 8.66016,0 3.46484,2 0,4 -3.46484,2 -3.46289,-2 0,-4 3.46289,-2 z m 8.66015,0 3.46485,2 0,4 -3.46485,2 -3.46289,-2 0,-4 3.46289,-2 z M -2,49 l 3.4648438,2 0,4 L -2,57 l -3.4648438,-2 0,-4 L -2,49 Z m 8.6601562,0 3.4648438,2 0,4 -3.4648438,2 -3.4648437,-2 0,-4 3.4648437,-2 z m 8.6601558,0 3.464844,2 0,4 -3.464844,2 -3.464843,-2 0,-4 3.464843,-2 z m 8.660157,0 3.464843,2 0,4 -3.464843,2 -3.462891,-2 0,-4 3.462891,-2 z m 8.660156,0 3.464844,2 0,4 -3.464844,2 -3.462891,-2 0,-4 3.462891,-2 z m 8.660156,0 3.464844,2 0,4 -3.464844,2 -3.46289,-2 0,-4 3.46289,-2 z m 8.660157,0 3.464843,2 0,4 -3.464843,2 -3.462891,-2 0,-4 3.462891,-2 z m 8.660156,0 3.464844,2 0,4 -3.464844,2 -3.462891,-2 0,-4 3.462891,-2 z m 8.660156,0 3.464844,2 0,4 -3.464844,2 -3.464844,-2 0,-4 3.464844,-2 z m 8.660156,0 3.464844,2 0,4 -3.464844,2 -3.464844,-2 0,-4 3.464844,-2 z m 8.660156,0 3.464844,2 0,4 -3.464844,2 -3.464843,-2 0,-4 3.464843,-2 z m 8.660157,0 3.464843,2 0,4 -3.464843,2 -3.462891,-2 0,-4 3.462891,-2 z m 8.660161,0 3.46484,2 0,4 -3.46484,2 -3.462896,-2 0,-4 3.462896,-2 z m 8.66015,0 3.46485,2 0,4 -3.46485,2 -3.46289,-2 0,-4 3.46289,-2 z m 8.66016,0 3.46484,2 0,4 -3.46484,2 -3.46289,-2 0,-4 3.46289,-2 z m 8.66015,0 3.46485,2 0,4 -3.46485,2 -3.46289,-2 0,-4 3.46289,-2 z m -125.5722619,7.5 3.4648438,2 0,4 -3.4648438,2 -3.4648437,-2 0,-4 3.4648437,-2 z m 8.6601559,0 3.464844,2 0,4 -3.464844,2 -3.4648434,-2 0,-4 3.4648434,-2 z m 8.660157,0 3.464843,2 0,4 -3.464843,2 -3.462891,-2 0,-4 3.462891,-2 z m 8.660156,0 3.464844,2 0,4 -3.464844,2 -3.462891,-2 0,-4 3.462891,-2 z m 8.660156,0 3.464844,2 0,4 -3.464844,2 -3.462891,-2 0,-4 3.462891,-2 z m 8.660156,0 3.464844,2 0,4 -3.464844,2 -3.46289,-2 0,-4 3.46289,-2 z m 8.660157,0 3.464843,2 0,4 -3.464843,2 -3.462891,-2 0,-4 3.462891,-2 z m 8.660156,0 3.464844,2 0,4 -3.464844,2 -3.462891,-2 0,-4 3.462891,-2 z m 8.660156,0 3.464844,2 0,4 -3.464844,2 -3.464844,-2 0,-4 3.464844,-2 z m 8.660156,0 3.464844,2 0,4 -3.464844,2 -3.464843,-2 0,-4 3.464843,-2 z m 8.660157,0 3.464843,2 0,4 -3.464843,2 -3.462891,-2 0,-4 3.462891,-2 z m 8.660156,0 3.464843,2 0,4 -3.464843,2 -3.462891,-2 0,-4 3.462891,-2 z m 8.660153,0 3.46485,2 0,4 -3.46485,2 -3.46289,-2 0,-4 3.46289,-2 z m 8.66016,0 3.46484,2 0,4 -3.46484,2 -3.46289,-2 0,-4 3.46289,-2 z m 8.66016,0 3.46484,2 0,4 -3.46484,2 -3.46289,-2 0,-4 3.46289,-2 z m 8.66015,0 3.46485,2 0,4 -3.46485,2 -3.46289,-2 0,-4 3.46289,-2 z M -2,64 l 3.4648438,2 0,4 L -2,72 l -3.4648438,-2 0,-4 L -2,64 Z m 8.6601562,0 3.4648438,2 0,4 -3.4648438,2 -3.4648437,-2 0,-4 3.4648437,-2 z m 8.6601558,0 3.464844,2 0,4 -3.464844,2 -3.464843,-2 0,-4 3.464843,-2 z m 8.660157,0 3.464843,2 0,4 -3.464843,2 -3.462891,-2 0,-4 3.462891,-2 z m 8.660156,0 3.464844,2 0,4 -3.464844,2 -3.462891,-2 0,-4 3.462891,-2 z m 8.660156,0 3.464844,2 0,4 -3.464844,2 -3.46289,-2 0,-4 3.46289,-2 z m 8.660157,0 3.464843,2 0,4 -3.464843,2 -3.462891,-2 0,-4 3.462891,-2 z m 8.660156,0 3.464844,2 0,4 -3.464844,2 -3.462891,-2 0,-4 3.462891,-2 z m 8.662109,0 3.464844,2 0,4 -3.464844,2 -3.464844,-2 0,-4 3.464844,-2 z m 8.660156,0 3.464844,2 0,4 -3.464844,2 -3.464843,-2 0,-4 3.464843,-2 z m 8.660157,0 3.464843,2 0,4 -3.464843,2 -3.464844,-2 0,-4 3.464844,-2 z m 8.660156,0 3.464844,2 0,4 -3.464844,2 -3.462891,-2 0,-4 3.462891,-2 z m 8.660158,0 3.46484,2 0,4 -3.46484,2 -3.462892,-2 0,-4 3.462892,-2 z m 8.66015,0 3.46485,2 0,4 -3.46485,2 -3.46289,-2 0,-4 3.46289,-2 z m 8.66016,0 3.46484,2 0,4 -3.46484,2 -3.46289,-2 0,-4 3.46289,-2 z m 8.66016,0 3.46484,2 0,4 -3.46484,2 -3.46289,-2 0,-4 3.46289,-2 z m -125.5742219,7.5 3.4648438,2 0,4 -3.4648438,2 -3.4648437,-2 0,-4 3.4648437,-2 z m 8.6601559,0 3.464844,2 0,4 -3.464844,2 -3.4648434,-2 0,-4 3.4648434,-2 z m 8.660157,0 3.464843,2 0,4 -3.464843,2 -3.462891,-2 0,-4 3.462891,-2 z m 8.660156,0 3.464844,2 0,4 -3.464844,2 -3.462891,-2 0,-4 3.462891,-2 z m 8.660156,0 3.464844,2 0,4 -3.464844,2 -3.462891,-2 0,-4 3.462891,-2 z m 8.660156,0 3.464844,2 0,4 -3.464844,2 -3.46289,-2 0,-4 3.46289,-2 z m 8.660157,0 3.464843,2 0,4 -3.464843,2 -3.462891,-2 0,-4 3.462891,-2 z m 8.660156,0 3.464844,2 0,4 -3.464844,2 -3.462891,-2 0,-4 3.462891,-2 z m 8.662109,0 3.464844,2 0,4 -3.464844,2 -3.464843,-2 0,-4 3.464843,-2 z m 8.660157,0 3.464843,2 0,4 -3.464843,2 -3.464844,-2 0,-4 3.464844,-2 z m 8.660156,0 3.464844,2 0,4 -3.464844,2 -3.462891,-2 0,-4 3.462891,-2 z m 8.660156,0 3.46484,2 0,4 -3.46484,2 -3.462891,-2 0,-4 3.462891,-2 z m 8.66016,0 3.46484,2 0,4 -3.46484,2 -3.46289,-2 0,-4 3.46289,-2 z m 8.66015,0 3.46485,2 0,4 -3.46485,2 -3.46289,-2 0,-4 3.46289,-2 z m 8.66016,0 3.46484,2 0,4 -3.46484,2 -3.46289,-2 0,-4 3.46289,-2 z m 8.66016,0 3.46484,2 0,4 -3.46484,2 -3.4629,-2 0,-4 3.4629,-2 z M -2,79 l 3.4648438,2 0,4 L -2,87 l -3.4648438,-2 0,-4 L -2,79 Z m 8.6601562,0 3.4648438,2 0,4 -3.4648438,2 -3.4648437,-2 0,-4 3.4648437,-2 z m 8.6601558,0 3.464844,2 0,4 -3.464844,2 -3.464843,-2 0,-4 3.464843,-2 z m 8.660157,0 3.464843,2 0,4 -3.464843,2 -3.462891,-2 0,-4 3.462891,-2 z m 8.660156,0 3.464844,2 0,4 -3.464844,2 -3.462891,-2 0,-4 3.462891,-2 z m 8.660156,0 3.464844,2 0,4 -3.464844,2 -3.46289,-2 0,-4 3.46289,-2 z m 8.660157,0 3.464843,2 0,4 -3.464843,2 -3.462891,-2 0,-4 3.462891,-2 z m 8.660156,0 3.464844,2 0,4 -3.464844,2 -3.462891,-2 0,-4 3.462891,-2 z m 8.662109,0 3.464844,2 0,4 -3.464844,2 -3.464844,-2 0,-4 3.464844,-2 z m 8.660156,0 3.464844,2 0,4 -3.464844,2 -3.464843,-2 0,-4 3.464843,-2 z m 8.660157,0 3.464843,2 0,4 -3.464843,2 -3.464844,-2 0,-4 3.464844,-2 z m 8.660156,0 3.464844,2 0,4 -3.464844,2 -3.462891,-2 0,-4 3.462891,-2 z m 8.660158,0 3.46484,2 0,4 -3.46484,2 -3.462892,-2 0,-4 3.462892,-2 z m 8.66015,0 3.46485,2 0,4 -3.46485,2 -3.46289,-2 0,-4 3.46289,-2 z m 8.66016,0 3.46484,2 0,4 -3.46484,2 -3.46289,-2 0,-4 3.46289,-2 z m 8.66016,0 3.46484,2 0,4 -3.46484,2 -3.46289,-2 0,-4 3.46289,-2 z m -125.5742219,7.5 3.4648438,2 0,4 -3.4648438,2 -3.4648437,-2 0,-4 3.4648437,-2 z m 8.6601559,0 3.464844,2 0,4 -3.464844,2 -3.4648434,-2 0,-4 3.4648434,-2 z m 8.660157,0 3.464843,2 0,4 -3.464843,2 -3.462891,-2 0,-4 3.462891,-2 z m 8.660156,0 3.464844,2 0,4 -3.464844,2 -3.462891,-2 0,-4 3.462891,-2 z m 8.660156,0 3.464844,2 0,4 -3.464844,2 -3.462891,-2 0,-4 3.462891,-2 z m 8.660156,0 3.464844,2 0,4 -3.464844,2 -3.46289,-2 0,-4 3.46289,-2 z m 8.660157,0 3.464843,2 0,4 -3.464843,2 -3.462891,-2 0,-4 3.462891,-2 z m 8.660156,0 3.464844,2 0,4 -3.464844,2 -3.462891,-2 0,-4 3.462891,-2 z m 8.662109,0 3.464844,2 0,4 -3.464844,2 -3.464843,-2 0,-4 3.464843,-2 z m 8.660157,0 3.464843,2 0,4 -3.464843,2 -3.464844,-2 0,-4 3.464844,-2 z m 8.660156,0 3.464844,2 0,4 -3.464844,2 -3.462891,-2 0,-4 3.462891,-2 z m 8.660156,0 3.46484,2 0,4 -3.46484,2 -3.462891,-2 0,-4 3.462891,-2 z m 8.66016,0 3.46484,2 0,4 -3.46484,2 -3.46289,-2 0,-4 3.46289,-2 z m 8.66015,0 3.46485,2 0,4 -3.46485,2 -3.46289,-2 0,-4 3.46289,-2 z m 8.66016,0 3.46484,2 0,4 -3.46484,2 -3.46289,-2 0,-4 3.46289,-2 z m 8.66016,0 3.46484,2 0,4 -3.46484,2 -3.4629,-2 0,-4 3.4629,-2 z M -2,94 l 3.4648438,2 0,4 L -2,102 l -3.4648438,-2 0,-4 L -2,94 Z m 8.6601562,0 3.4648438,2 0,4 -3.4648438,2 -3.4648437,-2 0,-4 3.4648437,-2 z m 8.6601558,0 3.464844,2 0,4 -3.464844,2 -3.464843,-2 0,-4 3.464843,-2 z m 8.660157,0 3.464843,2 0,4 -3.464843,2 -3.462891,-2 0,-4 3.462891,-2 z m 8.660156,0 3.464844,2 0,4 -3.464844,2 -3.462891,-2 0,-4 3.462891,-2 z m 8.660156,0 3.464844,2 0,4 -3.464844,2 -3.46289,-2 0,-4 3.46289,-2 z m 8.660157,0 3.464843,2 0,4 -3.464843,2 -3.462891,-2 0,-4 3.462891,-2 z m 8.660156,0 3.464844,2 0,4 -3.464844,2 -3.462891,-2 0,-4 3.462891,-2 z m 8.662109,0 3.464844,2 0,4 -3.464844,2 -3.464844,-2 0,-4 3.464844,-2 z m 8.660156,0 3.464844,2 0,4 -3.464844,2 -3.464843,-2 0,-4 3.464843,-2 z m 8.660157,0 3.464843,2 0,4 -3.464843,2 -3.464844,-2 0,-4 3.464844,-2 z m 8.660156,0 3.464844,2 0,4 -3.464844,2 -3.462891,-2 0,-4 3.462891,-2 z m 8.660158,0 3.46484,2 0,4 -3.46484,2 -3.462892,-2 0,-4 3.462892,-2 z m 8.66015,0 3.46485,2 0,4 -3.46485,2 -3.46289,-2 0,-4 3.46289,-2 z m 8.66016,0 3.46484,2 0,4 -3.46484,2 -3.46289,-2 0,-4 3.46289,-2 z m 8.66016,0 3.46484,2 0,4 -3.46484,2 -3.46289,-2 0,-4 3.46289,-2 z m -125.5742219,7.5 3.4648438,2 0,4 -3.4648438,2 -3.4648437,-2 0,-4 3.4648437,-2 z m 8.6601559,0 3.464844,2 0,4 -3.464844,2 -3.4648434,-2 0,-4 3.4648434,-2 z m 8.660157,0 3.464843,2 0,4 -3.464843,2 -3.462891,-2 0,-4 3.462891,-2 z m 8.660156,0 3.464844,2 0,4 -3.464844,2 -3.462891,-2 0,-4 3.462891,-2 z m 8.660156,0 3.464844,2 0,4 -3.464844,2 -3.462891,-2 0,-4 3.462891,-2 z m 8.660156,0 3.464844,2 0,4 -3.464844,2 -3.46289,-2 0,-4 3.46289,-2 z m 8.660157,0 3.464843,2 0,4 -3.464843,2 -3.462891,-2 0,-4 3.462891,-2 z m 8.660156,0 3.464844,2 0,4 -3.464844,2 -3.462891,-2 0,-4 3.462891,-2 z m 8.662109,0 3.464844,2 0,4 -3.464844,2 -3.464843,-2 0,-4 3.464843,-2 z m 8.660157,0 3.464843,2 0,4 -3.464843,2 -3.464844,-2 0,-4 3.464844,-2 z m 8.660156,0 3.464844,2 0,4 -3.464844,2 -3.462891,-2 0,-4 3.462891,-2 z m 8.660156,0 3.46484,2 0,4 -3.46484,2 -3.462891,-2 0,-4 3.462891,-2 z m 8.66016,0 3.46484,2 0,4 -3.46484,2 -3.46289,-2 0,-4 3.46289,-2 z m 8.66015,0 3.46485,2 0,4 -3.46485,2 -3.46289,-2 0,-4 3.46289,-2 z m 8.66016,0 3.46484,2 0,4 -3.46484,2 -3.46289,-2 0,-4 3.46289,-2 z m 8.66016,0 3.46484,2 0,4 -3.46484,2 -3.4629,-2 0,-4 3.4629,-2 z M -2,109 l 3.4648438,2 0,4 L -2,117 l -3.4648438,-2 0,-4 L -2,109 Z m 8.6601562,0 3.4648438,2 0,4 -3.4648438,2 -3.4648437,-2 0,-4 3.4648437,-2 z m 8.6601558,0 3.464844,2 0,4 -3.464844,2 -3.464843,-2 0,-4 3.464843,-2 z m 8.660157,0 3.464843,2 0,4 -3.464843,2 -3.462891,-2 0,-4 3.462891,-2 z m 8.660156,0 3.464844,2 0,4 -3.464844,2 -3.462891,-2 0,-4 3.462891,-2 z m 8.660156,0 3.464844,2 0,4 -3.464844,2 -3.46289,-2 0,-4 3.46289,-2 z m 8.660157,0 3.464843,2 0,4 -3.464843,2 -3.462891,-2 0,-4 3.462891,-2 z m 8.660156,0 3.464844,2 0,4 -3.464844,2 -3.462891,-2 0,-4 3.462891,-2 z m 8.662109,0 3.464844,2 0,4 -3.464844,2 -3.464844,-2 0,-4 3.464844,-2 z m 8.660156,0 3.464844,2 0,4 -3.464844,2 -3.464843,-2 0,-4 3.464843,-2 z m 8.660157,0 3.464843,2 0,4 -3.464843,2 -3.464844,-2 0,-4 3.464844,-2 z m 8.660156,0 3.464844,2 0,4 -3.464844,2 -3.462891,-2 0,-4 3.462891,-2 z m 8.660158,0 3.46484,2 0,4 -3.46484,2 -3.462892,-2 0,-4 3.462892,-2 z m 8.66015,0 3.46485,2 0,4 -3.46485,2 -3.46289,-2 0,-4 3.46289,-2 z m 8.66016,0 3.46484,2 0,4 -3.46484,2 -3.46289,-2 0,-4 3.46289,-2 z m 8.66016,0 3.46484,2 0,4 -3.46484,2 -3.46289,-2 0,-4 3.46289,-2 z m -125.5742219,7.5 3.4648438,2 0,4 -3.4648438,2 -3.4648437,-2 0,-4 3.4648437,-2 z m 8.6601559,0 3.464844,2 0,4 -3.464844,2 -3.4648434,-2 0,-4 3.4648434,-2 z m 8.660157,0 3.464843,2 0,4 -3.464843,2 -3.462891,-2 0,-4 3.462891,-2 z m 8.660156,0 3.464844,2 0,4 -3.464844,2 -3.462891,-2 0,-4 3.462891,-2 z m 8.660156,0 3.464844,2 0,4 -3.464844,2 -3.462891,-2 0,-4 3.462891,-2 z m 8.660156,0 3.464844,2 0,4 -3.464844,2 -3.46289,-2 0,-4 3.46289,-2 z m 8.660157,0 3.464843,2 0,4 -3.464843,2 -3.462891,-2 0,-4 3.462891,-2 z m 8.660156,0 3.464844,2 0,4 -3.464844,2 -3.462891,-2 0,-4 3.462891,-2 z m 8.662109,0 3.464844,2 0,4 -3.464844,2 -3.464843,-2 0,-4 3.464843,-2 z m 8.660157,0 3.464843,2 0,4 -3.464843,2 -3.464844,-2 0,-4 3.464844,-2 z m 8.660156,0 3.464844,2 0,4 -3.464844,2 -3.462891,-2 0,-4 3.462891,-2 z m 8.660156,0 3.46484,2 0,4 -3.46484,2 -3.462891,-2 0,-4 3.462891,-2 z m 8.66016,0 3.46484,2 0,4 -3.46484,2 -3.46289,-2 0,-4 3.46289,-2 z m 8.66015,0 3.46485,2 0,4 -3.46485,2 -3.46289,-2 0,-4 3.46289,-2 z m 8.66016,0 3.46484,2 0,4 -3.46484,2 -3.46289,-2 0,-4 3.46289,-2 z m 8.66016,0 3.46484,2 0,4 -3.46484,2 -3.4629,-2 0,-4 3.4629,-2 z M -2,124 l 3.4648438,2 0,4 L -2,132 l -3.4648438,-2 0,-4 L -2,124 Z m 8.6601562,0 3.4648438,2 0,4 -3.4648438,2 -3.4648437,-2 0,-4 3.4648437,-2 z m 8.6601558,0 3.464844,2 0,4 -3.464844,2 -3.464843,-2 0,-4 3.464843,-2 z m 8.660157,0 3.464843,2 0,4 -3.464843,2 -3.462891,-2 0,-4 3.462891,-2 z m 8.660156,0 3.464844,2 0,4 -3.464844,2 -3.462891,-2 0,-4 3.462891,-2 z m 8.660156,0 3.464844,2 0,4 -3.464844,2 -3.46289,-2 0,-4 3.46289,-2 z m 8.660157,0 3.464843,2 0,4 -3.464843,2 -3.462891,-2 0,-4 3.462891,-2 z m 8.660156,0 3.464844,2 0,4 -3.464844,2 -3.462891,-2 0,-4 3.462891,-2 z m 8.662109,0 3.464844,2 0,4 -3.464844,2 -3.464844,-2 0,-4 3.464844,-2 z m 8.660156,0 3.464844,2 0,4 -3.464844,2 -3.464843,-2 0,-4 3.464843,-2 z m 8.660157,0 3.464843,2 0,4 -3.464843,2 -3.464844,-2 0,-4 3.464844,-2 z m 8.660156,0 3.464844,2 0,4 -3.464844,2 -3.462891,-2 0,-4 3.462891,-2 z m 8.660158,0 3.46484,2 0,4 -3.46484,2 -3.462892,-2 0,-4 3.462892,-2 z m 8.66015,0 3.46485,2 0,4 -3.46485,2 -3.46289,-2 0,-4 3.46289,-2 z m 8.66016,0 3.46484,2 0,4 -3.46484,2 -3.46289,-2 0,-4 3.46289,-2 z m 8.66016,0 3.46484,2 0,4 -3.46484,2 -3.46289,-2 0,-4 3.46289,-2 z m -125.5742219,7.5 3.4648438,2 0,4 -3.4648438,2 -3.4648437,-2 0,-4 3.4648437,-2 z m 8.6601559,0 3.464844,2 0,4 -3.464844,2 -3.4648434,-2 0,-4 3.4648434,-2 z m 8.660157,0 3.464843,2 0,4 -3.464843,2 -3.462891,-2 0,-4 3.462891,-2 z m 8.660156,0 3.464844,2 0,4 -3.464844,2 -3.462891,-2 0,-4 3.462891,-2 z m 8.660156,0 3.464844,2 0,4 -3.464844,2 -3.462891,-2 0,-4 3.462891,-2 z m 8.660156,0 3.464844,2 0,4 -3.464844,2 -3.46289,-2 0,-4 3.46289,-2 z m 8.660157,0 3.464843,2 0,4 -3.464843,2 -3.462891,-2 0,-4 3.462891,-2 z m 8.660156,0 3.464844,2 0,4 -3.464844,2 -3.462891,-2 0,-4 3.462891,-2 z m 8.662109,0 3.464844,2 0,4 -3.464844,2 -3.464843,-2 0,-4 3.464843,-2 z m 8.660157,0 3.464843,2 0,4 -3.464843,2 -3.464844,-2 0,-4 3.464844,-2 z m 8.660156,0 3.464844,2 0,4 -3.464844,2 -3.462891,-2 0,-4 3.462891,-2 z m 8.660156,0 3.46484,2 0,4 -3.46484,2 -3.462891,-2 0,-4 3.462891,-2 z m 8.66016,0 3.46484,2 0,4 -3.46484,2 -3.46289,-2 0,-4 3.46289,-2 z m 8.66015,0 3.46485,2 0,4 -3.46485,2 -3.46289,-2 0,-4 3.46289,-2 z m 8.66016,0 3.46484,2 0,4 -3.46484,2 -3.46289,-2 0,-4 3.46289,-2 z m 8.66016,0 3.46484,2 0,4 -3.46484,2 -3.4629,-2 0,-4 3.4629,-2 z"
         id="path8228"
         inkscape:connector-curvature="0" />
    </mask>
    <pattern
       patternUnits="userSpaceOnUse"
       width="150.53157"
       height="159.5466"
       patternTransform="translate(-10.148595,-15.5233)"
       id="pattern9049">
      <path
         transform="matrix(0.99923992,0.03898195,-0.03898195,0.99923992,12.70268,13.03374)"
         inkscape:connector-curvature="0"
         id="path8203"
         d="m -2,-11 -3.4648438,2 0,4 L -2,-3 l 3.4648438,-2 0,-4 L -2,-11 Z m 8.6601562,0 -3.4648437,2 0,4 3.4648437,2 3.4648438,-2 0,-4 -3.4648438,-2 z m 8.6601558,0 -3.464843,2 0,4 3.464843,2 3.464844,-2 0,-4 -3.464844,-2 z m 8.660157,0 -3.462891,2 0,4 3.462891,2 3.464843,-2 0,-4 -3.464843,-2 z m 8.660156,0 -3.462891,2 0,4 3.462891,2 3.464844,-2 0,-4 -3.464844,-2 z m 8.660156,0 -3.46289,2 0,4 3.46289,2 3.464844,-2 0,-4 -3.464844,-2 z m 8.660157,0 -3.462891,2 0,4 3.462891,2 3.464843,-2 0,-4 -3.464843,-2 z m 8.660156,0 -3.462891,2 0,4 3.462891,2 3.464844,-2 0,-4 -3.464844,-2 z m 8.660156,0 -3.464844,2 0,4 3.464844,2 3.464844,-2 0,-4 -3.464844,-2 z m 8.660156,0 -3.464844,2 0,4 3.464844,2 3.464844,-2 0,-4 -3.464844,-2 z m 8.660156,0 -3.464843,2 0,4 3.464843,2 3.464844,-2 0,-4 -3.464844,-2 z m 8.660157,0 -3.462891,2 0,4 3.462891,2 3.464843,-2 0,-4 -3.464843,-2 z m 8.660161,0 -3.462896,2 0,4 3.462896,2 3.46484,-2 0,-4 -3.46484,-2 z m 8.66015,0 -3.46289,2 0,4 3.46289,2 3.46485,-2 0,-4 -3.46485,-2 z m 8.66016,0 -3.46289,2 0,4 3.46289,2 3.46484,-2 0,-4 -3.46484,-2 z m 8.66015,0 -3.46289,2 0,4 3.46289,2 3.46485,-2 0,-4 -3.46485,-2 z m -125.5722619,7.5 -3.4648437,2 0,4 3.4648437,2 3.4648438,-2 0,-4 -3.4648438,-2 z m 8.6601559,0 -3.4648434,2 0,4 3.4648434,2 3.464844,-2 0,-4 -3.464844,-2 z m 8.660157,0 -3.462891,2 0,4 3.462891,2 3.464843,-2 0,-4 -3.464843,-2 z m 8.660156,0 -3.462891,2 0,4 3.462891,2 3.464844,-2 0,-4 -3.464844,-2 z m 8.660156,0 -3.462891,2 0,4 3.462891,2 3.464844,-2 0,-4 -3.464844,-2 z m 8.660156,0 -3.46289,2 0,4 3.46289,2 3.464844,-2 0,-4 -3.464844,-2 z m 8.660157,0 -3.462891,2 0,4 3.462891,2 3.464843,-2 0,-4 -3.464843,-2 z m 8.660156,0 -3.462891,2 0,4 3.462891,2 3.464844,-2 0,-4 -3.464844,-2 z m 8.660156,0 -3.464844,2 0,4 3.464844,2 3.464844,-2 0,-4 -3.464844,-2 z m 8.660156,0 -3.464843,2 0,4 3.464843,2 3.464844,-2 0,-4 -3.464844,-2 z m 8.660157,0 -3.462891,2 0,4 3.462891,2 3.464843,-2 0,-4 -3.464843,-2 z m 8.660156,0 -3.462891,2 0,4 3.462891,2 3.464843,-2 0,-4 -3.464843,-2 z m 8.660153,0 -3.46289,2 0,4 3.46289,2 3.46485,-2 0,-4 -3.46485,-2 z m 8.66016,0 -3.46289,2 0,4 3.46289,2 3.46484,-2 0,-4 -3.46484,-2 z m 8.66016,0 -3.46289,2 0,4 3.46289,2 3.46484,-2 0,-4 -3.46484,-2 z m 8.66015,0 -3.46289,2 0,4 3.46289,2 3.46485,-2 0,-4 -3.46485,-2 z M -2,4 l -3.4648438,2 0,4 L -2,12 l 3.4648438,-2 0,-4 L -2,4 Z m 8.6601562,0 -3.4648437,2 0,4 3.4648437,2 3.4648438,-2 0,-4 -3.4648438,-2 z m 8.6601558,0 -3.464843,2 0,4 3.464843,2 3.464844,-2 0,-4 -3.464844,-2 z m 8.660157,0 -3.462891,2 0,4 3.462891,2 3.464843,-2 0,-4 -3.464843,-2 z m 8.660156,0 -3.462891,2 0,4 3.462891,2 3.464844,-2 0,-4 -3.464844,-2 z m 8.660156,0 -3.46289,2 0,4 3.46289,2 3.464844,-2 0,-4 -3.464844,-2 z m 8.660157,0 -3.462891,2 0,4 3.462891,2 3.464843,-2 0,-4 -3.464843,-2 z m 8.660156,0 -3.462891,2 0,4 3.462891,2 3.464844,-2 0,-4 -3.464844,-2 z m 8.660156,0 -3.464844,2 0,4 3.464844,2 3.464844,-2 0,-4 -3.464844,-2 z m 8.660156,0 -3.464844,2 0,4 3.464844,2 3.464844,-2 0,-4 -3.464844,-2 z m 8.660156,0 -3.464843,2 0,4 3.464843,2 3.464844,-2 0,-4 -3.464844,-2 z m 8.660157,0 -3.462891,2 0,4 3.462891,2 3.464843,-2 0,-4 -3.464843,-2 z m 8.660161,0 -3.462896,2 0,4 3.462896,2 3.46484,-2 0,-4 -3.46484,-2 z m 8.66015,0 -3.46289,2 0,4 3.46289,2 3.46485,-2 0,-4 -3.46485,-2 z m 8.66016,0 -3.46289,2 0,4 3.46289,2 3.46484,-2 0,-4 -3.46484,-2 z m 8.66015,0 -3.46289,2 0,4 3.46289,2 3.46485,-2 0,-4 -3.46485,-2 z m -125.5722619,7.5 -3.4648437,2 0,4 3.4648437,2 3.4648438,-2 0,-4 -3.4648438,-2 z m 8.6601559,0 -3.4648434,2 0,4 3.4648434,2 3.464844,-2 0,-4 -3.464844,-2 z m 8.660157,0 -3.462891,2 0,4 3.462891,2 3.464843,-2 0,-4 -3.464843,-2 z m 8.660156,0 -3.462891,2 0,4 3.462891,2 3.464844,-2 0,-4 -3.464844,-2 z m 8.660156,0 -3.462891,2 0,4 3.462891,2 3.464844,-2 0,-4 -3.464844,-2 z m 8.660156,0 -3.46289,2 0,4 3.46289,2 3.464844,-2 0,-4 -3.464844,-2 z m 8.660157,0 -3.462891,2 0,4 3.462891,2 3.464843,-2 0,-4 -3.464843,-2 z m 8.660156,0 -3.462891,2 0,4 3.462891,2 3.464844,-2 0,-4 -3.464844,-2 z m 8.660156,0 -3.464844,2 0,4 3.464844,2 3.464844,-2 0,-4 -3.464844,-2 z m 8.660156,0 -3.464843,2 0,4 3.464843,2 3.464844,-2 0,-4 -3.464844,-2 z m 8.660157,0 -3.462891,2 0,4 3.462891,2 3.464843,-2 0,-4 -3.464843,-2 z m 8.660156,0 -3.462891,2 0,4 3.462891,2 3.464843,-2 0,-4 -3.464843,-2 z m 8.660153,0 -3.46289,2 0,4 3.46289,2 3.46485,-2 0,-4 -3.46485,-2 z m 8.66016,0 -3.46289,2 0,4 3.46289,2 3.46484,-2 0,-4 -3.46484,-2 z m 8.66016,0 -3.46289,2 0,4 3.46289,2 3.46484,-2 0,-4 -3.46484,-2 z m 8.66015,0 -3.46289,2 0,4 3.46289,2 3.46485,-2 0,-4 -3.46485,-2 z M -2,19 l -3.4648438,2 0,4 L -2,27 l 3.4648438,-2 0,-4 L -2,19 Z m 8.6601562,0 -3.4648437,2 0,4 3.4648437,2 3.4648438,-2 0,-4 -3.4648438,-2 z m 8.6601558,0 -3.464843,2 0,4 3.464843,2 3.464844,-2 0,-4 -3.464844,-2 z m 8.660157,0 -3.462891,2 0,4 3.462891,2 3.464843,-2 0,-4 -3.464843,-2 z m 8.660156,0 -3.462891,2 0,4 3.462891,2 3.464844,-2 0,-4 -3.464844,-2 z m 8.660156,0 -3.46289,2 0,4 3.46289,2 3.464844,-2 0,-4 -3.464844,-2 z m 8.660157,0 -3.462891,2 0,4 3.462891,2 3.464843,-2 0,-4 -3.464843,-2 z m 8.660156,0 -3.462891,2 0,4 3.462891,2 3.464844,-2 0,-4 -3.464844,-2 z m 8.660156,0 -3.464844,2 0,4 3.464844,2 3.464844,-2 0,-4 -3.464844,-2 z m 8.660156,0 -3.464844,2 0,4 3.464844,2 3.464844,-2 0,-4 -3.464844,-2 z m 8.660156,0 -3.464843,2 0,4 3.464843,2 3.464844,-2 0,-4 -3.464844,-2 z m 8.660157,0 -3.462891,2 0,4 3.462891,2 3.464843,-2 0,-4 -3.464843,-2 z m 8.660161,0 -3.462896,2 0,4 3.462896,2 3.46484,-2 0,-4 -3.46484,-2 z m 8.66015,0 -3.46289,2 0,4 3.46289,2 3.46485,-2 0,-4 -3.46485,-2 z m 8.66016,0 -3.46289,2 0,4 3.46289,2 3.46484,-2 0,-4 -3.46484,-2 z m 8.66015,0 -3.46289,2 0,4 3.46289,2 3.46485,-2 0,-4 -3.46485,-2 z m -125.5722619,7.5 -3.4648437,2 0,4 3.4648437,2 3.4648438,-2 0,-4 -3.4648438,-2 z m 8.6601559,0 -3.4648434,2 0,4 3.4648434,2 3.464844,-2 0,-4 -3.464844,-2 z m 8.660157,0 -3.462891,2 0,4 3.462891,2 3.464843,-2 0,-4 -3.464843,-2 z m 8.660156,0 -3.462891,2 0,4 3.462891,2 3.464844,-2 0,-4 -3.464844,-2 z m 8.660156,0 -3.462891,2 0,4 3.462891,2 3.464844,-2 0,-4 -3.464844,-2 z m 8.660156,0 -3.46289,2 0,4 3.46289,2 3.464844,-2 0,-4 -3.464844,-2 z m 8.660157,0 -3.462891,2 0,4 3.462891,2 3.464843,-2 0,-4 -3.464843,-2 z m 8.660156,0 -3.462891,2 0,4 3.462891,2 3.464844,-2 0,-4 -3.464844,-2 z m 8.660156,0 -3.464844,2 0,4 3.464844,2 3.464844,-2 0,-4 -3.464844,-2 z m 8.660156,0 -3.464843,2 0,4 3.464843,2 3.464844,-2 0,-4 -3.464844,-2 z m 8.660157,0 -3.462891,2 0,4 3.462891,2 3.464843,-2 0,-4 -3.464843,-2 z m 8.660156,0 -3.462891,2 0,4 3.462891,2 3.464843,-2 0,-4 -3.464843,-2 z m 8.660153,0 -3.46289,2 0,4 3.46289,2 3.46485,-2 0,-4 -3.46485,-2 z m 8.66016,0 -3.46289,2 0,4 3.46289,2 3.46484,-2 0,-4 -3.46484,-2 z m 8.66016,0 -3.46289,2 0,4 3.46289,2 3.46484,-2 0,-4 -3.46484,-2 z m 8.66015,0 -3.46289,2 0,4 3.46289,2 3.46485,-2 0,-4 -3.46485,-2 z M -2,34 l -3.4648438,2 0,4 L -2,42 l 3.4648438,-2 0,-4 L -2,34 Z m 8.6601562,0 -3.4648437,2 0,4 3.4648437,2 3.4648438,-2 0,-4 -3.4648438,-2 z m 8.6601558,0 -3.464843,2 0,4 3.464843,2 3.464844,-2 0,-4 -3.464844,-2 z m 8.660157,0 -3.462891,2 0,4 3.462891,2 3.464843,-2 0,-4 -3.464843,-2 z m 8.660156,0 -3.462891,2 0,4 3.462891,2 3.464844,-2 0,-4 -3.464844,-2 z m 8.660156,0 -3.46289,2 0,4 3.46289,2 3.464844,-2 0,-4 -3.464844,-2 z m 8.660157,0 -3.462891,2 0,4 3.462891,2 3.464843,-2 0,-4 -3.464843,-2 z m 8.660156,0 -3.462891,2 0,4 3.462891,2 3.464844,-2 0,-4 -3.464844,-2 z m 8.660156,0 -3.464844,2 0,4 3.464844,2 3.464844,-2 0,-4 -3.464844,-2 z m 8.660156,0 -3.464844,2 0,4 3.464844,2 3.464844,-2 0,-4 -3.464844,-2 z m 8.660156,0 -3.464843,2 0,4 3.464843,2 3.464844,-2 0,-4 -3.464844,-2 z m 8.660157,0 -3.462891,2 0,4 3.462891,2 3.464843,-2 0,-4 -3.464843,-2 z m 8.660161,0 -3.462896,2 0,4 3.462896,2 3.46484,-2 0,-4 -3.46484,-2 z m 8.66015,0 -3.46289,2 0,4 3.46289,2 3.46485,-2 0,-4 -3.46485,-2 z m 8.66016,0 -3.46289,2 0,4 3.46289,2 3.46484,-2 0,-4 -3.46484,-2 z m 8.66015,0 -3.46289,2 0,4 3.46289,2 3.46485,-2 0,-4 -3.46485,-2 z m -125.5722619,7.5 -3.4648437,2 0,4 3.4648437,2 3.4648438,-2 0,-4 -3.4648438,-2 z m 8.6601559,0 -3.4648434,2 0,4 3.4648434,2 3.464844,-2 0,-4 -3.464844,-2 z m 8.660157,0 -3.462891,2 0,4 3.462891,2 3.464843,-2 0,-4 -3.464843,-2 z m 8.660156,0 -3.462891,2 0,4 3.462891,2 3.464844,-2 0,-4 -3.464844,-2 z m 8.660156,0 -3.462891,2 0,4 3.462891,2 3.464844,-2 0,-4 -3.464844,-2 z m 8.660156,0 -3.46289,2 0,4 3.46289,2 3.464844,-2 0,-4 -3.464844,-2 z m 8.660157,0 -3.462891,2 0,4 3.462891,2 3.464843,-2 0,-4 -3.464843,-2 z m 8.660156,0 -3.462891,2 0,4 3.462891,2 3.464844,-2 0,-4 -3.464844,-2 z m 8.660156,0 -3.464844,2 0,4 3.464844,2 3.464844,-2 0,-4 -3.464844,-2 z m 8.660156,0 -3.464843,2 0,4 3.464843,2 3.464844,-2 0,-4 -3.464844,-2 z m 8.660157,0 -3.462891,2 0,4 3.462891,2 3.464843,-2 0,-4 -3.464843,-2 z m 8.660156,0 -3.462891,2 0,4 3.462891,2 3.464843,-2 0,-4 -3.464843,-2 z m 8.660153,0 -3.46289,2 0,4 3.46289,2 3.46485,-2 0,-4 -3.46485,-2 z m 8.66016,0 -3.46289,2 0,4 3.46289,2 3.46484,-2 0,-4 -3.46484,-2 z m 8.66016,0 -3.46289,2 0,4 3.46289,2 3.46484,-2 0,-4 -3.46484,-2 z m 8.66015,0 -3.46289,2 0,4 3.46289,2 3.46485,-2 0,-4 -3.46485,-2 z M -2,49 l -3.4648438,2 0,4 L -2,57 l 3.4648438,-2 0,-4 L -2,49 Z m 8.6601562,0 -3.4648437,2 0,4 3.4648437,2 3.4648438,-2 0,-4 -3.4648438,-2 z m 8.6601558,0 -3.464843,2 0,4 3.464843,2 3.464844,-2 0,-4 -3.464844,-2 z m 8.660157,0 -3.462891,2 0,4 3.462891,2 3.464843,-2 0,-4 -3.464843,-2 z m 8.660156,0 -3.462891,2 0,4 3.462891,2 3.464844,-2 0,-4 -3.464844,-2 z m 8.660156,0 -3.46289,2 0,4 3.46289,2 3.464844,-2 0,-4 -3.464844,-2 z m 8.660157,0 -3.462891,2 0,4 3.462891,2 3.464843,-2 0,-4 -3.464843,-2 z m 8.660156,0 -3.462891,2 0,4 3.462891,2 3.464844,-2 0,-4 -3.464844,-2 z m 8.660156,0 -3.464844,2 0,4 3.464844,2 3.464844,-2 0,-4 -3.464844,-2 z m 8.660156,0 -3.464844,2 0,4 3.464844,2 3.464844,-2 0,-4 -3.464844,-2 z m 8.660156,0 -3.464843,2 0,4 3.464843,2 3.464844,-2 0,-4 -3.464844,-2 z m 8.660157,0 -3.462891,2 0,4 3.462891,2 3.464843,-2 0,-4 -3.464843,-2 z m 8.660161,0 -3.462896,2 0,4 3.462896,2 3.46484,-2 0,-4 -3.46484,-2 z m 8.66015,0 -3.46289,2 0,4 3.46289,2 3.46485,-2 0,-4 -3.46485,-2 z m 8.66016,0 -3.46289,2 0,4 3.46289,2 3.46484,-2 0,-4 -3.46484,-2 z m 8.66015,0 -3.46289,2 0,4 3.46289,2 3.46485,-2 0,-4 -3.46485,-2 z m -125.5722619,7.5 -3.4648437,2 0,4 3.4648437,2 3.4648438,-2 0,-4 -3.4648438,-2 z m 8.6601559,0 -3.4648434,2 0,4 3.4648434,2 3.464844,-2 0,-4 -3.464844,-2 z m 8.660157,0 -3.462891,2 0,4 3.462891,2 3.464843,-2 0,-4 -3.464843,-2 z m 8.660156,0 -3.462891,2 0,4 3.462891,2 3.464844,-2 0,-4 -3.464844,-2 z m 8.660156,0 -3.462891,2 0,4 3.462891,2 3.464844,-2 0,-4 -3.464844,-2 z m 8.660156,0 -3.46289,2 0,4 3.46289,2 3.464844,-2 0,-4 -3.464844,-2 z m 8.660157,0 -3.462891,2 0,4 3.462891,2 3.464843,-2 0,-4 -3.464843,-2 z m 8.660156,0 -3.462891,2 0,4 3.462891,2 3.464844,-2 0,-4 -3.464844,-2 z m 8.660156,0 -3.464844,2 0,4 3.464844,2 3.464844,-2 0,-4 -3.464844,-2 z m 8.660156,0 -3.464843,2 0,4 3.464843,2 3.464844,-2 0,-4 -3.464844,-2 z m 8.660157,0 -3.462891,2 0,4 3.462891,2 3.464843,-2 0,-4 -3.464843,-2 z m 8.660156,0 -3.462891,2 0,4 3.462891,2 3.464843,-2 0,-4 -3.464843,-2 z m 8.660153,0 -3.46289,2 0,4 3.46289,2 3.46485,-2 0,-4 -3.46485,-2 z m 8.66016,0 -3.46289,2 0,4 3.46289,2 3.46484,-2 0,-4 -3.46484,-2 z m 8.66016,0 -3.46289,2 0,4 3.46289,2 3.46484,-2 0,-4 -3.46484,-2 z m 8.66015,0 -3.46289,2 0,4 3.46289,2 3.46485,-2 0,-4 -3.46485,-2 z M -2,64 l -3.4648438,2 0,4 L -2,72 l 3.4648438,-2 0,-4 L -2,64 Z m 8.6601562,0 -3.4648437,2 0,4 3.4648437,2 3.4648438,-2 0,-4 -3.4648438,-2 z m 8.6601558,0 -3.464843,2 0,4 3.464843,2 3.464844,-2 0,-4 -3.464844,-2 z m 8.660157,0 -3.462891,2 0,4 3.462891,2 3.464843,-2 0,-4 -3.464843,-2 z m 8.660156,0 -3.462891,2 0,4 3.462891,2 3.464844,-2 0,-4 -3.464844,-2 z m 8.660156,0 -3.46289,2 0,4 3.46289,2 3.464844,-2 0,-4 -3.464844,-2 z m 8.660157,0 -3.462891,2 0,4 3.462891,2 3.464843,-2 0,-4 -3.464843,-2 z m 8.660156,0 -3.462891,2 0,4 3.462891,2 3.464844,-2 0,-4 -3.464844,-2 z m 8.662109,0 -3.464844,2 0,4 3.464844,2 3.464844,-2 0,-4 -3.464844,-2 z m 8.660156,0 -3.464843,2 0,4 3.464843,2 3.464844,-2 0,-4 -3.464844,-2 z m 8.660157,0 -3.464844,2 0,4 3.464844,2 3.464843,-2 0,-4 -3.464843,-2 z m 8.660156,0 -3.462891,2 0,4 3.462891,2 3.464844,-2 0,-4 -3.464844,-2 z m 8.660158,0 -3.462892,2 0,4 3.462892,2 3.46484,-2 0,-4 -3.46484,-2 z m 8.66015,0 -3.46289,2 0,4 3.46289,2 3.46485,-2 0,-4 -3.46485,-2 z m 8.66016,0 -3.46289,2 0,4 3.46289,2 3.46484,-2 0,-4 -3.46484,-2 z m 8.66016,0 -3.46289,2 0,4 3.46289,2 3.46484,-2 0,-4 -3.46484,-2 z m -125.5742219,7.5 -3.4648437,2 0,4 3.4648437,2 3.4648438,-2 0,-4 -3.4648438,-2 z m 8.6601559,0 -3.4648434,2 0,4 3.4648434,2 3.464844,-2 0,-4 -3.464844,-2 z m 8.660157,0 -3.462891,2 0,4 3.462891,2 3.464843,-2 0,-4 -3.464843,-2 z m 8.660156,0 -3.462891,2 0,4 3.462891,2 3.464844,-2 0,-4 -3.464844,-2 z m 8.660156,0 -3.462891,2 0,4 3.462891,2 3.464844,-2 0,-4 -3.464844,-2 z m 8.660156,0 -3.46289,2 0,4 3.46289,2 3.464844,-2 0,-4 -3.464844,-2 z m 8.660157,0 -3.462891,2 0,4 3.462891,2 3.464843,-2 0,-4 -3.464843,-2 z m 8.660156,0 -3.462891,2 0,4 3.462891,2 3.464844,-2 0,-4 -3.464844,-2 z m 8.662109,0 -3.464843,2 0,4 3.464843,2 3.464844,-2 0,-4 -3.464844,-2 z m 8.660157,0 -3.464844,2 0,4 3.464844,2 3.464843,-2 0,-4 -3.464843,-2 z m 8.660156,0 -3.462891,2 0,4 3.462891,2 3.464844,-2 0,-4 -3.464844,-2 z m 8.660156,0 -3.462891,2 0,4 3.462891,2 3.46484,-2 0,-4 -3.46484,-2 z m 8.66016,0 -3.46289,2 0,4 3.46289,2 3.46484,-2 0,-4 -3.46484,-2 z m 8.66015,0 -3.46289,2 0,4 3.46289,2 3.46485,-2 0,-4 -3.46485,-2 z m 8.66016,0 -3.46289,2 0,4 3.46289,2 3.46484,-2 0,-4 -3.46484,-2 z m 8.66016,0 -3.4629,2 0,4 3.4629,2 3.46484,-2 0,-4 -3.46484,-2 z M -2,79 l -3.4648438,2 0,4 L -2,87 l 3.4648438,-2 0,-4 L -2,79 Z m 8.6601562,0 -3.4648437,2 0,4 3.4648437,2 3.4648438,-2 0,-4 -3.4648438,-2 z m 8.6601558,0 -3.464843,2 0,4 3.464843,2 3.464844,-2 0,-4 -3.464844,-2 z m 8.660157,0 -3.462891,2 0,4 3.462891,2 3.464843,-2 0,-4 -3.464843,-2 z m 8.660156,0 -3.462891,2 0,4 3.462891,2 3.464844,-2 0,-4 -3.464844,-2 z m 8.660156,0 -3.46289,2 0,4 3.46289,2 3.464844,-2 0,-4 -3.464844,-2 z m 8.660157,0 -3.462891,2 0,4 3.462891,2 3.464843,-2 0,-4 -3.464843,-2 z m 8.660156,0 -3.462891,2 0,4 3.462891,2 3.464844,-2 0,-4 -3.464844,-2 z m 8.662109,0 -3.464844,2 0,4 3.464844,2 3.464844,-2 0,-4 -3.464844,-2 z m 8.660156,0 -3.464843,2 0,4 3.464843,2 3.464844,-2 0,-4 -3.464844,-2 z m 8.660157,0 -3.464844,2 0,4 3.464844,2 3.464843,-2 0,-4 -3.464843,-2 z m 8.660156,0 -3.462891,2 0,4 3.462891,2 3.464844,-2 0,-4 -3.464844,-2 z m 8.660158,0 -3.462892,2 0,4 3.462892,2 3.46484,-2 0,-4 -3.46484,-2 z m 8.66015,0 -3.46289,2 0,4 3.46289,2 3.46485,-2 0,-4 -3.46485,-2 z m 8.66016,0 -3.46289,2 0,4 3.46289,2 3.46484,-2 0,-4 -3.46484,-2 z m 8.66016,0 -3.46289,2 0,4 3.46289,2 3.46484,-2 0,-4 -3.46484,-2 z m -125.5742219,7.5 -3.4648437,2 0,4 3.4648437,2 3.4648438,-2 0,-4 -3.4648438,-2 z m 8.6601559,0 -3.4648434,2 0,4 3.4648434,2 3.464844,-2 0,-4 -3.464844,-2 z m 8.660157,0 -3.462891,2 0,4 3.462891,2 3.464843,-2 0,-4 -3.464843,-2 z m 8.660156,0 -3.462891,2 0,4 3.462891,2 3.464844,-2 0,-4 -3.464844,-2 z m 8.660156,0 -3.462891,2 0,4 3.462891,2 3.464844,-2 0,-4 -3.464844,-2 z m 8.660156,0 -3.46289,2 0,4 3.46289,2 3.464844,-2 0,-4 -3.464844,-2 z m 8.660157,0 -3.462891,2 0,4 3.462891,2 3.464843,-2 0,-4 -3.464843,-2 z m 8.660156,0 -3.462891,2 0,4 3.462891,2 3.464844,-2 0,-4 -3.464844,-2 z m 8.662109,0 -3.464843,2 0,4 3.464843,2 3.464844,-2 0,-4 -3.464844,-2 z m 8.660157,0 -3.464844,2 0,4 3.464844,2 3.464843,-2 0,-4 -3.464843,-2 z m 8.660156,0 -3.462891,2 0,4 3.462891,2 3.464844,-2 0,-4 -3.464844,-2 z m 8.660156,0 -3.462891,2 0,4 3.462891,2 3.46484,-2 0,-4 -3.46484,-2 z m 8.66016,0 -3.46289,2 0,4 3.46289,2 3.46484,-2 0,-4 -3.46484,-2 z m 8.66015,0 -3.46289,2 0,4 3.46289,2 3.46485,-2 0,-4 -3.46485,-2 z m 8.66016,0 -3.46289,2 0,4 3.46289,2 3.46484,-2 0,-4 -3.46484,-2 z m 8.66016,0 -3.4629,2 0,4 3.4629,2 3.46484,-2 0,-4 -3.46484,-2 z M -2,94 l -3.4648438,2 0,4 L -2,102 l 3.4648438,-2 0,-4 L -2,94 Z m 8.6601562,0 -3.4648437,2 0,4 3.4648437,2 3.4648438,-2 0,-4 -3.4648438,-2 z m 8.6601558,0 -3.464843,2 0,4 3.464843,2 3.464844,-2 0,-4 -3.464844,-2 z m 8.660157,0 -3.462891,2 0,4 3.462891,2 3.464843,-2 0,-4 -3.464843,-2 z m 8.660156,0 -3.462891,2 0,4 3.462891,2 3.464844,-2 0,-4 -3.464844,-2 z m 8.660156,0 -3.46289,2 0,4 3.46289,2 3.464844,-2 0,-4 -3.464844,-2 z m 8.660157,0 -3.462891,2 0,4 3.462891,2 3.464843,-2 0,-4 -3.464843,-2 z m 8.660156,0 -3.462891,2 0,4 3.462891,2 3.464844,-2 0,-4 -3.464844,-2 z m 8.662109,0 -3.464844,2 0,4 3.464844,2 3.464844,-2 0,-4 -3.464844,-2 z m 8.660156,0 -3.464843,2 0,4 3.464843,2 3.464844,-2 0,-4 -3.464844,-2 z m 8.660157,0 -3.464844,2 0,4 3.464844,2 3.464843,-2 0,-4 -3.464843,-2 z m 8.660156,0 -3.462891,2 0,4 3.462891,2 3.464844,-2 0,-4 -3.464844,-2 z m 8.660158,0 -3.462892,2 0,4 3.462892,2 3.46484,-2 0,-4 -3.46484,-2 z m 8.66015,0 -3.46289,2 0,4 3.46289,2 3.46485,-2 0,-4 -3.46485,-2 z m 8.66016,0 -3.46289,2 0,4 3.46289,2 3.46484,-2 0,-4 -3.46484,-2 z m 8.66016,0 -3.46289,2 0,4 3.46289,2 3.46484,-2 0,-4 -3.46484,-2 z m -125.5742219,7.5 -3.4648437,2 0,4 3.4648437,2 3.4648438,-2 0,-4 -3.4648438,-2 z m 8.6601559,0 -3.4648434,2 0,4 3.4648434,2 3.464844,-2 0,-4 -3.464844,-2 z m 8.660157,0 -3.462891,2 0,4 3.462891,2 3.464843,-2 0,-4 -3.464843,-2 z m 8.660156,0 -3.462891,2 0,4 3.462891,2 3.464844,-2 0,-4 -3.464844,-2 z m 8.660156,0 -3.462891,2 0,4 3.462891,2 3.464844,-2 0,-4 -3.464844,-2 z m 8.660156,0 -3.46289,2 0,4 3.46289,2 3.464844,-2 0,-4 -3.464844,-2 z m 8.660157,0 -3.462891,2 0,4 3.462891,2 3.464843,-2 0,-4 -3.464843,-2 z m 8.660156,0 -3.462891,2 0,4 3.462891,2 3.464844,-2 0,-4 -3.464844,-2 z m 8.662109,0 -3.464843,2 0,4 3.464843,2 3.464844,-2 0,-4 -3.464844,-2 z m 8.660157,0 -3.464844,2 0,4 3.464844,2 3.464843,-2 0,-4 -3.464843,-2 z m 8.660156,0 -3.462891,2 0,4 3.462891,2 3.464844,-2 0,-4 -3.464844,-2 z m 8.660156,0 -3.462891,2 0,4 3.462891,2 3.46484,-2 0,-4 -3.46484,-2 z m 8.66016,0 -3.46289,2 0,4 3.46289,2 3.46484,-2 0,-4 -3.46484,-2 z m 8.66015,0 -3.46289,2 0,4 3.46289,2 3.46485,-2 0,-4 -3.46485,-2 z m 8.66016,0 -3.46289,2 0,4 3.46289,2 3.46484,-2 0,-4 -3.46484,-2 z m 8.66016,0 -3.4629,2 0,4 3.4629,2 3.46484,-2 0,-4 -3.46484,-2 z M -2,109 l -3.4648438,2 0,4 L -2,117 l 3.4648438,-2 0,-4 L -2,109 Z m 8.6601562,0 -3.4648437,2 0,4 3.4648437,2 3.4648438,-2 0,-4 -3.4648438,-2 z m 8.6601558,0 -3.464843,2 0,4 3.464843,2 3.464844,-2 0,-4 -3.464844,-2 z m 8.660157,0 -3.462891,2 0,4 3.462891,2 3.464843,-2 0,-4 -3.464843,-2 z m 8.660156,0 -3.462891,2 0,4 3.462891,2 3.464844,-2 0,-4 -3.464844,-2 z m 8.660156,0 -3.46289,2 0,4 3.46289,2 3.464844,-2 0,-4 -3.464844,-2 z m 8.660157,0 -3.462891,2 0,4 3.462891,2 3.464843,-2 0,-4 -3.464843,-2 z m 8.660156,0 -3.462891,2 0,4 3.462891,2 3.464844,-2 0,-4 -3.464844,-2 z m 8.662109,0 -3.464844,2 0,4 3.464844,2 3.464844,-2 0,-4 -3.464844,-2 z m 8.660156,0 -3.464843,2 0,4 3.464843,2 3.464844,-2 0,-4 -3.464844,-2 z m 8.660157,0 -3.464844,2 0,4 3.464844,2 3.464843,-2 0,-4 -3.464843,-2 z m 8.660156,0 -3.462891,2 0,4 3.462891,2 3.464844,-2 0,-4 -3.464844,-2 z m 8.660158,0 -3.462892,2 0,4 3.462892,2 3.46484,-2 0,-4 -3.46484,-2 z m 8.66015,0 -3.46289,2 0,4 3.46289,2 3.46485,-2 0,-4 -3.46485,-2 z m 8.66016,0 -3.46289,2 0,4 3.46289,2 3.46484,-2 0,-4 -3.46484,-2 z m 8.66016,0 -3.46289,2 0,4 3.46289,2 3.46484,-2 0,-4 -3.46484,-2 z m -125.5742219,7.5 -3.4648437,2 0,4 3.4648437,2 3.4648438,-2 0,-4 -3.4648438,-2 z m 8.6601559,0 -3.4648434,2 0,4 3.4648434,2 3.464844,-2 0,-4 -3.464844,-2 z m 8.660157,0 -3.462891,2 0,4 3.462891,2 3.464843,-2 0,-4 -3.464843,-2 z m 8.660156,0 -3.462891,2 0,4 3.462891,2 3.464844,-2 0,-4 -3.464844,-2 z m 8.660156,0 -3.462891,2 0,4 3.462891,2 3.464844,-2 0,-4 -3.464844,-2 z m 8.660156,0 -3.46289,2 0,4 3.46289,2 3.464844,-2 0,-4 -3.464844,-2 z m 8.660157,0 -3.462891,2 0,4 3.462891,2 3.464843,-2 0,-4 -3.464843,-2 z m 8.660156,0 -3.462891,2 0,4 3.462891,2 3.464844,-2 0,-4 -3.464844,-2 z m 8.662109,0 -3.464843,2 0,4 3.464843,2 3.464844,-2 0,-4 -3.464844,-2 z m 8.660157,0 -3.464844,2 0,4 3.464844,2 3.464843,-2 0,-4 -3.464843,-2 z m 8.660156,0 -3.462891,2 0,4 3.462891,2 3.464844,-2 0,-4 -3.464844,-2 z m 8.660156,0 -3.462891,2 0,4 3.462891,2 3.46484,-2 0,-4 -3.46484,-2 z m 8.66016,0 -3.46289,2 0,4 3.46289,2 3.46484,-2 0,-4 -3.46484,-2 z m 8.66015,0 -3.46289,2 0,4 3.46289,2 3.46485,-2 0,-4 -3.46485,-2 z m 8.66016,0 -3.46289,2 0,4 3.46289,2 3.46484,-2 0,-4 -3.46484,-2 z m 8.66016,0 -3.4629,2 0,4 3.4629,2 3.46484,-2 0,-4 -3.46484,-2 z M -2,124 l -3.4648438,2 0,4 L -2,132 l 3.4648438,-2 0,-4 L -2,124 Z m 8.6601562,0 -3.4648437,2 0,4 3.4648437,2 3.4648438,-2 0,-4 -3.4648438,-2 z m 8.6601558,0 -3.464843,2 0,4 3.464843,2 3.464844,-2 0,-4 -3.464844,-2 z m 8.660157,0 -3.462891,2 0,4 3.462891,2 3.464843,-2 0,-4 -3.464843,-2 z m 8.660156,0 -3.462891,2 0,4 3.462891,2 3.464844,-2 0,-4 -3.464844,-2 z m 8.660156,0 -3.46289,2 0,4 3.46289,2 3.464844,-2 0,-4 -3.464844,-2 z m 8.660157,0 -3.462891,2 0,4 3.462891,2 3.464843,-2 0,-4 -3.464843,-2 z m 8.660156,0 -3.462891,2 0,4 3.462891,2 3.464844,-2 0,-4 -3.464844,-2 z m 8.662109,0 -3.464844,2 0,4 3.464844,2 3.464844,-2 0,-4 -3.464844,-2 z m 8.660156,0 -3.464843,2 0,4 3.464843,2 3.464844,-2 0,-4 -3.464844,-2 z m 8.660157,0 -3.464844,2 0,4 3.464844,2 3.464843,-2 0,-4 -3.464843,-2 z m 8.660156,0 -3.462891,2 0,4 3.462891,2 3.464844,-2 0,-4 -3.464844,-2 z m 8.660158,0 -3.462892,2 0,4 3.462892,2 3.46484,-2 0,-4 -3.46484,-2 z m 8.66015,0 -3.46289,2 0,4 3.46289,2 3.46485,-2 0,-4 -3.46485,-2 z m 8.66016,0 -3.46289,2 0,4 3.46289,2 3.46484,-2 0,-4 -3.46484,-2 z m 8.66016,0 -3.46289,2 0,4 3.46289,2 3.46484,-2 0,-4 -3.46484,-2 z m -125.5742219,7.5 -3.4648437,2 0,4 3.4648437,2 3.4648438,-2 0,-4 -3.4648438,-2 z m 8.6601559,0 -3.4648434,2 0,4 3.4648434,2 3.464844,-2 0,-4 -3.464844,-2 z m 8.660157,0 -3.462891,2 0,4 3.462891,2 3.464843,-2 0,-4 -3.464843,-2 z m 8.660156,0 -3.462891,2 0,4 3.462891,2 3.464844,-2 0,-4 -3.464844,-2 z m 8.660156,0 -3.462891,2 0,4 3.462891,2 3.464844,-2 0,-4 -3.464844,-2 z m 8.660156,0 -3.46289,2 0,4 3.46289,2 3.464844,-2 0,-4 -3.464844,-2 z m 8.660157,0 -3.462891,2 0,4 3.462891,2 3.464843,-2 0,-4 -3.464843,-2 z m 8.660156,0 -3.462891,2 0,4 3.462891,2 3.464844,-2 0,-4 -3.464844,-2 z m 8.662109,0 -3.464843,2 0,4 3.464843,2 3.464844,-2 0,-4 -3.464844,-2 z m 8.660157,0 -3.464844,2 0,4 3.464844,2 3.464843,-2 0,-4 -3.464843,-2 z m 8.660156,0 -3.462891,2 0,4 3.462891,2 3.464844,-2 0,-4 -3.464844,-2 z m 8.660156,0 -3.462891,2 0,4 3.462891,2 3.46484,-2 0,-4 -3.46484,-2 z m 8.66016,0 -3.46289,2 0,4 3.46289,2 3.46484,-2 0,-4 -3.46484,-2 z m 8.66015,0 -3.46289,2 0,4 3.46289,2 3.46485,-2 0,-4 -3.46485,-2 z m 8.66016,0 -3.46289,2 0,4 3.46289,2 3.46484,-2 0,-4 -3.46484,-2 z m 8.66016,0 -3.4629,2 0,4 3.4629,2 3.46484,-2 0,-4 -3.46484,-2 z"
         clip-path="none"
         mask="url(#mask8226)"
         style="fill:#000000;fill-opacity:1;fill-rule:evenodd;stroke:none;stroke-width:0.5;stroke-linecap:butt;stroke-linejoin:miter;stroke-miterlimit:4;stroke-dasharray:none;stroke-opacity:1;filter:url(#filter8146)" />
    </pattern>
  </defs>
  <metadata
     id="metadata7">
    <rdf:RDF>
      <cc:Work
         rdf:about="">
        <dc:format>image/svg+xml</dc:format>
        <dc:type
           rdf:resource="http://purl.org/dc/dcmitype/StillImage" />
        <dc:title></dc:title>
      </cc:Work>
    </rdf:RDF>
  </metadata>
  <rect
     style="stroke:none;fill:url(#pattern9049)"
     width="150.53157"
     height="159.5466"
     x="-10.148595"
     y="-15.5233"
     id="rect9052" />
  <rect
     id="rect9084"
     y="-15.5233"
     x="-10.148595"
     height="159.5466"
     width="150.53157"
     style="stroke:none;fill:url(#pattern9049)" />
</svg>
