<?xml version="1.0" encoding="UTF-8" standalone="no"?>
<svg xmlns:rdf="http://www.w3.org/1999/02/22-rdf-syntax-ns#" xmlns="http://www.w3.org/2000/svg" viewBox="0 0 128 128" height="128" width="128" version="1.1" xmlns:cc="http://creativecommons.org/ns#" xmlns:xlink="http://www.w3.org/1999/xlink" xmlns:dc="http://purl.org/dc/elements/1.1/">
<defs>
<filter id="c" style="color-interpolation-filters:sRGB" height="1.02" width="1.02" y="-.0117" x="-.0123">
<feGaussianBlur stdDeviation="0.36845215"/>
</filter>
<mask id="b" maskUnits="userSpaceOnUse">
<path fill="#d25050" d="m-16-24v176h168v-176h-168zm14 13 3.46 2v4l-3.46 2-3.46-2v-4l3.46-2zm8.66 0 3.46 2v4l-3.46 2-3.46-2v-4l3.46-2zm8.66 0 3.46 2v4l-3.46 2-3.46-2v-4l3.46-2zm8.66 0 3.46 2v4l-3.46 2-3.46-2v-4l3.46-2zm8.66 0 3.46 2v4l-3.46 2-3.46-2v-4l3.46-2zm8.66 0 3.46 2v4l-3.46 2-3.46-2v-4l3.46-2zm8.66 0 3.46 2v4l-3.46 2-3.46-2v-4l3.46-2zm8.66 0 3.46 2v4l-3.46 2-3.46-2v-4l3.46-2zm8.66 0 3.46 2v4l-3.46 2-3.46-2v-4l3.46-2zm8.66 0 3.46 2v4l-3.46 2-3.46-2v-4l3.46-2zm8.66 0 3.46 2v4l-3.46 2-3.46-2v-4l3.46-2zm8.66 0 3.46 2v4l-3.46 2-3.46-2v-4l3.46-2zm8.66 0 3.46 2v4l-3.46 2-3.46-2v-4l3.46-2zm8.66 0 3.46 2v4l-3.46 2-3.46-2v-4l3.46-2zm8.66 0 3.46 2v4l-3.46 2-3.46-2v-4l3.46-2zm8.66 0 3.46 2v4l-3.46 2-3.46-2v-4l3.46-2zm-126 7.5 3.46 2v4l-3.46 2-3.46-2v-4l3.46-2zm8.66 0 3.46 2v4l-3.46 2-3.46-2v-4l3.46-2zm8.66 0 3.46 2v4l-3.46 2-3.46-2v-4l3.46-2zm8.66 0 3.46 2v4l-3.46 2-3.46-2v-4l3.46-2zm8.66 0 3.46 2v4l-3.46 2-3.46-2v-4l3.46-2zm8.66 0 3.46 2v4l-3.46 2-3.46-2v-4l3.46-2zm8.66 0 3.46 2v4l-3.46 2-3.46-2v-4l3.46-2zm8.66 0 3.46 2v4l-3.46 2-3.46-2v-4l3.46-2zm8.66 0 3.46 2v4l-3.46 2-3.46-2v-4l3.46-2zm8.66 0 3.46 2v4l-3.46 2-3.46-2v-4l3.46-2zm8.66 0 3.46 2v4l-3.46 2-3.46-2v-4l3.46-2zm8.66 0 3.46 2v4l-3.46 2-3.46-2v-4l3.46-2zm8.66 0 3.46 2v4l-3.46 2-3.46-2v-4l3.46-2zm8.66 0 3.46 2v4l-3.46 2-3.46-2v-4l3.46-2zm8.66 0 3.46 2v4l-3.46 2-3.46-2v-4l3.46-2zm8.66 0 3.46 2v4l-3.46 2-3.46-2v-4l3.46-2zm-136 7.5l3.46 2v4l-3.46 2-3.46-2v-4l3.46-2zm8.66 0 3.44 2v4l-3.46 2-3.46-2v-4l3.46-2zm8.66 0 3.46 2v4l-3.46 2-3.46-2v-4l3.46-2zm8.66 0 3.46 2v4l-3.46 2-3.46-2v-4l3.46-2zm8.66 0 3.46 2v4l-3.46 2-3.46-2v-4l3.46-2zm8.66 0 3.46 2v4l-3.46 2-3.46-2v-4l3.46-2zm8.66 0 3.46 2v4l-3.46 2-3.46-2v-4l3.46-2zm8.66 0 3.46 2v4l-3.46 2-3.46-2v-4l3.46-2zm8.66 0 3.46 2v4l-3.46 2-3.46-2v-4l3.46-2zm8.66 0 3.46 2v4l-3.46 2-3.46-2v-4l3.46-2zm8.66 0 3.46 2v4l-3.46 2-3.46-2v-4l3.46-2zm8.66 0 3.46 2v4l-3.46 2-3.46-2v-4l3.46-2zm8.66 0 3.46 2v4l-3.46 2-3.46-2v-4l3.46-2zm8.66 0 3.46 2v4l-3.46 2-3.46-2v-4l3.46-2zm8.66 0 3.46 2v4l-3.46 2-3.46-2v-4l3.46-2zm8.66 0 3.46 2v4l-3.46 2-3.46-2v-4l3.46-2zm-126 7.5 3.46 2v4l-3.46 2-3.46-2v-4l3.46-2zm8.66 0 3.46 2v4l-3.46 2-3.46-2v-4l3.46-2zm8.66 0 3.46 2v4l-3.46 2-3.46-2v-4l3.46-2zm8.66 0 3.46 2v4l-3.46 2-3.46-2v-4l3.46-2zm8.66 0 3.46 2v4l-3.46 2-3.46-2v-4l3.46-2zm8.66 0 3.46 2v4l-3.46 2-3.46-2v-4l3.46-2zm8.66 0 3.46 2v4l-3.46 2-3.46-2v-4l3.46-2zm8.66 0 3.46 2v4l-3.46 2-3.46-2v-4l3.46-2zm8.66 0 3.46 2v4l-3.46 2-3.46-2v-4l3.46-2zm8.66 0 3.46 2v4l-3.46 2-3.46-2v-4l3.46-2zm8.66 0 3.46 2v4l-3.46 2-3.46-2v-4l3.46-2zm8.66 0 3.46 2v4l-3.46 2-3.46-2v-4l3.46-2zm8.66 0 3.46 2v4l-3.46 2-3.46-2v-4l3.46-2zm8.66 0 3.46 2v4l-3.46 2-3.46-2v-4l3.46-2zm8.66 0 3.46 2v4l-3.46 2-3.46-2v-4l3.46-2zm8.66 0 3.46 2v4l-3.46 2-3.46-2v-4l3.46-2zm-136 7.5l3.46 2v4l-3.46 2-3.46-2v-4l3.46-2zm8.66 0 3.46 2v4l-3.46 2-3.46-2v-4l3.46-2zm8.66 0 3.46 2v4l-3.46 2-3.46-2v-4l3.46-2zm8.66 0 3.46 2v4l-3.46 2-3.46-2v-4l3.46-2zm8.66 0 3.46 2v4l-3.46 2-3.46-2v-4l3.46-2zm8.66 0 3.46 2v4l-3.46 2-3.46-2v-4l3.46-2zm8.66 0 3.46 2v4l-3.46 2-3.46-2v-4l3.46-2zm8.66 0 3.46 2v4l-3.46 2-3.46-2v-4l3.46-2zm8.66 0 3.46 2v4l-3.46 2-3.46-2v-4l3.46-2zm8.66 0 3.46 2v4l-3.46 2-3.46-2v-4l3.46-2zm8.66 0 3.46 2v4l-3.46 2-3.46-2v-4l3.46-2zm8.66 0 3.46 2v4l-3.46 2-3.46-2v-4l3.46-2zm8.66 0 3.46 2v4l-3.46 2-3.46-2v-4l3.46-2zm8.66 0 3.46 2v4l-3.46 2-3.46-2v-4l3.46-2zm8.66 0 3.46 2v4l-3.46 2-3.46-2v-4l3.46-2zm8.66 0 3.46 2v4l-3.46 2-3.46-2v-4l3.46-2zm-126 7.5 3.46 2v4l-3.46 2-3.46-2v-4l3.46-2zm8.66 0 3.46 2v4l-3.46 2-3.46-2v-4l3.46-2zm8.66 0 3.46 2v4l-3.46 2-3.46-2v-4l3.46-2zm8.66 0 3.46 2v4l-3.46 2-3.46-2v-4l3.46-2zm8.66 0 3.46 2v4l-3.46 2-3.46-2v-4l3.46-2zm8.66 0 3.46 2v4l-3.46 2-3.46-2v-4l3.46-2zm8.66 0 3.46 2v4l-3.46 2-3.46-2v-4l3.46-2zm8.66 0 3.46 2v4l-3.46 2-3.46-2v-4l3.46-2zm8.66 0 3.46 2v4l-3.46 2-3.46-2v-4l3.46-2zm8.66 0 3.46 2v4l-3.46 2-3.46-2v-4l3.46-2zm8.66 0 3.46 2v4l-3.46 2-3.46-2v-4l3.46-2zm8.66 0 3.46 2v4l-3.46 2-3.46-2v-4l3.46-2zm8.66 0 3.46 2v4l-3.46 2-3.46-2v-4l3.46-2zm8.66 0 3.46 2v4l-3.46 2-3.46-2v-4l3.46-2zm8.66 0 3.46 2v4l-3.46 2-3.46-2v-4l3.46-2zm8.66 0 3.46 2v4l-3.46 2-3.46-2v-4l3.46-2zm-136 7.5l3.46 2v4l-3.46 2-3.46-2v-4l3.46-2zm8.66 0 3.46 2v4l-3.46 2-3.46-2v-4l3.46-2zm8.66 0 3.46 2v4l-3.46 2-3.46-2v-4l3.46-2zm8.66 0 3.46 2v4l-3.46 2-3.46-2v-4l3.46-2zm8.66 0 3.46 2v4l-3.46 2-3.46-2v-4l3.46-2zm8.66 0 3.46 2v4l-3.46 2-3.46-2v-4l3.46-2zm8.66 0 3.46 2v4l-3.46 2-3.46-2v-4l3.46-2zm8.66 0 3.46 2v4l-3.46 2-3.46-2v-4l3.46-2zm8.66 0 3.46 2v4l-3.46 2-3.46-2v-4l3.46-2zm8.66 0 3.46 2v4l-3.46 2-3.46-2v-4l3.46-2zm8.66 0 3.46 2v4l-3.46 2-3.46-2v-4l3.46-2zm8.66 0 3.46 2v4l-3.46 2-3.46-2v-4l3.46-2zm8.66 0 3.46 2v4l-3.46 2-3.46-2v-4l3.46-2zm8.66 0 3.46 2v4l-3.46 2-3.46-2v-4l3.46-2zm8.66 0 3.46 2v4l-3.46 2-3.46-2v-4l3.46-2zm8.66 0 3.46 2v4l-3.46 2-3.46-2v-4l3.46-2zm-126 7.5 3.46 2v4l-3.46 2-3.46-2v-4l3.46-2zm8.66 0 3.46 2v4l-3.46 2-3.46-2v-4l3.46-2zm8.66 0 3.46 2v4l-3.46 2-3.46-2v-4l3.46-2zm8.66 0 3.46 2v4l-3.46 2-3.46-2v-4l3.46-2zm8.66 0 3.46 2v4l-3.46 2-3.46-2v-4l3.46-2zm8.66 0 3.46 2v4l-3.46 2-3.46-2v-4l3.46-2zm8.66 0 3.46 2v4l-3.46 2-3.46-2v-4l3.46-2zm8.66 0 3.46 2v4l-3.46 2-3.46-2v-4l3.46-2zm8.66 0 3.46 2v4l-3.46 2-3.46-2v-4l3.46-2zm8.66 0 3.46 2v4l-3.46 2-3.46-2v-4l3.46-2zm8.66 0 3.46 2v4l-3.46 2-3.46-2v-4l3.46-2zm8.66 0 3.46 2v4l-3.46 2-3.46-2v-4l3.46-2zm8.66 0 3.46 2v4l-3.46 2-3.46-2v-4l3.46-2zm8.66 0 3.46 2v4l-3.46 2-3.46-2v-4l3.46-2zm8.66 0 3.46 2v4l-3.46 2-3.46-2v-4l3.46-2zm8.66 0 3.46 2v4l-3.46 2-3.46-2v-4l3.46-2zm-136 7.5l3.46 2v4l-3.46 2-3.46-2v-4l3.46-2zm8.66 0 3.46 2v4l-3.46 2-3.46-2v-4l3.46-2zm8.66 0 3.46 2v4l-3.46 2-3.46-2v-4l3.46-2zm8.66 0 3.46 2v4l-3.46 2-3.46-2v-4l3.46-2zm8.66 0 3.46 2v4l-3.46 2-3.46-2v-4l3.46-2zm8.66 0 3.46 2v4l-3.46 2-3.46-2v-4l3.46-2zm8.66 0 3.46 2v4l-3.46 2-3.46-2v-4l3.46-2zm8.66 0 3.46 2v4l-3.46 2-3.46-2v-4l3.46-2zm8.66 0 3.46 2v4l-3.46 2-3.46-2v-4l3.46-2zm8.66 0 3.46 2v4l-3.46 2-3.46-2v-4l3.46-2zm8.66 0 3.46 2v4l-3.46 2-3.46-2v-4l3.46-2zm8.66 0 3.46 2v4l-3.46 2-3.46-2v-4l3.46-2zm8.66 0 3.46 2v4l-3.46 2-3.46-2v-4l3.46-2zm8.66 0 3.46 2v4l-3.46 2-3.46-2v-4l3.46-2zm8.66 0 3.46 2v4l-3.46 2-3.46-2v-4l3.46-2zm8.66 0 3.46 2v4l-3.46 2-3.46-2v-4l3.46-2zm-126 7.5 3.46 2v4l-3.46 2-3.46-2v-4l3.46-2zm8.66 0 3.46 2v4l-3.46 2-3.46-2v-4l3.46-2zm8.66 0 3.46 2v4l-3.46 2-3.46-2v-4l3.46-2zm8.66 0 3.46 2v4l-3.46 2-3.46-2v-4l3.46-2zm8.66 0 3.46 2v4l-3.46 2-3.46-2v-4l3.46-2zm8.66 0 3.46 2v4l-3.46 2-3.46-2v-4l3.46-2zm8.66 0 3.46 2v4l-3.46 2-3.46-2v-4l3.46-2zm8.66 0 3.46 2v4l-3.46 2-3.46-2v-4l3.46-2zm8.66 0 3.46 2v4l-3.46 2-3.46-2v-4l3.46-2zm8.66 0 3.46 2v4l-3.46 2-3.46-2v-4l3.46-2zm8.66 0 3.46 2v4l-3.46 2-3.46-2v-4l3.46-2zm8.66 0 3.46 2v4l-3.46 2-3.46-2v-4l3.46-2zm8.66 0 3.46 2v4l-3.46 2-3.46-2v-4l3.46-2zm8.66 0 3.46 2v4l-3.46 2-3.46-2v-4l3.46-2zm8.66 0 3.46 2v4l-3.46 2-3.46-2v-4l3.46-2zm8.66 0 3.46 2v4l-3.46 2-3.46-2v-4l3.46-2zm-136 7.5l3.46 2v4l-3.46 2-3.46-2v-4l3.46-2zm8.66 0 3.46 2v4l-3.46 2-3.46-2v-4l3.46-2zm8.66 0 3.46 2v4l-3.46 2-3.46-2v-4l3.46-2zm8.66 0 3.46 2v4l-3.46 2-3.46-2v-4l3.46-2zm8.66 0 3.46 2v4l-3.46 2-3.46-2v-4l3.46-2zm8.66 0 3.46 2v4l-3.46 2-3.46-2v-4l3.46-2zm8.66 0 3.46 2v4l-3.46 2-3.46-2v-4l3.46-2zm8.66 0 3.46 2v4l-3.46 2-3.46-2v-4l3.46-2zm8.66 0 3.46 2v4l-3.46 2-3.46-2v-4l3.46-2zm8.66 0 3.46 2v4l-3.46 2-3.46-2v-4l3.46-2zm8.66 0 3.46 2v4l-3.46 2-3.46-2v-4l3.46-2zm8.66 0 3.46 2v4l-3.46 2-3.46-2v-4l3.46-2zm8.66 0 3.46 2v4l-3.46 2-3.46-2v-4l3.46-2zm8.66 0 3.46 2v4l-3.46 2-3.46-2v-4l3.46-2zm8.66 0 3.46 2v4l-3.46 2-3.46-2v-4l3.46-2zm8.66 0 3.46 2v4l-3.46 2-3.46-2v-4l3.46-2zm-126 7.5 3.46 2v4l-3.46 2-3.46-2v-4l3.46-2zm8.66 0 3.46 2v4l-3.46 2-3.46-2v-4l3.46-2zm8.66 0 3.46 2v4l-3.46 2-3.46-2v-4l3.46-2zm8.66 0 3.46 2v4l-3.46 2-3.46-2v-4l3.46-2zm8.66 0 3.46 2v4l-3.46 2-3.46-2v-4l3.46-2zm8.66 0 3.46 2v4l-3.46 2-3.46-2v-4l3.46-2zm8.66 0 3.46 2v4l-3.46 2-3.46-2v-4l3.46-2zm8.66 0 3.46 2v4l-3.46 2-3.46-2v-4l3.46-2zm8.66 0 3.46 2v4l-3.46 2-3.46-2v-4l3.46-2zm8.66 0 3.46 2v4l-3.46 2-3.46-2v-4l3.46-2zm8.66 0 3.46 2v4l-3.46 2-3.46-2v-4l3.46-2zm8.66 0 3.46 2v4l-3.46 2-3.46-2v-4l3.46-2zm8.66 0 3.46 2v4l-3.46 2-3.46-2v-4l3.46-2zm8.66 0 3.46 2v4l-3.46 2-3.46-2v-4l3.46-2zm8.66 0 3.46 2v4l-3.46 2-3.46-2v-4l3.46-2zm8.66 0 3.46 2v4l-3.46 2-3.46-2v-4l3.46-2zm-136 7.5l3.46 2v4l-3.46 2-3.46-2v-4l3.46-2zm8.66 0 3.46 2v4l-3.46 2-3.46-2v-4l3.46-2zm8.66 0 3.46 2v4l-3.46 2-3.46-2v-4l3.46-2zm8.66 0 3.46 2v4l-3.46 2-3.46-2v-4l3.46-2zm8.66 0 3.46 2v4l-3.46 2-3.46-2v-4l3.46-2zm8.66 0 3.46 2v4l-3.46 2-3.46-2v-4l3.46-2zm8.66 0 3.46 2v4l-3.46 2-3.46-2v-4l3.46-2zm8.66 0 3.46 2v4l-3.46 2-3.46-2v-4l3.46-2zm8.66 0 3.46 2v4l-3.46 2-3.46-2v-4l3.46-2zm8.66 0 3.46 2v4l-3.46 2-3.46-2v-4l3.46-2zm8.66 0 3.46 2v4l-3.46 2-3.46-2v-4l3.46-2zm8.66 0 3.46 2v4l-3.46 2-3.46-2v-4l3.46-2zm8.66 0 3.46 2v4l-3.46 2-3.46-2v-4l3.46-2zm8.66 0 3.46 2v4l-3.46 2-3.46-2v-4l3.46-2zm8.66 0 3.46 2v4l-3.46 2-3.46-2v-4l3.46-2zm8.66 0 3.46 2v4l-3.46 2-3.46-2v-4l3.46-2zm-126 7.5 3.46 2v4l-3.46 2-3.46-2v-4l3.46-2zm8.66 0 3.46 2v4l-3.46 2-3.46-2v-4l3.46-2zm8.66 0 3.46 2v4l-3.46 2-3.46-2v-4l3.46-2zm8.66 0 3.46 2v4l-3.46 2-3.46-2v-4l3.46-2zm8.66 0 3.46 2v4l-3.46 2-3.46-2v-4l3.46-2zm8.66 0 3.46 2v4l-3.46 2-3.46-2v-4l3.46-2zm8.66 0 3.46 2v4l-3.46 2-3.46-2v-4l3.46-2zm8.66 0 3.46 2v4l-3.46 2-3.46-2v-4l3.46-2zm8.66 0 3.46 2v4l-3.46 2-3.46-2v-4l3.46-2zm8.66 0 3.46 2v4l-3.46 2-3.46-2v-4l3.46-2zm8.66 0 3.46 2v4l-3.46 2-3.46-2v-4l3.46-2zm8.66 0 3.46 2v4l-3.46 2-3.46-2v-4l3.46-2zm8.66 0 3.46 2v4l-3.46 2-3.46-2v-4l3.46-2zm8.66 0 3.46 2v4l-3.46 2-3.46-2v-4l3.46-2zm8.66 0 3.46 2v4l-3.46 2-3.46-2v-4l3.46-2zm8.66 0 3.46 2v4l-3.46 2-3.46-2v-4l3.46-2zm-136 7.5l3.46 2v4l-3.46 2-3.46-2v-4l3.46-2zm8.66 0 3.46 2v4l-3.46 2-3.46-2v-4l3.46-2zm8.66 0 3.46 2v4l-3.46 2-3.46-2v-4l3.46-2zm8.66 0 3.46 2v4l-3.46 2-3.46-2v-4l3.46-2zm8.66 0 3.46 2v4l-3.46 2-3.46-2v-4l3.46-2zm8.66 0 3.46 2v4l-3.46 2-3.46-2v-4l3.46-2zm8.66 0 3.46 2v4l-3.46 2-3.46-2v-4l3.46-2zm8.66 0 3.46 2v4l-3.46 2-3.46-2v-4l3.46-2zm8.66 0 3.46 2v4l-3.46 2-3.46-2v-4l3.46-2zm8.66 0 3.46 2v4l-3.46 2-3.46-2v-4l3.46-2zm8.66 0 3.46 2v4l-3.46 2-3.46-2v-4l3.46-2zm8.66 0 3.46 2v4l-3.46 2-3.46-2v-4l3.46-2zm8.66 0 3.46 2v4l-3.46 2-3.46-2v-4l3.46-2zm8.66 0 3.46 2v4l-3.46 2-3.46-2v-4l3.46-2zm8.66 0 3.46 2v4l-3.46 2-3.46-2v-4l3.46-2zm8.66 0 3.46 2v4l-3.46 2-3.46-2v-4l3.46-2zm-126 7.5 3.46 2v4l-3.46 2-3.46-2v-4l3.46-2zm8.66 0 3.46 2v4l-3.46 2-3.46-2v-4l3.46-2zm8.66 0 3.46 2v4l-3.46 2-3.46-2v-4l3.46-2zm8.66 0 3.46 2v4l-3.46 2-3.46-2v-4l3.46-2zm8.66 0 3.46 2v4l-3.46 2-3.46-2v-4l3.46-2zm8.66 0 3.46 2v4l-3.46 2-3.46-2v-4l3.46-2zm8.66 0 3.46 2v4l-3.46 2-3.46-2v-4l3.46-2zm8.66 0 3.46 2v4l-3.46 2-3.46-2v-4l3.46-2zm8.66 0 3.46 2v4l-3.46 2-3.46-2v-4l3.46-2zm8.66 0 3.46 2v4l-3.46 2-3.46-2v-4l3.46-2zm8.66 0 3.46 2v4l-3.46 2-3.46-2v-4l3.46-2zm8.66 0 3.46 2v4l-3.46 2-3.46-2v-4l3.46-2zm8.66 0 3.46 2v4l-3.46 2-3.46-2v-4l3.46-2zm8.66 0 3.46 2v4l-3.46 2-3.46-2v-4l3.46-2zm8.66 0 3.46 2v4l-3.46 2-3.46-2v-4l3.46-2zm8.66 0 3.46 2v4l-3.46 2-3.46-2v-4l3.46-2zm-136 7l3.46 2v4l-3.46 2-3.46-2v-4l3.46-2zm8.66 0 3.46 2v4l-3.46 2-3.46-2v-4l3.46-2zm8.66 0 3.46 2v4l-3.46 2-3.46-2v-4l3.46-2zm8.66 0 3.46 2v4l-3.46 2-3.46-2v-4l3.46-2zm8.66 0 3.46 2v4l-3.46 2-3.46-2v-4l3.46-2zm8.66 0 3.46 2v4l-3.46 2-3.46-2v-4l3.46-2zm8.66 0 3.46 2v4l-3.46 2-3.46-2v-4l3.46-2zm8.66 0 3.46 2v4l-3.46 2-3.46-2v-4l3.46-2zm8.66 0 3.46 2v4l-3.46 2-3.46-2v-4l3.46-2zm8.66 0 3.46 2v4l-3.46 2-3.46-2v-4l3.46-2zm8.66 0 3.46 2v4l-3.46 2-3.46-2v-4l3.46-2zm8.66 0 3.46 2v4l-3.46 2-3.46-2v-4l3.46-2zm8.66 0 3.46 2v4l-3.46 2-3.46-2v-4l3.46-2zm8.66 0 3.46 2v4l-3.46 2-3.46-2v-4l3.46-2zm8.66 0 3.46 2v4l-3.46 2-3.46-2v-4l3.46-2zm8.66 0 3.46 2v4l-3.46 2-3.46-2v-4l3.46-2zm-126 7.5 3.46 2v4l-3.46 2-3.46-2v-4l3.46-2zm8.66 0 3.46 2v4l-3.46 2-3.46-2v-4l3.46-2zm8.66 0 3.46 2v4l-3.46 2-3.46-2v-4l3.46-2zm8.66 0 3.46 2v4l-3.46 2-3.46-2v-4l3.46-2zm8.66 0 3.46 2v4l-3.46 2-3.46-2v-4l3.46-2zm8.66 0 3.46 2v4l-3.46 2-3.46-2v-4l3.46-2zm8.66 0 3.46 2v4l-3.46 2-3.46-2v-4l3.46-2zm8.66 0 3.46 2v4l-3.46 2-3.46-2v-4l3.46-2zm8.66 0 3.46 2v4l-3.46 2-3.46-2v-4l3.46-2zm8.66 0 3.46 2v4l-3.46 2-3.46-2v-4l3.46-2zm8.66 0 3.46 2v4l-3.46 2-3.46-2v-4l3.46-2zm8.66 0 3.46 2v4l-3.46 2-3.46-2v-4l3.46-2zm8.66 0 3.46 2v4l-3.46 2-3.46-2v-4l3.46-2zm8.66 0 3.46 2v4l-3.46 2-3.46-2v-4l3.46-2zm8.66 0 3.46 2v4l-3.46 2-3.46-2v-4l3.46-2zm8.66 0 3.46 2v4l-3.46 2-3.46-2v-4l3.46-2zm-136 8l3.46 2v4l-3.46 2-3.46-2v-4l3.46-2zm8.66 0 3.46 2v4l-3.46 2-3.46-2v-4l3.46-2zm8.66 0 3.46 2v4l-3.46 2-3.46-2v-4l3.46-2zm8.66 0 3.46 2v4l-3.46 2-3.46-2v-4l3.46-2zm8.66 0 3.46 2v4l-3.46 2-3.46-2v-4l3.46-2zm8.66 0 3.46 2v4l-3.46 2-3.46-2v-4l3.46-2zm8.66 0 3.46 2v4l-3.46 2-3.46-2v-4l3.46-2zm8.66 0 3.46 2v4l-3.46 2-3.46-2v-4l3.46-2zm8.66 0 3.46 2v4l-3.46 2-3.46-2v-4l3.46-2zm8.66 0 3.46 2v4l-3.46 2-3.46-2v-4l3.46-2zm8.66 0 3.46 2v4l-3.46 2-3.46-2v-4l3.46-2zm8.66 0 3.46 2v4l-3.46 2-3.46-2v-4l3.46-2zm8.66 0 3.46 2v4l-3.46 2-3.46-2v-4l3.46-2zm8.66 0 3.46 2v4l-3.46 2-3.46-2v-4l3.46-2zm8.66 0 3.46 2v4l-3.46 2-3.46-2v-4l3.46-2zm8.66 0 3.46 2v4l-3.46 2-3.46-2v-4l3.46-2zm-126 7.5 3.46 2v4l-3.46 2-3.46-2v-4l3.46-2zm8.66 0 3.46 2v4l-3.46 2-3.46-2v-4l3.46-2zm8.66 0 3.46 2v4l-3.46 2-3.46-2v-4l3.46-2zm8.66 0 3.46 2v4l-3.46 2-3.46-2v-4l3.46-2zm8.66 0 3.46 2v4l-3.46 2-3.46-2v-4l3.46-2zm8.66 0 3.46 2v4l-3.46 2-3.46-2v-4l3.46-2zm8.66 0 3.46 2v4l-3.46 2-3.46-2v-4l3.46-2zm8.66 0 3.46 2v4l-3.46 2-3.46-2v-4l3.46-2zm8.66 0 3.46 2v4l-3.46 2-3.46-2v-4l3.46-2zm8.66 0 3.46 2v4l-3.46 2-3.46-2v-4l3.46-2zm8.66 0 3.46 2v4l-3.46 2-3.46-2v-4l3.46-2zm8.66 0 3.46 2v4l-3.46 2-3.46-2v-4l3.46-2zm8.66 0 3.46 2v4l-3.46 2-3.46-2v-4l3.46-2zm8.66 0 3.46 2v4l-3.46 2-3.46-2v-4l3.46-2zm8.66 0 3.46 2v4l-3.46 2-3.46-2v-4l3.46-2zm8.66 0 3.46 2v4l-3.46 2-3.46-2v-4l3.46-2z"/>
</mask>
<pattern id="a" width="150.53157" patternUnits="userSpaceOnUse" patternTransform="translate(-10.1 -15.5)" height="159.5466">
<path filter="url(#c)" d="m-2-11-3.46 2v4l3.46 2 3.46-2v-4l-3.46-2zm8.66 0-3.46 2v4l3.46 2 3.46-2v-4l-3.46-2zm8.66 0-3.46 2v4l3.46 2 3.46-2v-4l-3.46-2zm8.66 0-3.46 2v4l3.46 2 3.46-2v-4l-3.46-2zm8.66 0-3.46 2v4l3.46 2 3.46-2v-4l-3.46-2zm8.66 0-3.46 2v4l3.46 2 3.46-2v-4l-3.46-2zm8.66 0-3.46 2v4l3.46 2 3.46-2v-4l-3.46-2zm8.66 0-3.46 2v4l3.46 2 3.46-2v-4l-3.46-2zm8.66 0-3.46 2v4l3.46 2 3.46-2v-4l-3.46-2zm8.66 0-3.46 2v4l3.46 2 3.46-2v-4l-3.46-2zm8.66 0-3.46 2v4l3.46 2 3.46-2v-4l-3.46-2zm8.66 0-3.46 2v4l3.46 2 3.46-2v-4l-3.46-2zm8.66 0-3.46 2v4l3.46 2 3.46-2v-4l-3.46-2zm8.66 0-3.46 2v4l3.46 2 3.46-2v-4l-3.46-2zm8.66 0-3.46 2v4l3.46 2 3.46-2v-4l-3.46-2zm8.66 0-3.46 2v4l3.46 2 3.46-2v-4l-3.46-2zm-126 7.5-3.46 2v4l3.46 2 3.46-2v-4l-3.46-2zm8.66 0-3.46 2v4l3.46 2 3.46-2v-4l-3.46-2zm8.66 0-3.46 2v4l3.46 2 3.46-2v-4l-3.46-2zm8.66 0-3.46 2v4l3.46 2 3.46-2v-4l-3.46-2zm8.66 0-3.46 2v4l3.46 2 3.46-2v-4l-3.46-2zm8.66 0-3.46 2v4l3.46 2 3.46-2v-4l-3.46-2zm8.66 0-3.46 2v4l3.46 2 3.46-2v-4l-3.46-2zm8.66 0-3.46 2v4l3.46 2 3.46-2v-4l-3.46-2zm8.66 0-3.46 2v4l3.46 2 3.46-2v-4l-3.46-2zm8.66 0-3.46 2v4l3.46 2 3.46-2v-4l-3.46-2zm8.66 0-3.46 2v4l3.46 2 3.46-2v-4l-3.46-2zm8.66 0-3.46 2v4l3.46 2 3.46-2v-4l-3.46-2zm8.66 0-3.46 2v4l3.46 2 3.46-2v-4l-3.46-2zm8.66 0-3.46 2v4l3.46 2 3.46-2v-4l-3.46-2zm8.66 0-3.46 2v4l3.46 2 3.46-2v-4l-3.46-2zm8.66 0-3.46 2v4l3.46 2 3.46-2v-4l-3.46-2zm-136 7.5l-3.46 2v4l3.46 2 3.46-2v-4l-3.46-2zm8.66 0-3.46 2v4l3.46 2 3.46-2v-4l-3.46-2zm8.66 0-3.46 2v4l3.46 2 3.46-2v-4l-3.46-2zm8.66 0-3.46 2v4l3.46 2 3.46-2v-4l-3.46-2zm8.66 0-3.46 2v4l3.46 2 3.46-2v-4l-3.46-2zm8.66 0-3.46 2v4l3.46 2 3.46-2v-4l-3.46-2zm8.66 0-3.46 2v4l3.46 2 3.46-2v-4l-3.46-2zm8.66 0-3.46 2v4l3.46 2 3.46-2v-4l-3.46-2zm8.66 0-3.46 2v4l3.46 2 3.46-2v-4l-3.46-2zm8.66 0-3.46 2v4l3.46 2 3.46-2v-4l-3.46-2zm8.66 0-3.46 2v4l3.46 2 3.46-2v-4l-3.46-2zm8.66 0-3.46 2v4l3.46 2 3.46-2v-4l-3.46-2zm8.66 0-3.46 2v4l3.46 2 3.46-2v-4l-3.46-2zm8.66 0-3.46 2v4l3.46 2 3.46-2v-4l-3.46-2zm8.66 0-3.46 2v4l3.46 2 3.46-2v-4l-3.46-2zm8.66 0-3.46 2v4l3.46 2 3.46-2v-4l-3.46-2zm-126 7.5-3.46 2v4l3.46 2 3.46-2v-4l-3.46-2zm8.66 0-3.46 2v4l3.46 2 3.46-2v-4l-3.46-2zm8.66 0-3.46 2v4l3.46 2 3.46-2v-4l-3.46-2zm8.66 0-3.46 2v4l3.46 2 3.46-2v-4l-3.46-2zm8.66 0-3.46 2v4l3.46 2 3.46-2v-4l-3.46-2zm8.66 0-3.46 2v4l3.46 2 3.46-2v-4l-3.46-2zm8.66 0-3.46 2v4l3.46 2 3.46-2v-4l-3.46-2zm8.66 0-3.46 2v4l3.46 2 3.46-2v-4l-3.46-2zm8.66 0-3.46 2v4l3.46 2 3.46-2v-4l-3.46-2zm8.66 0-3.46 2v4l3.46 2 3.46-2v-4l-3.46-2zm8.66 0-3.46 2v4l3.46 2 3.46-2v-4l-3.46-2zm8.66 0-3.46 2v4l3.46 2 3.46-2v-4l-3.46-2zm8.66 0-3.46 2v4l3.46 2 3.46-2v-4l-3.46-2zm8.66 0-3.46 2v4l3.46 2 3.46-2v-4l-3.46-2zm8.66 0-3.46 2v4l3.46 2 3.46-2v-4l-3.46-2zm8.66 0-3.46 2v4l3.46 2 3.46-2v-4l-3.46-2zm-136 7.5l-3.46 2v4l3.46 2 3.46-2v-4l-3.46-2zm8.66 0-3.46 2v4l3.46 2 3.46-2v-4l-3.46-2zm8.66 0-3.46 2v4l3.46 2 3.46-2v-4l-3.46-2zm8.66 0-3.46 2v4l3.46 2 3.46-2v-4l-3.46-2zm8.66 0-3.46 2v4l3.46 2 3.46-2v-4l-3.46-2zm8.66 0-3.46 2v4l3.46 2 3.46-2v-4l-3.46-2zm8.66 0-3.46 2v4l3.46 2 3.46-2v-4l-3.46-2zm8.66 0-3.46 2v4l3.46 2 3.46-2v-4l-3.46-2zm8.66 0-3.46 2v4l3.46 2 3.46-2v-4l-3.46-2zm8.66 0-3.46 2v4l3.46 2 3.46-2v-4l-3.46-2zm8.66 0-3.46 2v4l3.46 2 3.46-2v-4l-3.46-2zm8.66 0-3.46 2v4l3.46 2 3.46-2v-4l-3.46-2zm8.66 0-3.46 2v4l3.46 2 3.46-2v-4l-3.46-2zm8.66 0-3.46 2v4l3.46 2 3.46-2v-4l-3.46-2zm8.66 0-3.46 2v4l3.46 2 3.46-2v-4l-3.46-2zm8.66 0-3.46 2v4l3.46 2 3.46-2v-4l-3.46-2zm-126 7.5-3.46 2v4l3.46 2 3.46-2v-4l-3.46-2zm8.66 0-3.46 2v4l3.46 2 3.46-2v-4l-3.46-2zm8.66 0-3.46 2v4l3.46 2 3.46-2v-4l-3.46-2zm8.66 0-3.46 2v4l3.46 2 3.46-2v-4l-3.46-2zm8.66 0-3.46 2v4l3.46 2 3.46-2v-4l-3.46-2zm8.66 0-3.46 2v4l3.46 2 3.46-2v-4l-3.46-2zm8.66 0-3.46 2v4l3.46 2 3.46-2v-4l-3.46-2zm8.66 0-3.46 2v4l3.46 2 3.46-2v-4l-3.46-2zm8.66 0-3.46 2v4l3.46 2 3.46-2v-4l-3.46-2zm8.66 0-3.46 2v4l3.46 2 3.46-2v-4l-3.46-2zm8.66 0-3.46 2v4l3.46 2 3.46-2v-4l-3.46-2zm8.66 0-3.46 2v4l3.46 2 3.46-2v-4l-3.46-2zm8.66 0-3.46 2v4l3.46 2 3.46-2v-4l-3.46-2zm8.66 0-3.46 2v4l3.46 2 3.46-2v-4l-3.46-2zm8.66 0-3.46 2v4l3.46 2 3.46-2v-4l-3.46-2zm8.66 0-3.46 2v4l3.46 2 3.46-2v-4l-3.46-2zm-136 7.5l-3.46 2v4l3.46 2 3.46-2v-4l-3.46-2zm8.66 0-3.46 2v4l3.46 2 3.46-2v-4l-3.46-2zm8.66 0-3.46 2v4l3.46 2 3.46-2v-4l-3.46-2zm8.66 0-3.46 2v4l3.46 2 3.46-2v-4l-3.46-2zm8.66 0-3.46 2v4l3.46 2 3.46-2v-4l-3.46-2zm8.66 0-3.46 2v4l3.46 2 3.46-2v-4l-3.46-2zm8.66 0-3.46 2v4l3.46 2 3.46-2v-4l-3.46-2zm8.66 0-3.46 2v4l3.46 2 3.46-2v-4l-3.46-2zm8.66 0-3.46 2v4l3.46 2 3.46-2v-4l-3.46-2zm8.66 0-3.46 2v4l3.46 2 3.46-2v-4l-3.46-2zm8.66 0-3.46 2v4l3.46 2 3.46-2v-4l-3.46-2zm8.66 0-3.46 2v4l3.46 2 3.46-2v-4l-3.46-2zm8.66 0-3.46 2v4l3.46 2 3.46-2v-4l-3.46-2zm8.66 0-3.46 2v4l3.46 2 3.46-2v-4l-3.46-2zm8.66 0-3.46 2v4l3.46 2 3.46-2v-4l-3.46-2zm8.66 0-3.46 2v4l3.46 2 3.46-2v-4l-3.46-2zm-126 7.5-3.46 2v4l3.46 2 3.46-2v-4l-3.46-2zm8.66 0-3.46 2v4l3.46 2 3.46-2v-4l-3.46-2zm8.66 0-3.46 2v4l3.46 2 3.46-2v-4l-3.46-2zm8.66 0-3.46 2v4l3.46 2 3.46-2v-4l-3.46-2zm8.66 0-3.46 2v4l3.46 2 3.46-2v-4l-3.46-2zm8.66 0-3.46 2v4l3.46 2 3.46-2v-4l-3.46-2zm8.66 0-3.46 2v4l3.46 2 3.46-2v-4l-3.46-2zm8.66 0-3.46 2v4l3.46 2 3.46-2v-4l-3.46-2zm8.66 0-3.46 2v4l3.46 2 3.46-2v-4l-3.46-2zm8.66 0-3.46 2v4l3.46 2 3.46-2v-4l-3.46-2zm8.66 0-3.46 2v4l3.46 2 3.46-2v-4l-3.46-2zm8.66 0-3.46 2v4l3.46 2 3.46-2v-4l-3.46-2zm8.66 0-3.46 2v4l3.46 2 3.46-2v-4l-3.46-2zm8.66 0-3.46 2v4l3.46 2 3.46-2v-4l-3.46-2zm8.66 0-3.46 2v4l3.46 2 3.46-2v-4l-3.46-2zm8.66 0-3.46 2v4l3.46 2 3.46-2v-4l-3.46-2zm-136 7.5l-3.46 2v4l3.46 2 3.46-2v-4l-3.46-2zm8.66 0-3.46 2v4l3.46 2 3.46-2v-4l-3.46-2zm8.66 0-3.46 2v4l3.46 2 3.46-2v-4l-3.46-2zm8.66 0-3.46 2v4l3.46 2 3.46-2v-4l-3.46-2zm8.66 0-3.46 2v4l3.46 2 3.46-2v-4l-3.46-2zm8.66 0-3.46 2v4l3.46 2 3.46-2v-4l-3.46-2zm8.66 0-3.46 2v4l3.46 2 3.46-2v-4l-3.46-2zm8.66 0-3.46 2v4l3.46 2 3.46-2v-4l-3.46-2zm8.66 0-3.46 2v4l3.46 2 3.46-2v-4l-3.46-2zm8.66 0-3.46 2v4l3.46 2 3.46-2v-4l-3.46-2zm8.66 0-3.46 2v4l3.46 2 3.46-2v-4l-3.46-2zm8.66 0-3.46 2v4l3.46 2 3.46-2v-4l-3.46-2zm8.66 0-3.46 2v4l3.46 2 3.46-2v-4l-3.46-2zm8.66 0-3.46 2v4l3.46 2 3.46-2v-4l-3.46-2zm8.66 0-3.46 2v4l3.46 2 3.46-2v-4l-3.46-2zm8.66 0-3.46 2v4l3.46 2 3.46-2v-4l-3.46-2zm-126 7.5-3.46 2v4l3.46 2 3.46-2v-4l-3.46-2zm8.66 0-3.46 2v4l3.46 2 3.46-2v-4l-3.46-2zm8.66 0-3.46 2v4l3.46 2 3.46-2v-4l-3.46-2zm8.66 0-3.46 2v4l3.46 2 3.46-2v-4l-3.46-2zm8.66 0-3.46 2v4l3.46 2 3.46-2v-4l-3.46-2zm8.66 0-3.46 2v4l3.46 2 3.46-2v-4l-3.46-2zm8.66 0-3.46 2v4l3.46 2 3.46-2v-4l-3.46-2zm8.66 0-3.46 2v4l3.46 2 3.46-2v-4l-3.46-2zm8.66 0-3.46 2v4l3.46 2 3.46-2v-4l-3.46-2zm8.66 0-3.46 2v4l3.46 2 3.46-2v-4l-3.46-2zm8.66 0-3.46 2v4l3.46 2 3.46-2v-4l-3.46-2zm8.66 0-3.46 2v4l3.46 2 3.46-2v-4l-3.46-2zm8.66 0-3.46 2v4l3.46 2 3.46-2v-4l-3.46-2zm8.66 0-3.46 2v4l3.46 2 3.46-2v-4l-3.46-2zm8.66 0-3.46 2v4l3.46 2 3.46-2v-4l-3.46-2zm8.66 0-3.46 2v4l3.46 2 3.46-2v-4l-3.46-2zm-136 7.5l-3.46 2v4l3.46 2 3.46-2v-4l-3.46-2zm8.66 0-3.46 2v4l3.46 2 3.46-2v-4l-3.46-2zm8.66 0-3.46 2v4l3.46 2 3.46-2v-4l-3.46-2zm8.66 0-3.46 2v4l3.46 2 3.46-2v-4l-3.46-2zm8.66 0-3.46 2v4l3.46 2 3.46-2v-4l-3.46-2zm8.66 0-3.46 2v4l3.46 2 3.46-2v-4l-3.46-2zm8.66 0-3.46 2v4l3.46 2 3.46-2v-4l-3.46-2zm8.66 0-3.46 2v4l3.46 2 3.46-2v-4l-3.46-2zm8.66 0-3.46 2v4l3.46 2 3.46-2v-4l-3.46-2zm8.66 0-3.46 2v4l3.46 2 3.46-2v-4l-3.46-2zm8.66 0-3.46 2v4l3.46 2 3.46-2v-4l-3.46-2zm8.66 0-3.46 2v4l3.46 2 3.46-2v-4l-3.46-2zm8.66 0-3.46 2v4l3.46 2 3.46-2v-4l-3.46-2zm8.66 0-3.46 2v4l3.46 2 3.46-2v-4l-3.46-2zm8.66 0-3.46 2v4l3.46 2 3.46-2v-4l-3.46-2zm8.66 0-3.46 2v4l3.46 2 3.46-2v-4l-3.46-2zm-126 7.5-3.46 2v4l3.46 2 3.46-2v-4l-3.46-2zm8.66 0-3.46 2v4l3.46 2 3.46-2v-4l-3.46-2zm8.66 0-3.46 2v4l3.46 2 3.46-2v-4l-3.46-2zm8.66 0-3.46 2v4l3.46 2 3.46-2v-4l-3.46-2zm8.66 0-3.46 2v4l3.46 2 3.46-2v-4l-3.46-2zm8.66 0-3.46 2v4l3.46 2 3.46-2v-4l-3.46-2zm8.66 0-3.46 2v4l3.46 2 3.46-2v-4l-3.46-2zm8.66 0-3.46 2v4l3.46 2 3.46-2v-4l-3.46-2zm8.66 0-3.46 2v4l3.46 2 3.46-2v-4l-3.46-2zm8.66 0-3.46 2v4l3.46 2 3.46-2v-4l-3.46-2zm8.66 0-3.46 2v4l3.46 2 3.46-2v-4l-3.46-2zm8.66 0-3.46 2v4l3.46 2 3.46-2v-4l-3.46-2zm8.66 0-3.46 2v4l3.46 2 3.46-2v-4l-3.46-2zm8.66 0-3.46 2v4l3.46 2 3.46-2v-4l-3.46-2zm8.66 0-3.46 2v4l3.46 2 3.46-2v-4l-3.46-2zm8.66 0-3.46 2v4l3.46 2 3.46-2v-4l-3.46-2zm-136 7.5l-3.46 2v4l3.46 2 3.46-2v-4l-3.46-2zm8.66 0-3.46 2v4l3.46 2 3.46-2v-4l-3.46-2zm8.66 0-3.46 2v4l3.46 2 3.46-2v-4l-3.46-2zm8.66 0-3.46 2v4l3.46 2 3.46-2v-4l-3.46-2zm8.66 0-3.46 2v4l3.46 2 3.46-2v-4l-3.46-2zm8.66 0-3.46 2v4l3.46 2 3.46-2v-4l-3.46-2zm8.66 0-3.46 2v4l3.46 2 3.46-2v-4l-3.46-2zm8.66 0-3.46 2v4l3.46 2 3.46-2v-4l-3.46-2zm8.66 0-3.46 2v4l3.46 2 3.46-2v-4l-3.46-2zm8.66 0-3.46 2v4l3.46 2 3.46-2v-4l-3.46-2zm8.66 0-3.46 2v4l3.46 2 3.46-2v-4l-3.46-2zm8.66 0-3.46 2v4l3.46 2 3.46-2v-4l-3.46-2zm8.66 0-3.46 2v4l3.46 2 3.46-2v-4l-3.46-2zm8.66 0-3.46 2v4l3.46 2 3.46-2v-4l-3.46-2zm8.66 0-3.46 2v4l3.46 2 3.46-2v-4l-3.46-2zm8.66 0-3.46 2v4l3.46 2 3.46-2v-4l-3.46-2zm-126 7.5-3.46 2v4l3.46 2 3.46-2v-4l-3.46-2zm8.66 0-3.46 2v4l3.46 2 3.46-2v-4l-3.46-2zm8.66 0-3.46 2v4l3.46 2 3.46-2v-4l-3.46-2zm8.66 0-3.46 2v4l3.46 2 3.46-2v-4l-3.46-2zm8.66 0-3.46 2v4l3.46 2 3.46-2v-4l-3.46-2zm8.66 0-3.46 2v4l3.46 2 3.46-2v-4l-3.46-2zm8.66 0-3.46 2v4l3.46 2 3.46-2v-4l-3.46-2zm8.66 0-3.46 2v4l3.46 2 3.46-2v-4l-3.46-2zm8.66 0-3.46 2v4l3.46 2 3.46-2v-4l-3.46-2zm8.66 0-3.46 2v4l3.46 2 3.46-2v-4l-3.46-2zm8.66 0-3.46 2v4l3.46 2 3.46-2v-4l-3.46-2zm8.66 0-3.46 2v4l3.46 2 3.46-2v-4l-3.46-2zm8.66 0-3.46 2v4l3.46 2 3.46-2v-4l-3.46-2zm8.66 0-3.46 2v4l3.46 2 3.46-2v-4l-3.46-2zm8.66 0-3.46 2v4l3.46 2 3.46-2v-4l-3.46-2zm8.66 0-3.46 2v4l3.46 2 3.46-2v-4l-3.46-2zm-136 7.5l-3.46 2v4l3.46 2 3.46-2v-4l-3.46-2zm8.66 0-3.46 2v4l3.46 2 3.46-2v-4l-3.46-2zm8.66 0-3.46 2v4l3.46 2 3.46-2v-4l-3.46-2zm8.66 0-3.46 2v4l3.46 2 3.46-2v-4l-3.46-2zm8.66 0-3.46 2v4l3.46 2 3.46-2v-4l-3.46-2zm8.66 0-3.46 2v4l3.46 2 3.46-2v-4l-3.46-2zm8.66 0-3.46 2v4l3.46 2 3.46-2v-4l-3.46-2zm8.66 0-3.46 2v4l3.46 2 3.46-2v-4l-3.46-2zm8.66 0-3.46 2v4l3.46 2 3.46-2v-4l-3.46-2zm8.66 0-3.46 2v4l3.46 2 3.46-2v-4l-3.46-2zm8.66 0-3.46 2v4l3.46 2 3.46-2v-4l-3.46-2zm8.66 0-3.46 2v4l3.46 2 3.46-2v-4l-3.46-2zm8.66 0-3.46 2v4l3.46 2 3.46-2v-4l-3.46-2zm8.66 0-3.46 2v4l3.46 2 3.46-2v-4l-3.46-2zm8.66 0-3.46 2v4l3.46 2 3.46-2v-4l-3.46-2zm8.66 0-3.46 2v4l3.46 2 3.46-2v-4l-3.46-2zm-126 7.5-3.46 2v4l3.46 2 3.46-2v-4l-3.46-2zm8.66 0-3.46 2v4l3.46 2 3.46-2v-4l-3.46-2zm8.66 0-3.46 2v4l3.46 2 3.46-2v-4l-3.46-2zm8.66 0-3.46 2v4l3.46 2 3.46-2v-4l-3.46-2zm8.66 0-3.46 2v4l3.46 2 3.46-2v-4l-3.46-2zm8.66 0-3.46 2v4l3.46 2 3.46-2v-4l-3.46-2zm8.66 0-3.46 2v4l3.46 2 3.46-2v-4l-3.46-2zm8.66 0-3.46 2v4l3.46 2 3.46-2v-4l-3.46-2zm8.66 0-3.46 2v4l3.46 2 3.46-2v-4l-3.46-2zm8.66 0-3.46 2v4l3.46 2 3.46-2v-4l-3.46-2zm8.66 0-3.46 2v4l3.46 2 3.46-2v-4l-3.46-2zm8.66 0-3.46 2v4l3.46 2 3.46-2v-4l-3.46-2zm8.66 0-3.46 2v4l3.46 2 3.46-2v-4l-3.46-2zm8.66 0-3.46 2v4l3.46 2 3.46-2v-4l-3.46-2zm8.66 0-3.46 2v4l3.46 2 3.46-2v-4l-3.46-2zm8.66 0-3.46 2v4l3.46 2 3.46-2v-4l-3.46-2zm-136 7l-3.46 2v4l3.46 2 3.46-2v-4l-3.46-2zm8.66 0-3.46 2v4l3.46 2 3.46-2v-4l-3.46-2zm8.66 0-3.46 2v4l3.46 2 3.46-2v-4l-3.46-2zm8.66 0-3.46 2v4l3.46 2 3.46-2v-4l-3.46-2zm8.66 0-3.46 2v4l3.46 2 3.46-2v-4l-3.46-2zm8.66 0-3.46 2v4l3.46 2 3.46-2v-4l-3.46-2zm8.66 0-3.46 2v4l3.46 2 3.46-2v-4l-3.46-2zm8.66 0-3.46 2v4l3.46 2 3.46-2v-4l-3.46-2zm8.66 0-3.46 2v4l3.46 2 3.46-2v-4l-3.46-2zm8.66 0-3.46 2v4l3.46 2 3.46-2v-4l-3.46-2zm8.66 0-3.46 2v4l3.46 2 3.46-2v-4l-3.46-2zm8.66 0-3.46 2v4l3.46 2 3.46-2v-4l-3.46-2zm8.66 0-3.46 2v4l3.46 2 3.46-2v-4l-3.46-2zm8.66 0-3.46 2v4l3.46 2 3.46-2v-4l-3.46-2zm8.66 0-3.46 2v4l3.46 2 3.46-2v-4l-3.46-2zm8.66 0-3.46 2v4l3.46 2 3.46-2v-4l-3.46-2zm-126 7.5-3.46 2v4l3.46 2 3.46-2v-4l-3.46-2zm8.66 0-3.46 2v4l3.46 2 3.46-2v-4l-3.46-2zm8.66 0-3.46 2v4l3.46 2 3.46-2v-4l-3.46-2zm8.66 0-3.46 2v4l3.46 2 3.46-2v-4l-3.46-2zm8.66 0-3.46 2v4l3.46 2 3.46-2v-4l-3.46-2zm8.66 0-3.46 2v4l3.46 2 3.46-2v-4l-3.46-2zm8.66 0-3.46 2v4l3.46 2 3.46-2v-4l-3.46-2zm8.66 0-3.46 2v4l3.46 2 3.46-2v-4l-3.46-2zm8.66 0-3.46 2v4l3.46 2 3.46-2v-4l-3.46-2zm8.66 0-3.46 2v4l3.46 2 3.46-2v-4l-3.46-2zm8.66 0-3.46 2v4l3.46 2 3.46-2v-4l-3.46-2zm8.66 0-3.46 2v4l3.46 2 3.46-2v-4l-3.46-2zm8.66 0-3.46 2v4l3.46 2 3.46-2v-4l-3.46-2zm8.66 0-3.46 2v4l3.46 2 3.46-2v-4l-3.46-2zm8.66 0-3.46 2v4l3.46 2 3.46-2v-4l-3.46-2zm8.66 0-3.46 2v4l3.46 2 3.46-2v-4l-3.46-2zm-136 8l-3.46 2v4l3.46 2 3.46-2v-4l-3.46-2zm8.66 0-3.46 2v4l3.46 2 3.46-2v-4l-3.46-2zm8.66 0-3.46 2v4l3.46 2 3.46-2v-4l-3.46-2zm8.66 0-3.46 2v4l3.46 2 3.46-2v-4l-3.46-2zm8.66 0-3.46 2v4l3.46 2 3.46-2v-4l-3.46-2zm8.66 0-3.46 2v4l3.46 2 3.46-2v-4l-3.46-2zm8.66 0-3.46 2v4l3.46 2 3.46-2v-4l-3.46-2zm8.66 0-3.46 2v4l3.46 2 3.46-2v-4l-3.46-2zm8.66 0-3.46 2v4l3.46 2 3.46-2v-4l-3.46-2zm8.66 0-3.46 2v4l3.46 2 3.46-2v-4l-3.46-2zm8.66 0-3.46 2v4l3.46 2 3.46-2v-4l-3.46-2zm8.66 0-3.46 2v4l3.46 2 3.46-2v-4l-3.46-2zm8.66 0-3.46 2v4l3.46 2 3.46-2v-4l-3.46-2zm8.66 0-3.46 2v4l3.46 2 3.46-2v-4l-3.46-2zm8.66 0-3.46 2v4l3.46 2 3.46-2v-4l-3.46-2zm8.66 0-3.46 2v4l3.46 2 3.46-2v-4l-3.46-2zm-126 7.5-3.46 2v4l3.46 2 3.46-2v-4l-3.46-2zm8.66 0-3.46 2v4l3.46 2 3.46-2v-4l-3.46-2zm8.66 0-3.46 2v4l3.46 2 3.46-2v-4l-3.46-2zm8.66 0-3.46 2v4l3.46 2 3.46-2v-4l-3.46-2zm8.66 0-3.46 2v4l3.46 2 3.46-2v-4l-3.46-2zm8.66 0-3.46 2v4l3.46 2 3.46-2v-4l-3.46-2zm8.66 0-3.46 2v4l3.46 2 3.46-2v-4l-3.46-2zm8.66 0-3.46 2v4l3.46 2 3.46-2v-4l-3.46-2zm8.66 0-3.46 2v4l3.46 2 3.46-2v-4l-3.46-2zm8.66 0-3.46 2v4l3.46 2 3.46-2v-4l-3.46-2zm8.66 0-3.46 2v4l3.46 2 3.46-2v-4l-3.46-2zm8.66 0-3.46 2v4l3.46 2 3.46-2v-4l-3.46-2zm8.66 0-3.46 2v4l3.46 2 3.46-2v-4l-3.46-2zm8.66 0-3.46 2v4l3.46 2 3.46-2v-4l-3.46-2zm8.66 0-3.46 2v4l3.46 2 3.46-2v-4l-3.46-2zm8.66 0-3.46 2v4l3.46 2 3.46-2v-4l-3.46-2z" fill-rule="evenodd" mask="url(#b)" transform="matrix(.999 .0390 -.0390 .999 12.7 13)"/>
</pattern>
</defs>
<rect height="160" width="151" y="-15.5" x="-10.1" fill="url(#a)"/>
<rect height="160" width="151" y="-15.5" x="-10.1" fill="url(#a)"/>
</svg>
