<?xml version="1.0" encoding="UTF-8" standalone="no"?>
<svg xmlns:rdf="http://www.w3.org/1999/02/22-rdf-syntax-ns#" xmlns="http://www.w3.org/2000/svg" height="48" width="128" version="1.1" xmlns:cc="http://creativecommons.org/ns#" xmlns:dc="http://purl.org/dc/elements/1.1/" viewBox="0 0 128 48">
<defs>
<filter id="d" style="color-interpolation-filters:sRGB">
<feFlood result="flood" flood-opacity=".753" flood-color="rgb(0,0,0)"/>
<feComposite operator="in" result="composite1" in2="SourceGraphic" in="flood"/>
<feGaussianBlur stdDeviation="0" result="blur" in="composite1"/>
<feOffset result="offset" dx="0" dy="2"/>
<feComposite operator="over" result="composite2" in2="offset" in="SourceGraphic"/>
</filter>
<filter id="c" style="color-interpolation-filters:sRGB">
<feFlood result="flood" flood-opacity=".753" flood-color="rgb(0,0,0)"/>
<feComposite operator="in" result="composite1" in2="SourceGraphic" in="flood"/>
<feGaussianBlur stdDeviation="0" result="blur" in="composite1"/>
<feOffset result="offset" dx="0" dy="2"/>
<feComposite operator="over" result="composite2" in2="offset" in="SourceGraphic"/>
</filter>
<filter id="b" style="color-interpolation-filters:sRGB">
<feFlood result="flood" flood-opacity=".753" flood-color="rgb(0,0,0)"/>
<feComposite operator="in" result="composite1" in2="SourceGraphic" in="flood"/>
<feGaussianBlur stdDeviation="0" result="blur" in="composite1"/>
<feOffset result="offset" dx="0" dy="2"/>
<feComposite operator="over" result="composite2" in2="offset" in="SourceGraphic"/>
</filter>
<filter id="a" style="color-interpolation-filters:sRGB">
<feFlood result="flood" flood-opacity=".753" flood-color="rgb(0,0,0)"/>
<feComposite operator="in" result="composite1" in2="SourceGraphic" in="flood"/>
<feGaussianBlur stdDeviation="0" result="blur" in="composite1"/>
<feOffset result="offset" dx="0" dy="2"/>
<feComposite operator="over" result="composite2" in2="offset" in="SourceGraphic"/>
</filter>
</defs>
<g transform="translate(19 -988)">
<g fill="#0080ff" transform="translate(-91)">
<path d="m110 996v32h24v-4h-20v-24h20v-4h-24z" filter="url(#a)"/>
<g filter="url(#b)" transform="translate(0 -8)">
<rect height="4" width="24" y="1e3" x="136"/>
<rect height="4" width="24" y="1.03e3" x="136"/>
<rect height="4" width="24" y="1.02e3" x="136"/>
</g>
<g transform="translate(-6,-8)" filter="url(#c)">
<path d="m78 0v32h4v-16-8.45-3.55h10a6 6 0 0 1 6 6 6 6 0 0 1 -6 6v0.0039l-0.002-0.0039h-4.72l10 16h4.72l-7.68-12.3a10 10 0 0 0 7.7 -9.7 10 10 0 0 0 -10 -10h-10-4z" transform="translate(90 1e3)" fill="#0080ff"/>
</g>
<path d="m104 996-20 32h4.72l15.3-30v8.45h-2.92l-2.5 4h5.42v12h4v-32h-4z" filter="url(#d)"/>
</g>
</g>
</svg>
