<?xml version="1.0" encoding="UTF-8" standalone="no"?>
<!-- Created with Inkscape (http://www.inkscape.org/) -->

<svg
   xmlns:dc="http://purl.org/dc/elements/1.1/"
   xmlns:cc="http://creativecommons.org/ns#"
   xmlns:rdf="http://www.w3.org/1999/02/22-rdf-syntax-ns#"
   xmlns:svg="http://www.w3.org/2000/svg"
   xmlns="http://www.w3.org/2000/svg"
   xmlns:xlink="http://www.w3.org/1999/xlink"
   xmlns:sodipodi="http://sodipodi.sourceforge.net/DTD/sodipodi-0.dtd"
   xmlns:inkscape="http://www.inkscape.org/namespaces/inkscape"
   width="64"
   height="16"
   viewBox="0 0 63.999999 16"
   id="svg4674"
   version="1.1"
   inkscape:version="0.91 r13725"
   sodipodi:docname="topicon.svg"
   inkscape:export-filename="/home/acerspyro/Documents/usericon.png"
   inkscape:export-xdpi="720"
   inkscape:export-ydpi="720">
  <defs
     id="defs4676">
    <linearGradient
       inkscape:collect="always"
       id="linearGradient5310">
      <stop
         style="stop-color:#1967ff;stop-opacity:1"
         offset="0"
         id="stop5312" />
      <stop
         style="stop-color:#1967ff;stop-opacity:0"
         offset="1"
         id="stop5314" />
    </linearGradient>
    <linearGradient
       inkscape:collect="always"
       id="linearGradient5270">
      <stop
         style="stop-color:#3c3c3c;stop-opacity:1"
         offset="0"
         id="stop5272" />
      <stop
         style="stop-color:#0a0a0a;stop-opacity:1"
         offset="1"
         id="stop5274" />
    </linearGradient>
    <radialGradient
       inkscape:collect="always"
       xlink:href="#linearGradient5270"
       id="radialGradient5276"
       cx="28.999989"
       cy="974.96216"
       fx="28.999989"
       fy="974.96216"
       r="29"
       gradientTransform="matrix(0.99999957,-3.3647871e-8,1.9724614e-8,0.58620671,5.2553477e-6,417.83279)"
       gradientUnits="userSpaceOnUse" />
    <radialGradient
       inkscape:collect="always"
       xlink:href="#linearGradient5270"
       id="radialGradient5278"
       gradientUnits="userSpaceOnUse"
       gradientTransform="matrix(0.99999957,-3.3647871e-8,1.9724614e-8,0.58620671,5.2553477e-6,417.83279)"
       cx="28.999989"
       cy="974.96216"
       fx="28.999989"
       fy="974.96216"
       r="29" />
    <radialGradient
       inkscape:collect="always"
       xlink:href="#linearGradient5270"
       id="radialGradient5280"
       gradientUnits="userSpaceOnUse"
       gradientTransform="matrix(0.99999957,-3.3647871e-8,1.9724614e-8,0.58620671,5.2553477e-6,417.83279)"
       cx="28.999989"
       cy="974.96216"
       fx="28.999989"
       fy="974.96216"
       r="29" />
    <radialGradient
       inkscape:collect="always"
       xlink:href="#linearGradient5270"
       id="radialGradient5282"
       gradientUnits="userSpaceOnUse"
       gradientTransform="matrix(0.99999957,-3.3647871e-8,1.9724614e-8,0.58620671,5.2553477e-6,417.83279)"
       cx="28.999989"
       cy="974.96216"
       fx="28.999989"
       fy="974.96216"
       r="29" />
    <radialGradient
       inkscape:collect="always"
       xlink:href="#linearGradient5270"
       id="radialGradient5284"
       gradientUnits="userSpaceOnUse"
       gradientTransform="matrix(0.99999957,-3.3647871e-8,1.9724614e-8,0.58620671,5.2553477e-6,417.83279)"
       cx="28.999989"
       cy="974.96216"
       fx="28.999989"
       fy="974.96216"
       r="29" />
    <radialGradient
       inkscape:collect="always"
       xlink:href="#linearGradient5270"
       id="radialGradient5286"
       gradientUnits="userSpaceOnUse"
       gradientTransform="matrix(0.99999957,-3.3647871e-8,1.9724614e-8,0.58620671,5.2553477e-6,417.83279)"
       cx="28.999989"
       cy="974.96216"
       fx="28.999989"
       fy="974.96216"
       r="29" />
    <radialGradient
       inkscape:collect="always"
       xlink:href="#linearGradient5270"
       id="radialGradient5288"
       gradientUnits="userSpaceOnUse"
       gradientTransform="matrix(0.99999957,-3.3647871e-8,1.9724614e-8,0.58620671,5.2553477e-6,417.83279)"
       cx="28.999989"
       cy="974.96216"
       fx="28.999989"
       fy="974.96216"
       r="29" />
    <radialGradient
       inkscape:collect="always"
       xlink:href="#linearGradient5270"
       id="radialGradient5290"
       gradientUnits="userSpaceOnUse"
       gradientTransform="matrix(0.99999957,-3.3647871e-8,1.9724614e-8,0.58620671,5.2553477e-6,417.83279)"
       cx="28.999989"
       cy="974.96216"
       fx="28.999989"
       fy="974.96216"
       r="29" />
    <radialGradient
       inkscape:collect="always"
       xlink:href="#linearGradient5270"
       id="radialGradient5292"
       gradientUnits="userSpaceOnUse"
       gradientTransform="matrix(0.99999957,-3.3647871e-8,1.9724614e-8,0.58620671,5.2553477e-6,417.83279)"
       cx="28.999989"
       cy="974.96216"
       fx="28.999989"
       fy="974.96216"
       r="29" />
    <radialGradient
       inkscape:collect="always"
       xlink:href="#linearGradient5270"
       id="radialGradient5294"
       gradientUnits="userSpaceOnUse"
       gradientTransform="matrix(0.99999957,-3.3647871e-8,1.9724614e-8,0.58620671,5.2553477e-6,417.83279)"
       cx="28.999989"
       cy="974.96216"
       fx="28.999989"
       fy="974.96216"
       r="29" />
    <radialGradient
       inkscape:collect="always"
       xlink:href="#linearGradient5270"
       id="radialGradient5296"
       gradientUnits="userSpaceOnUse"
       gradientTransform="matrix(0.99999957,-3.3647871e-8,1.9724614e-8,0.58620671,5.2553477e-6,417.83279)"
       cx="28.999989"
       cy="974.96216"
       fx="28.999989"
       fy="974.96216"
       r="29" />
    <radialGradient
       inkscape:collect="always"
       xlink:href="#linearGradient5270"
       id="radialGradient5298"
       gradientUnits="userSpaceOnUse"
       gradientTransform="matrix(0.99999957,-3.3647871e-8,1.9724614e-8,0.58620671,5.2553477e-6,417.83279)"
       cx="28.999989"
       cy="974.96216"
       fx="28.999989"
       fy="974.96216"
       r="29" />
    <radialGradient
       inkscape:collect="always"
       xlink:href="#linearGradient5310"
       id="radialGradient5316"
       cx="29"
       cy="992.36218"
       fx="29"
       fy="992.36218"
       r="29.099995"
       gradientTransform="matrix(1.9243991,0,0,0.1408935,-26.807572,852.54478)"
       gradientUnits="userSpaceOnUse" />
    <filter
       inkscape:collect="always"
       style="color-interpolation-filters:sRGB"
       id="filter5494"
       x="-0.068275861"
       width="1.1365517"
       y="-0.495"
       height="1.99">
      <feGaussianBlur
         inkscape:collect="always"
         stdDeviation="1.65"
         id="feGaussianBlur5496" />
    </filter>
    <radialGradient
       inkscape:collect="always"
       xlink:href="#linearGradient5310"
       id="radialGradient5592"
       gradientUnits="userSpaceOnUse"
       gradientTransform="matrix(1.9243991,0,0,0.1408935,-26.807572,852.54478)"
       cx="29"
       cy="992.36218"
       fx="29"
       fy="992.36218"
       r="29.099995" />
    <radialGradient
       inkscape:collect="always"
       xlink:href="#linearGradient5310"
       id="radialGradient5594"
       gradientUnits="userSpaceOnUse"
       gradientTransform="matrix(1.9243991,0,0,0.1408935,-26.807572,852.54478)"
       cx="29"
       cy="992.36218"
       fx="29"
       fy="992.36218"
       r="29.099995" />
    <radialGradient
       inkscape:collect="always"
       xlink:href="#linearGradient5310"
       id="radialGradient5596"
       gradientUnits="userSpaceOnUse"
       gradientTransform="matrix(1.9243991,0,0,0.1408935,-26.807572,852.54478)"
       cx="29"
       cy="992.36218"
       fx="29"
       fy="992.36218"
       r="29.099995" />
    <radialGradient
       inkscape:collect="always"
       xlink:href="#linearGradient5310"
       id="radialGradient5598"
       gradientUnits="userSpaceOnUse"
       gradientTransform="matrix(1.9243991,0,0,0.1408935,-26.807572,852.54478)"
       cx="29"
       cy="992.36218"
       fx="29"
       fy="992.36218"
       r="29.099995" />
    <radialGradient
       inkscape:collect="always"
       xlink:href="#linearGradient5310"
       id="radialGradient5600"
       gradientUnits="userSpaceOnUse"
       gradientTransform="matrix(1.9243991,0,0,0.1408935,-26.807572,852.54478)"
       cx="29"
       cy="992.36218"
       fx="29"
       fy="992.36218"
       r="29.099995" />
    <radialGradient
       inkscape:collect="always"
       xlink:href="#linearGradient5310"
       id="radialGradient5602"
       gradientUnits="userSpaceOnUse"
       gradientTransform="matrix(1.9243991,0,0,0.1408935,-26.807572,852.54478)"
       cx="29"
       cy="992.36218"
       fx="29"
       fy="992.36218"
       r="29.099995" />
    <radialGradient
       inkscape:collect="always"
       xlink:href="#linearGradient5310"
       id="radialGradient5604"
       gradientUnits="userSpaceOnUse"
       gradientTransform="matrix(1.9243991,0,0,0.1408935,-26.807572,852.54478)"
       cx="29"
       cy="992.36218"
       fx="29"
       fy="992.36218"
       r="29.099995" />
    <radialGradient
       inkscape:collect="always"
       xlink:href="#linearGradient5310"
       id="radialGradient5606"
       gradientUnits="userSpaceOnUse"
       gradientTransform="matrix(1.9243991,0,0,0.1408935,-26.807572,852.54478)"
       cx="29"
       cy="992.36218"
       fx="29"
       fy="992.36218"
       r="29.099995" />
    <radialGradient
       inkscape:collect="always"
       xlink:href="#linearGradient5310"
       id="radialGradient5608"
       gradientUnits="userSpaceOnUse"
       gradientTransform="matrix(1.9243991,0,0,0.1408935,-26.807572,852.54478)"
       cx="29"
       cy="992.36218"
       fx="29"
       fy="992.36218"
       r="29.099995" />
    <radialGradient
       inkscape:collect="always"
       xlink:href="#linearGradient5310"
       id="radialGradient5610"
       gradientUnits="userSpaceOnUse"
       gradientTransform="matrix(1.9243991,0,0,0.1408935,-26.807572,852.54478)"
       cx="29"
       cy="992.36218"
       fx="29"
       fy="992.36218"
       r="29.099995" />
    <radialGradient
       inkscape:collect="always"
       xlink:href="#linearGradient5310"
       id="radialGradient5612"
       gradientUnits="userSpaceOnUse"
       gradientTransform="matrix(1.9243991,0,0,0.1408935,-26.807572,852.54478)"
       cx="29"
       cy="992.36218"
       fx="29"
       fy="992.36218"
       r="29.099995" />
  </defs>
  <sodipodi:namedview
     id="base"
     pagecolor="#ffffff"
     bordercolor="#666666"
     borderopacity="1.0"
     inkscape:pageopacity="0.0"
     inkscape:pageshadow="2"
     inkscape:zoom="7.919596"
     inkscape:cx="11.244297"
     inkscape:cy="15.383878"
     inkscape:document-units="px"
     inkscape:current-layer="g4243"
     showgrid="true"
     units="px"
     inkscape:snap-intersection-paths="true"
     inkscape:object-nodes="true"
     inkscape:window-width="1440"
     inkscape:window-height="836"
     inkscape:window-x="0"
     inkscape:window-y="27"
     inkscape:window-maximized="1">
    <inkscape:grid
       type="xygrid"
       id="grid4682"
       empspacing="8" />
  </sodipodi:namedview>
  <metadata
     id="metadata4679">
    <rdf:RDF>
      <cc:Work
         rdf:about="">
        <dc:format>image/svg+xml</dc:format>
        <dc:type
           rdf:resource="http://purl.org/dc/dcmitype/StillImage" />
        <dc:title />
      </cc:Work>
    </rdf:RDF>
  </metadata>
  <g
     inkscape:label="Layer 1"
     inkscape:groupmode="layer"
     id="layer1"
     transform="translate(0,-1036.3622)">
    <g
       id="g4243"
       transform="translate(0,24)">
      <g
         id="g4205"
         style="fill:#0046c8;fill-opacity:1;stroke:none;stroke-width:0.2;stroke-linecap:square;stroke-linejoin:round;stroke-miterlimit:4;stroke-dasharray:none;stroke-opacity:1;filter:url(#filter5494)"
         transform="matrix(0.99259229,0,0,0.99259229,3.2296284,35.353203)">
        <path
           inkscape:connector-curvature="0"
           id="path4207"
           d="m 0,996.36216 4,-8 2,0 0,8 -2,0 0,-4 -2,4 z"
           style="fill:#0046c8;fill-opacity:1;fill-rule:evenodd;stroke:none;stroke-width:0.2;stroke-linecap:square;stroke-linejoin:round;stroke-miterlimit:4;stroke-dasharray:none;stroke-opacity:1" />
        <path
           inkscape:connector-curvature="0"
           id="path4209"
           d="m 13,996.36216 -6,0 0,-8 6,0 0,2 -4,0 0,4 4,0 z"
           style="fill:#0046c8;fill-opacity:1;fill-rule:evenodd;stroke:none;stroke-width:0.2;stroke-linecap:square;stroke-linejoin:round;stroke-miterlimit:4;stroke-dasharray:none;stroke-opacity:1" />
        <path
           inkscape:connector-curvature="0"
           id="path4211"
           d="m 14,988.36216 6,0 c 0,0 0,2 0,2 l -6,0 z"
           style="fill:#0046c8;fill-opacity:1;fill-rule:evenodd;stroke:none;stroke-width:0.2;stroke-linecap:square;stroke-linejoin:round;stroke-miterlimit:4;stroke-dasharray:none;stroke-opacity:1" />
        <path
           inkscape:connector-curvature="0"
           id="path4213"
           d="m 14,991.36216 6,0 0,2 -6,0 z"
           style="fill:#0046c8;fill-opacity:1;fill-rule:evenodd;stroke:none;stroke-width:0.2;stroke-linecap:square;stroke-linejoin:round;stroke-miterlimit:4;stroke-dasharray:none;stroke-opacity:1" />
        <path
           inkscape:connector-curvature="0"
           id="path4215"
           d="m 14,994.36216 6,0 0,2 -6,0 z"
           style="fill:#0046c8;fill-opacity:1;fill-rule:evenodd;stroke:none;stroke-width:0.2;stroke-linecap:square;stroke-linejoin:round;stroke-miterlimit:4;stroke-dasharray:none;stroke-opacity:1" />
        <path
           style="fill:#0046c8;fill-opacity:1;fill-rule:evenodd;stroke:none;stroke-width:0.2;stroke-linecap:square;stroke-linejoin:round;stroke-miterlimit:4;stroke-dasharray:none;stroke-opacity:1"
           d="m 27,996.36216 -4,-8 -2,0 0,8 2,0 0,-4 2,4 z"
           id="path4217"
           inkscape:connector-curvature="0" />
        <path
           inkscape:connector-curvature="0"
           id="path4219"
           d="m 28,996.36216 6,0 -2.5,-5 -4,0 -0.5,-1 4,0 -1,-2 -6,0 2.5,5 4,0 0.5,1 -4,0 z"
           style="fill:#0046c8;fill-opacity:1;fill-rule:evenodd;stroke:none;stroke-width:0.2;stroke-linecap:square;stroke-linejoin:round;stroke-miterlimit:4;stroke-dasharray:none;stroke-opacity:1" />
        <path
           sodipodi:nodetypes="ccccccccccccc"
           inkscape:connector-curvature="0"
           id="path4221"
           d="m 31,988.36216 4,0 c 1,0 2.5,1 3,2 l 0.5,1 c 0.5,1 0,2 -1,2 l -1,0 -1,-2 1,0 -0.5,-1 -2,0 3,6 -2,0 z"
           style="fill:#0046c8;fill-opacity:1;fill-rule:evenodd;stroke:none;stroke-width:0.2;stroke-linecap:square;stroke-linejoin:round;stroke-miterlimit:4;stroke-dasharray:none;stroke-opacity:1" />
        <path
           inkscape:connector-curvature="0"
           id="path4223"
           d="m 38,988.36216 4,8 2,0 0,-8 -2,0 0,4 -2,-4 z"
           style="fill:#0046c8;fill-opacity:1;fill-rule:evenodd;stroke:none;stroke-width:0.2;stroke-linecap:square;stroke-linejoin:round;stroke-miterlimit:4;stroke-dasharray:none;stroke-opacity:1" />
        <path
           inkscape:connector-curvature="0"
           id="path4225"
           d="m 51,996.36216 -4,-8 -2,0 0,8 2,0 0,-4 2,4 z"
           style="fill:#0046c8;fill-opacity:1;fill-rule:evenodd;stroke:none;stroke-width:0.2;stroke-linecap:square;stroke-linejoin:round;stroke-miterlimit:4;stroke-dasharray:none;stroke-opacity:1" />
        <path
           inkscape:connector-curvature="0"
           id="path4227"
           d="m 48,988.36216 4,8 6,0 -4,-8 -6,0 z m 3,2 2,0 2,4 -2,0 -2,-4 z"
           style="fill:#0046c8;fill-opacity:1;fill-rule:evenodd;stroke:none;stroke-width:0.2;stroke-linecap:square;stroke-linejoin:round;stroke-miterlimit:4;stroke-dasharray:none;stroke-opacity:1" />
      </g>
      <g
         transform="matrix(0.99259229,0,0,0.99259229,3.2296284,35.353203)"
         style="fill:#0046c8;fill-opacity:1;stroke:none;stroke-width:0.2;stroke-linecap:square;stroke-linejoin:round;stroke-miterlimit:4;stroke-dasharray:none;stroke-opacity:1;filter:url(#filter5494)"
         id="g5398">
        <path
           style="fill:#0046c8;fill-opacity:1;fill-rule:evenodd;stroke:none;stroke-width:0.2;stroke-linecap:square;stroke-linejoin:round;stroke-miterlimit:4;stroke-dasharray:none;stroke-opacity:1"
           d="m 0,996.36216 4,-8 2,0 0,8 -2,0 0,-4 -2,4 z"
           id="path5400"
           inkscape:connector-curvature="0" />
        <path
           style="fill:#0046c8;fill-opacity:1;fill-rule:evenodd;stroke:none;stroke-width:0.2;stroke-linecap:square;stroke-linejoin:round;stroke-miterlimit:4;stroke-dasharray:none;stroke-opacity:1"
           d="m 13,996.36216 -6,0 0,-8 6,0 0,2 -4,0 0,4 4,0 z"
           id="path5402"
           inkscape:connector-curvature="0" />
        <path
           style="fill:#0046c8;fill-opacity:1;fill-rule:evenodd;stroke:none;stroke-width:0.2;stroke-linecap:square;stroke-linejoin:round;stroke-miterlimit:4;stroke-dasharray:none;stroke-opacity:1"
           d="m 14,988.36216 6,0 c 0,0 0,2 0,2 l -6,0 z"
           id="path5404"
           inkscape:connector-curvature="0" />
        <path
           style="fill:#0046c8;fill-opacity:1;fill-rule:evenodd;stroke:none;stroke-width:0.2;stroke-linecap:square;stroke-linejoin:round;stroke-miterlimit:4;stroke-dasharray:none;stroke-opacity:1"
           d="m 14,991.36216 6,0 0,2 -6,0 z"
           id="path5406"
           inkscape:connector-curvature="0" />
        <path
           style="fill:#0046c8;fill-opacity:1;fill-rule:evenodd;stroke:none;stroke-width:0.2;stroke-linecap:square;stroke-linejoin:round;stroke-miterlimit:4;stroke-dasharray:none;stroke-opacity:1"
           d="m 14,994.36216 6,0 0,2 -6,0 z"
           id="path5408"
           inkscape:connector-curvature="0" />
        <path
           inkscape:connector-curvature="0"
           id="path5410"
           d="m 27,996.36216 -4,-8 -2,0 0,8 2,0 0,-4 2,4 z"
           style="fill:#0046c8;fill-opacity:1;fill-rule:evenodd;stroke:none;stroke-width:0.2;stroke-linecap:square;stroke-linejoin:round;stroke-miterlimit:4;stroke-dasharray:none;stroke-opacity:1" />
        <path
           style="fill:#0046c8;fill-opacity:1;fill-rule:evenodd;stroke:none;stroke-width:0.2;stroke-linecap:square;stroke-linejoin:round;stroke-miterlimit:4;stroke-dasharray:none;stroke-opacity:1"
           d="m 28,996.36216 6,0 -2.5,-5 -4,0 -0.5,-1 4,0 -1,-2 -6,0 2.5,5 4,0 0.5,1 -4,0 z"
           id="path5412"
           inkscape:connector-curvature="0" />
        <path
           style="fill:#0046c8;fill-opacity:1;fill-rule:evenodd;stroke:none;stroke-width:0.2;stroke-linecap:square;stroke-linejoin:round;stroke-miterlimit:4;stroke-dasharray:none;stroke-opacity:1"
           d="m 31,988.36216 4,0 c 1,0 2.5,1 3,2 l 0.5,1 c 0.5,1 0,2 -1,2 l -1,0 -1,-2 1,0 -0.5,-1 -2,0 3,6 -2,0 z"
           id="path5414"
           inkscape:connector-curvature="0"
           sodipodi:nodetypes="ccccccccccccc" />
        <path
           style="fill:#0046c8;fill-opacity:1;fill-rule:evenodd;stroke:none;stroke-width:0.2;stroke-linecap:square;stroke-linejoin:round;stroke-miterlimit:4;stroke-dasharray:none;stroke-opacity:1"
           d="m 38,988.36216 4,8 2,0 0,-8 -2,0 0,4 -2,-4 z"
           id="path5416"
           inkscape:connector-curvature="0" />
        <path
           style="fill:#0046c8;fill-opacity:1;fill-rule:evenodd;stroke:none;stroke-width:0.2;stroke-linecap:square;stroke-linejoin:round;stroke-miterlimit:4;stroke-dasharray:none;stroke-opacity:1"
           d="m 51,996.36216 -4,-8 -2,0 0,8 2,0 0,-4 2,4 z"
           id="path5418"
           inkscape:connector-curvature="0" />
        <path
           style="fill:#0046c8;fill-opacity:1;fill-rule:evenodd;stroke:none;stroke-width:0.2;stroke-linecap:square;stroke-linejoin:round;stroke-miterlimit:4;stroke-dasharray:none;stroke-opacity:1"
           d="m 48,988.36216 4,8 6,0 -4,-8 -6,0 z m 3,2 2,0 2,4 -2,0 -2,-4 z"
           id="path5420"
           inkscape:connector-curvature="0" />
      </g>
      <g
         transform="matrix(0.99259229,0,0,0.99259229,3.2296284,35.353203)"
         style="fill:url(#radialGradient5276);fill-opacity:1;stroke:url(#radialGradient5316);stroke-width:0.2;stroke-linecap:square;stroke-linejoin:round;stroke-miterlimit:4;stroke-dasharray:none;stroke-opacity:1"
         id="g5257">
        <path
           style="fill:url(#radialGradient5278);fill-opacity:1;fill-rule:evenodd;stroke:url(#radialGradient5592);stroke-width:0.2;stroke-linecap:square;stroke-linejoin:round;stroke-miterlimit:4;stroke-dasharray:none;stroke-opacity:1"
           d="m 0,996.36216 4,-8 2,0 0,8 -2,0 0,-4 -2,4 z"
           id="path4684"
           inkscape:connector-curvature="0" />
        <path
           style="fill:url(#radialGradient5280);fill-opacity:1;fill-rule:evenodd;stroke:url(#radialGradient5594);stroke-width:0.2;stroke-linecap:square;stroke-linejoin:round;stroke-miterlimit:4;stroke-dasharray:none;stroke-opacity:1"
           d="m 13,996.36216 -6,0 0,-8 6,0 0,2 -4,0 0,4 4,0 z"
           id="path5226"
           inkscape:connector-curvature="0" />
        <path
           style="fill:url(#radialGradient5282);fill-opacity:1;fill-rule:evenodd;stroke:url(#radialGradient5596);stroke-width:0.2;stroke-linecap:square;stroke-linejoin:round;stroke-miterlimit:4;stroke-dasharray:none;stroke-opacity:1"
           d="m 14,988.36216 6,0 c 0,0 0,2 0,2 l -6,0 z"
           id="path5228"
           inkscape:connector-curvature="0" />
        <path
           style="fill:url(#radialGradient5284);fill-opacity:1;fill-rule:evenodd;stroke:url(#radialGradient5598);stroke-width:0.2;stroke-linecap:square;stroke-linejoin:round;stroke-miterlimit:4;stroke-dasharray:none;stroke-opacity:1"
           d="m 14,991.36216 6,0 0,2 -6,0 z"
           id="path5230"
           inkscape:connector-curvature="0" />
        <path
           style="fill:url(#radialGradient5286);fill-opacity:1;fill-rule:evenodd;stroke:url(#radialGradient5600);stroke-width:0.2;stroke-linecap:square;stroke-linejoin:round;stroke-miterlimit:4;stroke-dasharray:none;stroke-opacity:1"
           d="m 14,994.36216 6,0 0,2 -6,0 z"
           id="path5232"
           inkscape:connector-curvature="0" />
        <path
           inkscape:connector-curvature="0"
           id="path5234"
           d="m 27,996.36216 -4,-8 -2,0 0,8 2,0 0,-4 2,4 z"
           style="fill:url(#radialGradient5288);fill-opacity:1;fill-rule:evenodd;stroke:url(#radialGradient5602);stroke-width:0.2;stroke-linecap:square;stroke-linejoin:round;stroke-miterlimit:4;stroke-dasharray:none;stroke-opacity:1" />
        <path
           style="fill:url(#radialGradient5290);fill-opacity:1;fill-rule:evenodd;stroke:url(#radialGradient5604);stroke-width:0.2;stroke-linecap:square;stroke-linejoin:round;stroke-miterlimit:4;stroke-dasharray:none;stroke-opacity:1"
           d="m 28,996.36216 6,0 -2.5,-5 -4,0 -0.5,-1 4,0 -1,-2 -6,0 2.5,5 4,0 0.5,1 -4,0 z"
           id="path5244"
           inkscape:connector-curvature="0" />
        <path
           style="fill:url(#radialGradient5292);fill-opacity:1;fill-rule:evenodd;stroke:url(#radialGradient5606);stroke-width:0.2;stroke-linecap:square;stroke-linejoin:round;stroke-miterlimit:4;stroke-dasharray:none;stroke-opacity:1"
           d="m 31,988.36216 4,0 c 1,0 2.5,1 3,2 l 0.5,1 c 0.5,1 0,2 -1,2 l -1,0 -1,-2 1,0 -0.5,-1 -2,0 3,6 -2,0 z"
           id="path5246"
           inkscape:connector-curvature="0"
           sodipodi:nodetypes="ccccccccccccc" />
        <path
           style="fill:url(#radialGradient5294);fill-opacity:1;fill-rule:evenodd;stroke:url(#radialGradient5608);stroke-width:0.2;stroke-linecap:square;stroke-linejoin:round;stroke-miterlimit:4;stroke-dasharray:none;stroke-opacity:1"
           d="m 38,988.36216 4,8 2,0 0,-8 -2,0 0,4 -2,-4 z"
           id="path5248"
           inkscape:connector-curvature="0" />
        <path
           style="fill:url(#radialGradient5296);fill-opacity:1;fill-rule:evenodd;stroke:url(#radialGradient5610);stroke-width:0.2;stroke-linecap:square;stroke-linejoin:round;stroke-miterlimit:4;stroke-dasharray:none;stroke-opacity:1"
           d="m 51,996.36216 -4,-8 -2,0 0,8 2,0 0,-4 2,4 z"
           id="path5250"
           inkscape:connector-curvature="0" />
        <path
           style="fill:url(#radialGradient5298);fill-opacity:1;fill-rule:evenodd;stroke:url(#radialGradient5612);stroke-width:0.2;stroke-linecap:square;stroke-linejoin:round;stroke-miterlimit:4;stroke-dasharray:none;stroke-opacity:1"
           d="m 48,988.36216 4,8 6,0 -4,-8 -6,0 z m 3,2 2,0 2,4 -2,0 -2,-4 z"
           id="path5252"
           inkscape:connector-curvature="0" />
      </g>
    </g>
  </g>
</svg>
